NotoSerifBengali-ExtraCondensedSemiBold.ufo
<glyph name="exclam" format="2">
  <advance width="301.3103448275862"/>
  <unicode hex="0021"/>
  <outline>
    <contour>
      <point x="123.55172413793105" y="217.93103448275863" type="line"/>
      <point x="176.75862068965517" y="217.93103448275863" type="line"/>
      <point x="215.93103448275863" y="714.0" type="line"/>
      <point x="84.37931034482759" y="714.0" type="line"/>
    </contour>
    <contour>
      <point x="151.27586206896552" y="-7.620689655172414" type="curve" smooth="yes"/>
      <point x="183.86206896551724" y="-7.620689655172414"/>
      <point x="212.20689655172416" y="9.241379310344827"/>
      <point x="212.20689655172416" y="61.82758620689655" type="curve" smooth="yes"/>
      <point x="212.20689655172416" y="114.41379310344827"/>
      <point x="183.86206896551724" y="131.27586206896552"/>
      <point x="151.27586206896552" y="131.27586206896552" type="curve" smooth="yes"/>
      <point x="116.0689655172414" y="131.27586206896552"/>
      <point x="89.72413793103449" y="114.41379310344827"/>
      <point x="89.72413793103449" y="61.82758620689655" type="curve" smooth="yes"/>
      <point x="89.72413793103449" y="9.241379310344827"/>
      <point x="116.0689655172414" y="-7.620689655172414"/>
    </contour>
  </outline>
</glyph>
<glyph name="quotedbl" format="2">
  <advance width="394.8965517241379"/>
  <unicode hex="0022"/>
  <outline>
    <contour>
      <point x="258.17241379310343" y="463.7586206896552" type="line"/>
      <point x="308.10344827586204" y="463.7586206896552" type="line"/>
      <point x="341.93103448275866" y="714.0" type="line"/>
      <point x="223.72413793103445" y="714.0" type="line"/>
    </contour>
    <contour>
      <point x="87.41379310344827" y="463.7586206896552" type="line"/>
      <point x="136.72413793103448" y="463.7586206896552" type="line"/>
      <point x="171.17241379310343" y="714.0" type="line"/>
      <point x="52.96551724137931" y="714.0" type="line"/>
    </contour>
  </outline>
</glyph>
<glyph name="numbersign" format="2">
  <advance width="451.0689655172414"/>
  <unicode hex="0023"/>
  <outline>
    <contour>
      <point x="47.103448275862064" y="0.0" type="line"/>
      <point x="110.79310344827586" y="0.0" type="line"/>
      <point x="149.17241379310343" y="204.27586206896552" type="line"/>
      <point x="240.13793103448273" y="204.27586206896552" type="line"/>
      <point x="202.3793103448276" y="0.0" type="line"/>
      <point x="266.0689655172414" y="0.0" type="line"/>
      <point x="303.8275862068965" y="204.27586206896552" type="line"/>
      <point x="409.2068965517241" y="204.27586206896552" type="line"/>
      <point x="409.2068965517241" y="264.58620689655174" type="line"/>
      <point x="316.3103448275862" y="264.58620689655174" type="line"/>
      <point x="351.8275862068965" y="454.41379310344826" type="line"/>
      <point x="441.20689655172407" y="454.41379310344826" type="line"/>
      <point x="441.20689655172407" y="516.1034482758621" type="line"/>
      <point x="363.0689655172414" y="516.1034482758621" type="line"/>
      <point x="401.0689655172414" y="714.0" type="line"/>
      <point x="336.37931034482756" y="714.0" type="line"/>
      <point x="299.3793103448276" y="516.1034482758621" type="line"/>
      <point x="208.41379310344826" y="516.1034482758621" type="line"/>
      <point x="245.79310344827584" y="714.0" type="line"/>
      <point x="181.10344827586206" y="714.0" type="line"/>
      <point x="144.72413793103448" y="516.1034482758621" type="line"/>
      <point x="41.48275862068965" y="516.1034482758621" type="line"/>
      <point x="41.48275862068965" y="454.41379310344826" type="line"/>
      <point x="132.48275862068965" y="454.41379310344826" type="line"/>
      <point x="96.72413793103448" y="264.58620689655174" type="line"/>
      <point x="9.482758620689657" y="264.58620689655174" type="line"/>
      <point x="9.482758620689657" y="204.27586206896552" type="line"/>
      <point x="85.48275862068965" y="204.27586206896552" type="line"/>
    </contour>
    <contour>
      <point x="160.41379310344826" y="264.58620689655174" type="line"/>
      <point x="197.17241379310343" y="454.41379310344826" type="line"/>
      <point x="288.7586206896552" y="454.41379310344826" type="line"/>
      <point x="252.6206896551724" y="264.58620689655174" type="line"/>
    </contour>
  </outline>
</glyph>
<glyph name="percent" format="2">
  <advance width="729.0"/>
  <unicode hex="0025"/>
  <outline>
    <contour>
      <point x="193.20689655172413" y="0.0" type="line"/>
      <point x="254.41379310344828" y="0.0" type="line"/>
      <point x="533.4137931034483" y="714.0" type="line"/>
      <point x="472.5862068965517" y="714.0" type="line"/>
    </contour>
    <contour>
      <point x="171.58620689655172" y="280.0" type="curve" smooth="yes"/>
      <point x="268.4137931034483" y="280.0"/>
      <point x="314.89655172413796" y="369.0"/>
      <point x="314.89655172413796" y="503.0" type="curve"/>
      <point x="314.89655172413796" y="637.0"/>
      <point x="268.41379310344826" y="724.0"/>
      <point x="172.58620689655172" y="724.0" type="curve" smooth="yes"/>
      <point x="70.75862068965517" y="724.0"/>
      <point x="28.655172413793103" y="637.0"/>
      <point x="28.655172413793103" y="503.0" type="curve" smooth="yes"/>
      <point x="28.655172413793103" y="369.0"/>
      <point x="70.75862068965517" y="280.0"/>
    </contour>
    <contour>
      <point x="171.58620689655172" y="321.58620689655174" type="curve" smooth="yes"/>
      <point x="127.31034482758619" y="321.58620689655174"/>
      <point x="111.9310344827586" y="386.7241379310345"/>
      <point x="111.9310344827586" y="503.0" type="curve"/>
      <point x="111.9310344827586" y="617.2758620689656"/>
      <point x="127.31034482758619" y="681.4137931034483"/>
      <point x="172.58620689655172" y="681.4137931034483" type="curve" smooth="yes"/>
      <point x="216.8620689655172" y="681.4137931034483"/>
      <point x="230.62068965517238" y="617.2758620689655"/>
      <point x="230.62068965517238" y="503.0" type="curve" smooth="yes"/>
      <point x="230.62068965517238" y="386.72413793103453"/>
      <point x="216.8620689655172" y="321.58620689655174"/>
    </contour>
    <contour>
      <point x="557.0344827586207" y="-10.0" type="curve" smooth="yes"/>
      <point x="653.2413793103448" y="-10.0"/>
      <point x="700.3448275862069" y="79.0"/>
      <point x="700.3448275862069" y="213.0" type="curve" smooth="yes"/>
      <point x="700.3448275862069" y="347.0"/>
      <point x="653.2413793103448" y="434.0"/>
      <point x="558.0344827586207" y="434.0" type="curve" smooth="yes"/>
      <point x="456.58620689655174" y="434.0"/>
      <point x="414.1034482758621" y="347.0"/>
      <point x="414.1034482758621" y="213.0" type="curve" smooth="yes"/>
      <point x="414.1034482758621" y="79.0"/>
      <point x="456.58620689655174" y="-10.0"/>
    </contour>
    <contour>
      <point x="557.0344827586207" y="31.586206896551726" type="curve" smooth="yes"/>
      <point x="512.7586206896552" y="31.586206896551726"/>
      <point x="497.3793103448276" y="96.72413793103448"/>
      <point x="497.3793103448276" y="213.0" type="curve" smooth="yes"/>
      <point x="497.3793103448276" y="327.27586206896547"/>
      <point x="512.7586206896552" y="391.41379310344826"/>
      <point x="557.0344827586207" y="391.41379310344826" type="curve" smooth="yes"/>
      <point x="602.3103448275862" y="391.41379310344826"/>
      <point x="616.0689655172414" y="327.27586206896547"/>
      <point x="616.0689655172414" y="213.0" type="curve" smooth="yes"/>
      <point x="616.0689655172414" y="96.72413793103448"/>
      <point x="602.3103448275862" y="31.586206896551726"/>
    </contour>
  </outline>
</glyph>
<glyph name="quotesingle" format="2">
  <advance width="224.13793103448276"/>
  <unicode hex="0027"/>
  <outline>
    <contour>
      <point x="87.41379310344827" y="463.7586206896552" type="line"/>
      <point x="136.72413793103448" y="463.7586206896552" type="line"/>
      <point x="171.17241379310343" y="714.0" type="line"/>
      <point x="52.96551724137931" y="714.0" type="line"/>
    </contour>
  </outline>
</glyph>
<glyph name="parenleft" format="2">
  <advance width="313.7931034482759"/>
  <unicode hex="0028"/>
  <outline>
    <contour>
      <point x="289.1724137931035" y="-132.58620689655172" type="curve"/>
      <point x="289.1724137931035" y="-79.27586206896552" type="line"/>
      <point x="186.89655172413794" y="3.103448275862069"/>
      <point x="167.93103448275863" y="158.6206896551724"/>
      <point x="167.93103448275863" y="317.62068965517244" type="curve" smooth="yes"/>
      <point x="167.93103448275863" y="476.0"/>
      <point x="186.89655172413794" y="629.5172413793103"/>
      <point x="289.1724137931035" y="712.8965517241379" type="curve"/>
      <point x="289.1724137931035" y="764.2068965517242" type="line"/>
      <point x="114.6896551724138" y="686.1379310344828"/>
      <point x="45.62068965517241" y="547.5862068965517"/>
      <point x="45.62068965517241" y="317.62068965517244" type="curve" smooth="yes"/>
      <point x="45.62068965517241" y="86.03448275862068"/>
      <point x="114.6896551724138" y="-52.51724137931035"/>
    </contour>
  </outline>
</glyph>
<glyph name="parenright" format="2">
  <advance width="313.7931034482759"/>
  <unicode hex="0029"/>
  <outline>
    <contour>
      <point x="25.62068965517241" y="-132.58620689655172" type="line"/>
      <point x="200.1034482758621" y="-52.51724137931035"/>
      <point x="268.55172413793105" y="86.03448275862068"/>
      <point x="268.55172413793105" y="317.62068965517244" type="curve" smooth="yes"/>
      <point x="268.55172413793105" y="547.5862068965517"/>
      <point x="200.1034482758621" y="686.1379310344828"/>
      <point x="25.62068965517241" y="764.2068965517242" type="curve"/>
      <point x="25.62068965517241" y="712.8965517241379" type="line"/>
      <point x="127.27586206896552" y="629.5172413793103"/>
      <point x="147.24137931034485" y="476.0"/>
      <point x="147.24137931034485" y="317.62068965517244" type="curve" smooth="yes"/>
      <point x="147.24137931034485" y="158.6206896551724"/>
      <point x="127.27586206896552" y="3.103448275862069"/>
      <point x="25.62068965517241" y="-79.27586206896552" type="curve"/>
    </contour>
  </outline>
</glyph>
<glyph name="asterisk" format="2">
  <advance width="391.51724137931035"/>
  <unicode hex="002A"/>
  <outline>
    <contour>
      <point x="154.86206896551724" y="370.2758620689655" type="line"/>
      <point x="238.89655172413794" y="370.2758620689655" type="line"/>
      <point x="212.17241379310343" y="535.4137931034483" type="line"/>
      <point x="329.6551724137931" y="436.3103448275862" type="line"/>
      <point x="364.2413793103448" y="519.1034482758621" type="line"/>
      <point x="241.24137931034483" y="565.1379310344828" type="line"/>
      <point x="364.2413793103448" y="611.1724137931034" type="line"/>
      <point x="329.6551724137931" y="693.9655172413794" type="line"/>
      <point x="212.17241379310343" y="594.6206896551724" type="line"/>
      <point x="239.51724137931035" y="760.0" type="line"/>
      <point x="154.86206896551724" y="760.0" type="line"/>
      <point x="180.20689655172413" y="593.6206896551723" type="line"/>
      <point x="63.103448275862064" y="695.9655172413793" type="line"/>
      <point x="29.13793103448276" y="612.1724137931034" type="line"/>
      <point x="152.13793103448276" y="565.1379310344828" type="line"/>
      <point x="29.13793103448276" y="518.1034482758621" type="line"/>
      <point x="63.103448275862064" y="434.3103448275862" type="line"/>
      <point x="179.58620689655172" y="536.0344827586207" type="line"/>
    </contour>
  </outline>
</glyph>
<glyph name="plus" format="2">
  <advance width="425.0"/>
  <unicode hex="002B"/>
  <outline>
    <contour>
      <point x="178.89655172413794" y="143.0" type="line"/>
      <point x="244.7241379310345" y="143.0" type="line"/>
      <point x="244.7241379310345" y="325.8965517241379" type="line"/>
      <point x="385.1034482758621" y="325.8965517241379" type="line"/>
      <point x="385.1034482758621" y="389.1034482758621" type="line"/>
      <point x="244.7241379310345" y="389.1034482758621" type="line"/>
      <point x="244.7241379310345" y="572.0" type="line"/>
      <point x="178.89655172413794" y="572.0" type="line"/>
      <point x="178.89655172413794" y="389.1034482758621" type="line"/>
      <point x="39.89655172413793" y="389.1034482758621" type="line"/>
      <point x="39.89655172413793" y="325.8965517241379" type="line"/>
      <point x="178.89655172413794" y="325.8965517241379" type="line"/>
    </contour>
  </outline>
</glyph>
<glyph name="comma" format="2">
  <advance width="230.58620689655174"/>
  <unicode hex="002C"/>
  <outline>
    <contour>
      <point x="37.58620689655173" y="-154.0" type="line"/>
      <point x="136.27586206896552" y="-121.37931034482759"/>
      <point x="173.3793103448276" y="-49.51724137931035"/>
      <point x="173.3793103448276" y="30.344827586206893" type="curve" smooth="yes"/>
      <point x="173.3793103448276" y="93.3103448275862"/>
      <point x="149.3793103448276" y="131.27586206896552"/>
      <point x="106.55172413793105" y="131.27586206896552" type="curve" smooth="yes"/>
      <point x="75.20689655172413" y="131.27586206896552"/>
      <point x="50.48275862068965" y="109.41379310344827"/>
      <point x="50.48275862068965" y="72.06896551724138" type="curve" smooth="yes"/>
      <point x="50.48275862068965" y="6.8965517241379315"/>
      <point x="105.20689655172413" y="11.0"/>
      <point x="105.20689655172413" y="-25.379310344827584" type="curve" smooth="yes"/>
      <point x="105.20689655172413" y="-61.0"/>
      <point x="81.9655172413793" y="-90.79310344827587"/>
      <point x="37.58620689655173" y="-110.41379310344828" type="curve"/>
    </contour>
  </outline>
</glyph>
<glyph name="hyphen" format="2">
  <advance width="250.9655172413793"/>
  <unicode hex="002D"/>
  <outline>
    <contour>
      <point x="20.620689655172413" y="228.55172413793105" type="line"/>
      <point x="230.3448275862069" y="228.55172413793105" type="line"/>
      <point x="230.3448275862069" y="316.44827586206895" type="line"/>
      <point x="20.620689655172413" y="316.44827586206895" type="line"/>
    </contour>
  </outline>
</glyph>
<glyph name="period" format="2">
  <advance width="230.58620689655172"/>
  <unicode hex="002E"/>
  <outline>
    <contour>
      <point x="115.79310344827587" y="-7.620689655172414" type="curve" smooth="yes"/>
      <point x="148.3793103448276" y="-7.620689655172414"/>
      <point x="177.3448275862069" y="9.241379310344827"/>
      <point x="177.3448275862069" y="61.82758620689655" type="curve" smooth="yes"/>
      <point x="177.3448275862069" y="114.41379310344827"/>
      <point x="148.3793103448276" y="131.27586206896552"/>
      <point x="115.79310344827587" y="131.27586206896552" type="curve" smooth="yes"/>
      <point x="80.58620689655172" y="131.27586206896552"/>
      <point x="53.24137931034482" y="114.41379310344827"/>
      <point x="53.24137931034482" y="61.82758620689655" type="curve" smooth="yes"/>
      <point x="53.24137931034482" y="9.241379310344827"/>
      <point x="80.58620689655172" y="-7.620689655172414"/>
    </contour>
  </outline>
</glyph>
<glyph name="slash" format="2">
  <advance width="232.3448275862069"/>
  <unicode hex="002F"/>
  <outline>
    <contour>
      <point x="0.0" y="-121.0" type="line"/>
      <point x="56.82758620689655" y="-120.62068965517241" type="line"/>
      <point x="232.3448275862069" y="760.0" type="line"/>
      <point x="178.13793103448276" y="760.0" type="line"/>
    </contour>
  </outline>
</glyph>
<glyph name="zero" format="2">
  <advance width="450.6896551724138"/>
  <unicode hex="0030"/>
  <outline>
    <contour>
      <point x="225.3448275862069" y="-10.0" type="curve" smooth="yes"/>
      <point x="365.0344827586207" y="-10.0"/>
      <point x="421.03448275862075" y="128.10344827586206"/>
      <point x="421.03448275862075" y="358.0" type="curve" smooth="yes"/>
      <point x="421.03448275862075" y="590.2758620689655"/>
      <point x="367.41379310344826" y="724.0"/>
      <point x="226.3448275862069" y="724.0" type="curve" smooth="yes"/>
      <point x="77.27586206896551" y="724.0"/>
      <point x="28.655172413793103" y="586.1379310344828"/>
      <point x="28.655172413793103" y="359.0" type="curve" smooth="yes"/>
      <point x="28.655172413793103" y="125.34482758620689"/>
      <point x="79.03448275862068" y="-10.0"/>
    </contour>
    <contour>
      <point x="225.3448275862069" y="46.20689655172414" type="curve" smooth="yes"/>
      <point x="160.65517241379308" y="46.20689655172414"/>
      <point x="145.10344827586206" y="160.72413793103448"/>
      <point x="145.10344827586206" y="358.0" type="curve" smooth="yes"/>
      <point x="145.10344827586206" y="555.2758620689655"/>
      <point x="160.65517241379308" y="667.7931034482758"/>
      <point x="226.3448275862069" y="667.7931034482758" type="curve" smooth="yes"/>
      <point x="289.41379310344826" y="667.7931034482758"/>
      <point x="305.9655172413793" y="555.2758620689655"/>
      <point x="305.9655172413793" y="358.0" type="curve" smooth="yes"/>
      <point x="305.9655172413793" y="160.72413793103448"/>
      <point x="289.41379310344826" y="46.20689655172414"/>
    </contour>
  </outline>
</glyph>
<glyph name="one" format="2">
  <advance width="450.6896551724138"/>
  <unicode hex="0031"/>
  <outline>
    <contour>
      <point x="73.41379310344827" y="0.0" type="line"/>
      <point x="397.7241379310345" y="0.0" type="line"/>
      <point x="397.7241379310345" y="46.58620689655172" type="line"/>
      <point x="356.89655172413796" y="46.58620689655172" type="line" smooth="yes"/>
      <point x="320.0" y="46.58620689655172"/>
      <point x="296.7241379310345" y="61.55172413793103"/>
      <point x="296.7241379310345" y="114.86206896551724" type="curve" smooth="yes"/>
      <point x="296.7241379310345" y="718.0" type="line"/>
      <point x="216.8965517241379" y="718.0" type="line"/>
      <point x="160.6551724137931" y="668.2413793103449" type="line" smooth="yes"/>
      <point x="106.41379310344828" y="620.2413793103449"/>
      <point x="69.6896551724138" y="602.8620689655172"/>
      <point x="37.06896551724138" y="592.8620689655172" type="curve"/>
      <point x="37.06896551724138" y="555.0344827586207"/>
      <point x="56.55172413793103" y="532.3103448275862"/>
      <point x="82.41379310344827" y="532.3103448275862" type="curve" smooth="yes"/>
      <point x="114.65517241379311" y="532.3103448275862"/>
      <point x="147.27586206896552" y="570.5862068965517"/>
      <point x="186.89655172413794" y="627.5862068965517" type="curve"/>
      <point x="186.89655172413794" y="114.86206896551724" type="line" smooth="yes"/>
      <point x="186.89655172413794" y="56.068965517241374"/>
      <point x="161.13793103448276" y="46.58620689655172"/>
      <point x="126.10344827586206" y="46.58620689655172" type="curve" smooth="yes"/>
      <point x="73.41379310344827" y="46.58620689655172" type="line"/>
    </contour>
  </outline>
</glyph>
<glyph name="two" format="2">
  <advance width="450.6896551724138"/>
  <unicode hex="0032"/>
  <outline>
    <contour>
      <point x="31.413793103448278" y="0.0" type="line"/>
      <point x="411.13793103448273" y="0.0" type="line"/>
      <point x="414.7586206896552" y="188.0" type="line"/>
      <point x="368.3103448275862" y="188.0" type="line"/>
      <point x="362.44827586206895" y="163.41379310344826" type="line" smooth="yes"/>
      <point x="352.2068965517241" y="116.41379310344828"/>
      <point x="330.7586206896552" y="91.89655172413794"/>
      <point x="294.82758620689657" y="91.89655172413794" type="curve" smooth="yes"/>
      <point x="113.06896551724138" y="91.89655172413794" type="line"/>
      <point x="240.37931034482762" y="248.44827586206898" type="line" smooth="yes"/>
      <point x="332.6896551724138" y="354.0689655172414"/>
      <point x="396.13793103448273" y="442.4137931034483"/>
      <point x="396.13793103448273" y="552.7586206896552" type="curve" smooth="yes"/>
      <point x="396.13793103448273" y="654.3793103448277"/>
      <point x="330.2758620689655" y="724.0"/>
      <point x="211.48275862068962" y="724.0" type="curve" smooth="yes"/>
      <point x="94.41379310344826" y="724.0"/>
      <point x="36.93103448275862" y="660.4137931034483"/>
      <point x="36.93103448275862" y="590.0344827586207" type="curve" smooth="yes"/>
      <point x="36.93103448275862" y="531.3448275862069"/>
      <point x="82.62068965517241" y="515.1034482758621"/>
      <point x="130.55172413793102" y="515.1034482758621" type="curve"/>
      <point x="130.55172413793102" y="607.8620689655172"/>
      <point x="150.03448275862067" y="669.4137931034483"/>
      <point x="211.48275862068962" y="669.4137931034483" type="curve" smooth="yes"/>
      <point x="255.55172413793105" y="669.4137931034483"/>
      <point x="280.9310344827586" y="626.4827586206897"/>
      <point x="280.9310344827586" y="546.2413793103448" type="curve" smooth="yes"/>
      <point x="280.9310344827586" y="452.5172413793103"/>
      <point x="252.6896551724138" y="375.6551724137931"/>
      <point x="158.86206896551724" y="251.9310344827586" type="curve" smooth="yes"/>
      <point x="31.413793103448278" y="80.03448275862068" type="line"/>
    </contour>
  </outline>
</glyph>
<glyph name="three" format="2">
  <advance width="450.6896551724138"/>
  <unicode hex="0033"/>
  <outline>
    <contour>
      <point x="204.75862068965517" y="-10.0" type="curve" smooth="yes"/>
      <point x="312.1724137931035" y="-10.0"/>
      <point x="415.89655172413796" y="43.0"/>
      <point x="415.89655172413796" y="199.10344827586206" type="curve" smooth="yes"/>
      <point x="415.89655172413796" y="319.2758620689655"/>
      <point x="342.89655172413796" y="366.1379310344828"/>
      <point x="274.65517241379314" y="378.62068965517244" type="curve"/>
      <point x="343.6551724137931" y="403.3448275862069"/>
      <point x="395.89655172413796" y="468.3793103448276"/>
      <point x="395.89655172413796" y="558.3793103448276" type="curve" smooth="yes"/>
      <point x="395.89655172413796" y="664.3793103448276"/>
      <point x="325.17241379310343" y="724.0"/>
      <point x="216.37931034482756" y="724.0" type="curve" smooth="yes"/>
      <point x="99.93103448275862" y="724.0"/>
      <point x="42.06896551724138" y="661.5172413793103"/>
      <point x="42.06896551724138" y="590.3793103448276" type="curve" smooth="yes"/>
      <point x="42.06896551724138" y="539.5517241379309"/>
      <point x="80.03448275862068" y="522.0689655172413"/>
      <point x="130.44827586206895" y="522.0689655172413" type="curve"/>
      <point x="130.44827586206895" y="601.0689655172413"/>
      <point x="151.58620689655172" y="669.4137931034483"/>
      <point x="209.3793103448276" y="669.4137931034483" type="curve" smooth="yes"/>
      <point x="255.9310344827586" y="669.4137931034483"/>
      <point x="281.0689655172414" y="624.0344827586207"/>
      <point x="281.0689655172414" y="548.7586206896551" type="curve" smooth="yes"/>
      <point x="281.0689655172414" y="455.86206896551727"/>
      <point x="250.13793103448276" y="397.4827586206897"/>
      <point x="180.13793103448276" y="397.4827586206897" type="curve"/>
      <point x="130.58620689655172" y="397.4827586206897" type="line"/>
      <point x="130.58620689655172" y="344.27586206896547" type="line"/>
      <point x="177.27586206896552" y="344.27586206896547" type="line" smooth="yes"/>
      <point x="260.93103448275866" y="344.27586206896547"/>
      <point x="301.0689655172414" y="287.8965517241379"/>
      <point x="301.0689655172414" y="200.10344827586206" type="curve" smooth="yes"/>
      <point x="301.0689655172414" y="88.10344827586206"/>
      <point x="255.17241379310343" y="50.06896551724138"/>
      <point x="201.89655172413794" y="50.06896551724138" type="curve" smooth="yes"/>
      <point x="140.24137931034483" y="50.06896551724138"/>
      <point x="101.13793103448276" y="102.20689655172413"/>
      <point x="101.13793103448276" y="178.03448275862067" type="curve"/>
      <point x="61.27586206896551" y="178.03448275862067"/>
      <point x="28.31034482758621" y="153.41379310344826"/>
      <point x="28.31034482758621" y="108.82758620689654" type="curve" smooth="yes"/>
      <point x="28.31034482758621" y="42.86206896551724"/>
      <point x="77.93103448275862" y="-10.0"/>
    </contour>
  </outline>
</glyph>
<glyph name="four" format="2">
  <advance width="450.6896551724138"/>
  <unicode hex="0034"/>
  <outline>
    <contour>
      <point x="151.9655172413793" y="0.0" type="line"/>
      <point x="426.2758620689655" y="0.0" type="line"/>
      <point x="426.2758620689655" y="46.58620689655172" type="line"/>
      <point x="416.2758620689655" y="46.58620689655172" type="line" smooth="yes"/>
      <point x="379.2758620689655" y="46.58620689655172"/>
      <point x="349.0344827586207" y="55.58620689655172"/>
      <point x="349.0344827586207" y="118.58620689655172" type="curve" smooth="yes"/>
      <point x="349.0344827586207" y="192.0344827586207" type="line"/>
      <point x="435.2068965517242" y="192.0344827586207" type="line"/>
      <point x="435.2068965517242" y="252.0" type="line"/>
      <point x="349.0344827586207" y="252.0" type="line"/>
      <point x="349.0344827586207" y="714.0" type="line"/>
      <point x="240.68965517241378" y="714.0" type="line"/>
      <point x="11.758620689655173" y="240.9655172413793" type="line"/>
      <point x="11.758620689655173" y="192.0344827586207" type="line"/>
      <point x="240.20689655172416" y="192.0344827586207" type="line"/>
      <point x="240.20689655172416" y="118.58620689655172" type="line" smooth="yes"/>
      <point x="240.20689655172416" y="55.58620689655172"/>
      <point x="211.58620689655174" y="46.58620689655172"/>
      <point x="173.58620689655172" y="46.58620689655172" type="curve" smooth="yes"/>
      <point x="151.9655172413793" y="46.58620689655172" type="line"/>
    </contour>
    <contour>
      <point x="73.48275862068965" y="252.0" type="line"/>
      <point x="178.79310344827587" y="472.9655172413793" type="line" smooth="yes"/>
      <point x="199.79310344827584" y="517.8275862068966"/>
      <point x="231.96551724137933" y="592.2758620689655"/>
      <point x="245.82758620689657" y="630.4827586206897" type="curve"/>
      <point x="241.20689655172416" y="568.4827586206897"/>
      <point x="240.20689655172416" y="497.1379310344828"/>
      <point x="240.20689655172416" y="439.1379310344828" type="curve" smooth="yes"/>
      <point x="240.20689655172416" y="252.0" type="line"/>
    </contour>
  </outline>
</glyph>
<glyph name="five" format="2">
  <advance width="450.6896551724138"/>
  <unicode hex="0035"/>
  <outline>
    <contour>
      <point x="197.3448275862069" y="-10.0" type="curve" smooth="yes"/>
      <point x="299.55172413793105" y="-10.0"/>
      <point x="404.7586206896552" y="67.62068965517241"/>
      <point x="404.7586206896552" y="218.6206896551724" type="curve" smooth="yes"/>
      <point x="404.7586206896552" y="359.86206896551727"/>
      <point x="323.6551724137931" y="431.4827586206897"/>
      <point x="200.24137931034483" y="431.4827586206897" type="curve" smooth="yes"/>
      <point x="170.58620689655172" y="431.4827586206897"/>
      <point x="131.24137931034483" y="423.1034482758621"/>
      <point x="111.86206896551724" y="414.1034482758621" type="curve"/>
      <point x="128.24137931034483" y="622.7241379310344" type="line"/>
      <point x="290.9310344827586" y="622.7241379310344" type="line" smooth="yes"/>
      <point x="319.2068965517241" y="622.7241379310344"/>
      <point x="321.0689655172414" y="610.103448275862"/>
      <point x="329.448275862069" y="576.448275862069" type="curve" smooth="yes"/>
      <point x="336.3103448275862" y="551.103448275862" type="line"/>
      <point x="381.51724137931035" y="551.103448275862" type="line"/>
      <point x="377.8965517241379" y="714.0" type="line"/>
      <point x="86.6551724137931" y="714.0" type="line"/>
      <point x="58.41379310344828" y="364.72413793103453" type="line"/>
      <point x="84.24137931034483" y="350.37931034482756" type="line"/>
      <point x="108.34482758620689" y="361.13793103448273"/>
      <point x="139.24137931034483" y="374.27586206896547"/>
      <point x="179.27586206896552" y="374.27586206896547" type="curve" smooth="yes"/>
      <point x="247.65517241379308" y="374.27586206896547"/>
      <point x="289.55172413793105" y="321.7586206896552"/>
      <point x="289.55172413793105" y="218.6206896551724" type="curve" smooth="yes"/>
      <point x="289.55172413793105" y="89.34482758620689"/>
      <point x="243.17241379310346" y="48.44827586206897"/>
      <point x="186.3793103448276" y="48.44827586206897" type="curve" smooth="yes"/>
      <point x="121.13793103448276" y="48.44827586206897"/>
      <point x="96.10344827586206" y="108.03448275862068"/>
      <point x="96.10344827586206" y="167.41379310344828" type="curve"/>
      <point x="59.758620689655174" y="167.41379310344828"/>
      <point x="34.41379310344828" y="143.0344827586207"/>
      <point x="34.41379310344828" y="102.6896551724138" type="curve" smooth="yes"/>
      <point x="34.41379310344828" y="51.0"/>
      <point x="76.24137931034483" y="-10.0"/>
    </contour>
  </outline>
</glyph>
<glyph name="six" format="2">
  <advance width="450.6896551724138"/>
  <unicode hex="0036"/>
  <outline>
    <contour>
      <point x="236.3448275862069" y="-10.0" type="curve" smooth="yes"/>
      <point x="356.2758620689655" y="-10.0"/>
      <point x="419.89655172413796" y="88.0"/>
      <point x="419.89655172413796" y="229.6206896551724" type="curve" smooth="yes"/>
      <point x="419.89655172413796" y="357.86206896551727"/>
      <point x="356.2758620689655" y="434.86206896551727"/>
      <point x="260.17241379310343" y="434.86206896551727" type="curve" smooth="yes"/>
      <point x="203.9310344827586" y="434.86206896551727"/>
      <point x="171.03448275862067" y="410.58620689655174"/>
      <point x="148.2758620689655" y="388.3103448275862" type="curve"/>
      <point x="153.13793103448273" y="571.8965517241379"/>
      <point x="186.79310344827584" y="671.4137931034483"/>
      <point x="252.34482758620686" y="671.4137931034483" type="curve" smooth="yes"/>
      <point x="298.7586206896552" y="671.4137931034483"/>
      <point x="320.13793103448273" y="620.448275862069"/>
      <point x="320.13793103448273" y="550.2068965517241" type="curve"/>
      <point x="378.0344827586207" y="550.2068965517241"/>
      <point x="402.8965517241379" y="575.4137931034483"/>
      <point x="402.8965517241379" y="616.5172413793103" type="curve" smooth="yes"/>
      <point x="402.8965517241379" y="672.3793103448276"/>
      <point x="356.89655172413796" y="724.0"/>
      <point x="255.96551724137933" y="724.0" type="curve" smooth="yes"/>
      <point x="108.37931034482759" y="724.0"/>
      <point x="38.793103448275865" y="582.6206896551724"/>
      <point x="38.793103448275865" y="336.8965517241379" type="curve" smooth="yes"/>
      <point x="38.793103448275865" y="97.0"/>
      <point x="119.65517241379311" y="-10.0"/>
    </contour>
    <contour>
      <point x="237.10344827586206" y="46.20689655172414" type="curve" smooth="yes"/>
      <point x="179.20689655172413" y="46.20689655172414"/>
      <point x="149.8965517241379" y="139.20689655172413"/>
      <point x="147.8965517241379" y="331.9655172413793" type="curve"/>
      <point x="165.03448275862067" y="352.6206896551724"/>
      <point x="192.3103448275862" y="380.03448275862064"/>
      <point x="234.10344827586206" y="380.03448275862064" type="curve" smooth="yes"/>
      <point x="283.0344827586207" y="380.03448275862064"/>
      <point x="311.1724137931035" y="332.13793103448273"/>
      <point x="311.1724137931035" y="219.6206896551724" type="curve" smooth="yes"/>
      <point x="311.1724137931035" y="99.9655172413793"/>
      <point x="284.2758620689655" y="46.20689655172414"/>
    </contour>
  </outline>
</glyph>
<glyph name="seven" format="2">
  <advance width="450.6896551724138"/>
  <unicode hex="0037"/>
  <outline>
    <contour>
      <point x="128.79310344827587" y="0.0" type="line"/>
      <point x="201.9655172413793" y="0.0" type="line"/>
      <point x="414.7931034482759" y="677.0689655172414" type="line"/>
      <point x="414.7931034482759" y="714.0" type="line"/>
      <point x="43.51724137931035" y="714.0" type="line"/>
      <point x="38.51724137931035" y="521.7241379310344" type="line"/>
      <point x="87.34482758620689" y="521.7241379310344" type="line"/>
      <point x="92.58620689655172" y="569.3448275862069" type="line" smooth="yes"/>
      <point x="95.58620689655172" y="606.1034482758621"/>
      <point x="108.20689655172413" y="622.7241379310344"/>
      <point x="137.82758620689654" y="622.7241379310344" type="curve" smooth="yes"/>
      <point x="343.1034482758621" y="622.7241379310344" type="line"/>
    </contour>
  </outline>
</glyph>
<glyph name="eight" format="2">
  <advance width="450.6896551724138"/>
  <unicode hex="0038"/>
  <outline>
    <contour>
      <point x="221.72413793103448" y="-10.0" type="curve" smooth="yes"/>
      <point x="348.4137931034483" y="-10.0"/>
      <point x="423.89655172413796" y="63.10344827586207"/>
      <point x="423.89655172413796" y="180.48275862068965" type="curve" smooth="yes"/>
      <point x="423.89655172413796" y="283.6206896551724"/>
      <point x="379.1034482758621" y="335.0"/>
      <point x="295.2758620689655" y="382.7241379310345" type="curve"/>
      <point x="361.13793103448273" y="418.7241379310345"/>
      <point x="402.1379310344828" y="467.86206896551727"/>
      <point x="402.1379310344828" y="558.6206896551723" type="curve" smooth="yes"/>
      <point x="402.1379310344828" y="653.7586206896551"/>
      <point x="342.2758620689655" y="724.0"/>
      <point x="229.58620689655172" y="724.0" type="curve" smooth="yes"/>
      <point x="100.41379310344827" y="724.0"/>
      <point x="45.793103448275865" y="644.7586206896551"/>
      <point x="45.793103448275865" y="546.1379310344827" type="curve" smooth="yes"/>
      <point x="45.793103448275865" y="456.51724137931035"/>
      <point x="88.17241379310344" y="406.1379310344828"/>
      <point x="150.0344827586207" y="365.13793103448273" type="curve"/>
      <point x="82.17241379310344" y="330.3793103448276"/>
      <point x="27.551724137931036" y="276.2413793103448"/>
      <point x="27.551724137931036" y="173.6206896551724" type="curve" smooth="yes"/>
      <point x="27.551724137931036" y="71.86206896551724"/>
      <point x="88.79310344827586" y="-10.0"/>
    </contour>
    <contour>
      <point x="224.3448275862069" y="43.96551724137931" type="curve" smooth="yes"/>
      <point x="166.41379310344826" y="43.96551724137931"/>
      <point x="129.41379310344826" y="90.86206896551724"/>
      <point x="129.41379310344826" y="178.48275862068965" type="curve" smooth="yes"/>
      <point x="129.41379310344826" y="249.75862068965517"/>
      <point x="152.68965517241378" y="302.03448275862064"/>
      <point x="193.24137931034483" y="335.7931034482759" type="curve"/>
      <point x="276.68965517241384" y="283.13793103448273"/>
      <point x="315.3103448275862" y="235.13793103448276"/>
      <point x="315.3103448275862" y="166.3793103448276" type="curve" smooth="yes"/>
      <point x="315.3103448275862" y="88.10344827586206"/>
      <point x="278.2758620689655" y="43.96551724137931"/>
    </contour>
    <contour>
      <point x="247.58620689655172" y="409.0689655172414" type="curve"/>
      <point x="188.03448275862067" y="445.72413793103453"/>
      <point x="152.13793103448276" y="484.7241379310345"/>
      <point x="152.13793103448276" y="560.6206896551723" type="curve" smooth="yes"/>
      <point x="152.13793103448276" y="627.1379310344828"/>
      <point x="178.41379310344826" y="670.0344827586206"/>
      <point x="226.9655172413793" y="670.0344827586206" type="curve" smooth="yes"/>
      <point x="279.8965517241379" y="670.0344827586206"/>
      <point x="304.65517241379314" y="617.3793103448276"/>
      <point x="304.65517241379314" y="556.0" type="curve" smooth="yes"/>
      <point x="304.65517241379314" y="485.62068965517244"/>
      <point x="286.6551724137931" y="441.1034482758621"/>
    </contour>
  </outline>
</glyph>
<glyph name="nine" format="2">
  <advance width="450.6896551724138"/>
  <unicode hex="0039"/>
  <outline>
    <contour>
      <point x="183.10344827586206" y="-10.379310344827585" type="curve"/>
      <point x="346.7931034482759" y="-10.379310344827585"/>
      <point x="412.89655172413796" y="154.86206896551724"/>
      <point x="412.89655172413796" y="388.0" type="curve" smooth="yes"/>
      <point x="412.89655172413796" y="628.4827586206897"/>
      <point x="326.1724137931035" y="724.0"/>
      <point x="211.34482758620686" y="724.0" type="curve" smooth="yes"/>
      <point x="96.75862068965517" y="724.0"/>
      <point x="30.793103448275865" y="625.2413793103449"/>
      <point x="30.793103448275865" y="484.6206896551724" type="curve" smooth="yes"/>
      <point x="30.793103448275865" y="351.37931034482756"/>
      <point x="96.41379310344827" y="279.7586206896552"/>
      <point x="188.6551724137931" y="279.7586206896552" type="curve" smooth="yes"/>
      <point x="244.27586206896552" y="279.7586206896552"/>
      <point x="282.31034482758616" y="310.7931034482759"/>
      <point x="303.7931034482759" y="342.6551724137931" type="curve"/>
      <point x="298.7931034482759" y="145.3448275862069"/>
      <point x="263.0344827586207" y="47.96551724137931"/>
      <point x="190.10344827586206" y="47.96551724137931" type="curve" smooth="yes"/>
      <point x="132.48275862068965" y="47.96551724137931"/>
      <point x="109.34482758620689" y="90.55172413793103"/>
      <point x="94.10344827586206" y="140.24137931034483" type="curve"/>
      <point x="65.41379310344827" y="133.24137931034483"/>
      <point x="53.55172413793103" y="109.27586206896551"/>
      <point x="53.55172413793103" y="82.41379310344827" type="curve" smooth="yes"/>
      <point x="53.55172413793103" y="34.96551724137931"/>
      <point x="89.27586206896552" y="-10.379310344827585"/>
    </contour>
    <contour>
      <point x="219.3448275862069" y="337.44827586206895" type="curve" smooth="yes"/>
      <point x="165.41379310344826" y="339.2068965517241"/>
      <point x="139.89655172413794" y="390.82758620689657"/>
      <point x="139.89655172413794" y="488.0" type="curve" smooth="yes"/>
      <point x="139.89655172413794" y="603.8965517241379"/>
      <point x="166.41379310344826" y="667.1724137931035"/>
      <point x="217.20689655172416" y="667.1724137931035" type="curve" smooth="yes"/>
      <point x="271.7586206896552" y="667.1724137931035"/>
      <point x="302.7931034482759" y="591.7586206896551"/>
      <point x="305.17241379310343" y="399.6206896551724" type="curve"/>
      <point x="287.93103448275866" y="370.7586206896552"/>
      <point x="263.41379310344826" y="339.2068965517241"/>
    </contour>
  </outline>
</glyph>
<glyph name="colon" format="2">
  <advance width="229.58620689655172"/>
  <unicode hex="003A"/>
  <outline>
    <contour>
      <point x="114.79310344827587" y="398.44827586206895" type="curve" smooth="yes"/>
      <point x="147.3793103448276" y="398.44827586206895"/>
      <point x="176.3448275862069" y="414.9310344827586"/>
      <point x="176.3448275862069" y="466.8965517241379" type="curve" smooth="yes"/>
      <point x="176.3448275862069" y="519.4827586206898"/>
      <point x="147.3793103448276" y="535.9655172413793"/>
      <point x="114.79310344827587" y="535.9655172413793" type="curve" smooth="yes"/>
      <point x="80.20689655172413" y="535.9655172413793"/>
      <point x="53.24137931034482" y="519.4827586206898"/>
      <point x="53.24137931034482" y="466.8965517241379" type="curve" smooth="yes"/>
      <point x="53.24137931034482" y="414.9310344827586"/>
      <point x="80.20689655172413" y="398.44827586206895"/>
    </contour>
    <contour>
      <point x="114.79310344827587" y="-7.620689655172414" type="curve" smooth="yes"/>
      <point x="147.3793103448276" y="-7.620689655172414"/>
      <point x="176.3448275862069" y="9.241379310344827"/>
      <point x="176.3448275862069" y="61.82758620689655" type="curve" smooth="yes"/>
      <point x="176.3448275862069" y="114.41379310344827"/>
      <point x="147.3793103448276" y="131.27586206896552"/>
      <point x="114.79310344827587" y="131.27586206896552" type="curve" smooth="yes"/>
      <point x="80.20689655172413" y="131.27586206896552"/>
      <point x="53.24137931034482" y="114.41379310344827"/>
      <point x="53.24137931034482" y="61.82758620689655" type="curve" smooth="yes"/>
      <point x="53.24137931034482" y="9.241379310344827"/>
      <point x="80.20689655172413" y="-7.620689655172414"/>
    </contour>
  </outline>
</glyph>
<glyph name="semicolon" format="2">
  <advance width="231.6206896551724"/>
  <unicode hex="003B"/>
  <outline>
    <contour>
      <point x="37.58620689655173" y="-154.0" type="line"/>
      <point x="137.27586206896552" y="-121.37931034482759"/>
      <point x="174.3793103448276" y="-49.51724137931035"/>
      <point x="174.3793103448276" y="30.344827586206893" type="curve" smooth="yes"/>
      <point x="174.3793103448276" y="93.3103448275862"/>
      <point x="150.3793103448276" y="131.27586206896552"/>
      <point x="106.55172413793105" y="131.27586206896552" type="curve" smooth="yes"/>
      <point x="76.20689655172413" y="131.27586206896552"/>
      <point x="51.48275862068965" y="109.41379310344827"/>
      <point x="51.48275862068965" y="72.06896551724138" type="curve" smooth="yes"/>
      <point x="51.48275862068965" y="6.8965517241379315"/>
      <point x="106.58620689655172" y="11.0"/>
      <point x="106.58620689655172" y="-25.379310344827584" type="curve"/>
      <point x="106.58620689655172" y="-62.62068965517241"/>
      <point x="83.9655172413793" y="-90.79310344827587"/>
      <point x="37.58620689655173" y="-110.41379310344828" type="curve"/>
    </contour>
    <contour>
      <point x="112.93103448275863" y="398.44827586206895" type="curve" smooth="yes"/>
      <point x="146.51724137931035" y="398.44827586206895"/>
      <point x="174.48275862068962" y="414.9310344827586"/>
      <point x="174.48275862068962" y="466.8965517241379" type="curve" smooth="yes"/>
      <point x="174.48275862068962" y="519.4827586206898"/>
      <point x="146.51724137931035" y="535.9655172413793"/>
      <point x="112.93103448275863" y="535.9655172413793" type="curve" smooth="yes"/>
      <point x="78.34482758620689" y="535.9655172413793"/>
      <point x="51.37931034482759" y="519.4827586206898"/>
      <point x="51.37931034482759" y="466.8965517241379" type="curve" smooth="yes"/>
      <point x="51.37931034482759" y="414.9310344827586"/>
      <point x="78.34482758620689" y="398.44827586206895"/>
    </contour>
  </outline>
</glyph>
<glyph name="greater" format="2">
  <advance width="425.0"/>
  <unicode hex="003E"/>
  <outline>
    <contour>
      <point x="39.89655172413793" y="107.89655172413794" type="line"/>
      <point x="385.1034482758621" y="338.7586206896552" type="line"/>
      <point x="385.1034482758621" y="376.2413793103448" type="line"/>
      <point x="39.89655172413793" y="608.1034482758621" type="line"/>
      <point x="39.89655172413793" y="536.2758620689655" type="line"/>
      <point x="300.65517241379314" y="357.0" type="line"/>
      <point x="39.89655172413793" y="180.10344827586206" type="line"/>
    </contour>
  </outline>
</glyph>
<glyph name="question" format="2">
  <advance width="436.2068965517241"/>
  <unicode hex="003F"/>
  <outline>
    <contour>
      <point x="172.0689655172414" y="217.0689655172414" type="line"/>
      <point x="222.51724137931038" y="217.0689655172414" type="line"/>
      <point x="236.86206896551724" y="323.0" type="line"/>
      <point x="343.0689655172414" y="374.86206896551727"/>
      <point x="392.9310344827586" y="435.37931034482756"/>
      <point x="392.9310344827586" y="544.5172413793103" type="curve" smooth="yes"/>
      <point x="392.9310344827586" y="658.7586206896551"/>
      <point x="319.1034482758621" y="724.0"/>
      <point x="202.55172413793105" y="724.0" type="curve" smooth="yes"/>
      <point x="88.75862068965516" y="724.0"/>
      <point x="32.13793103448276" y="670.2758620689656"/>
      <point x="32.13793103448276" y="608.8965517241379" type="curve" smooth="yes"/>
      <point x="32.13793103448276" y="559.6896551724137"/>
      <point x="68.96551724137932" y="543.0689655172414"/>
      <point x="130.1034482758621" y="543.0689655172414" type="curve"/>
      <point x="130.1034482758621" y="621.4137931034483"/>
      <point x="150.48275862068968" y="670.4137931034484"/>
      <point x="202.17241379310346" y="670.4137931034484" type="curve" smooth="yes"/>
      <point x="249.48275862068965" y="670.4137931034484"/>
      <point x="274.3793103448276" y="618.1379310344827"/>
      <point x="274.3793103448276" y="549.2413793103449" type="curve" smooth="yes"/>
      <point x="274.3793103448276" y="464.7241379310345"/>
      <point x="250.3448275862069" y="394.6206896551724"/>
      <point x="158.10344827586206" y="347.2413793103448" type="curve"/>
    </contour>
    <contour>
      <point x="196.17241379310346" y="-7.620689655172414" type="curve" smooth="yes"/>
      <point x="230.1379310344828" y="-7.620689655172414"/>
      <point x="259.1034482758621" y="9.241379310344827"/>
      <point x="259.1034482758621" y="61.827586206896555" type="curve" smooth="yes"/>
      <point x="259.1034482758621" y="114.41379310344828"/>
      <point x="230.1379310344828" y="131.27586206896552"/>
      <point x="196.17241379310346" y="131.27586206896552" type="curve" smooth="yes"/>
      <point x="161.96551724137933" y="131.27586206896552"/>
      <point x="135.6206896551724" y="114.41379310344828"/>
      <point x="135.6206896551724" y="61.827586206896555" type="curve" smooth="yes"/>
      <point x="135.6206896551724" y="9.241379310344827"/>
      <point x="161.96551724137933" y="-7.620689655172414"/>
    </contour>
  </outline>
</glyph>
<glyph name="bracketleft" format="2">
  <advance width="325.7931034482759"/>
  <unicode hex="005B"/>
  <outline>
    <contour>
      <point x="80.24137931034483" y="-128.0" type="line"/>
      <point x="296.1724137931035" y="-128.0" type="line"/>
      <point x="296.1724137931035" y="-81.41379310344827" type="line"/>
      <point x="261.55172413793105" y="-81.41379310344827" type="line" smooth="yes"/>
      <point x="225.93103448275863" y="-81.41379310344827"/>
      <point x="195.31034482758622" y="-72.41379310344827"/>
      <point x="195.31034482758622" y="-9.413793103448276" type="curve" smooth="yes"/>
      <point x="195.31034482758622" y="641.4137931034483" type="line" smooth="yes"/>
      <point x="195.31034482758622" y="704.4137931034483"/>
      <point x="225.93103448275863" y="713.4137931034483"/>
      <point x="261.55172413793105" y="713.4137931034483" type="curve" smooth="yes"/>
      <point x="296.1724137931035" y="713.4137931034483" type="line"/>
      <point x="296.1724137931035" y="760.0" type="line"/>
      <point x="80.24137931034483" y="760.0" type="line"/>
    </contour>
  </outline>
</glyph>
<glyph name="backslash" format="2">
  <advance width="232.3448275862069"/>
  <unicode hex="005C"/>
  <outline>
    <contour>
      <point x="176.51724137931035" y="-121.0" type="line"/>
      <point x="232.3448275862069" y="-121.0" type="line"/>
      <point x="55.82758620689655" y="760.0" type="line"/>
      <point x="0.0" y="760.0" type="line"/>
    </contour>
  </outline>
</glyph>
<glyph name="bracketright" format="2">
  <advance width="325.7931034482759"/>
  <unicode hex="005D"/>
  <outline>
    <contour>
      <point x="30.62068965517242" y="-128.0" type="line"/>
      <point x="245.55172413793102" y="-128.0" type="line"/>
      <point x="245.55172413793102" y="760.0" type="line"/>
      <point x="30.62068965517242" y="760.0" type="line"/>
      <point x="30.62068965517242" y="713.4137931034483" type="line"/>
      <point x="64.24137931034483" y="713.4137931034483" type="line" smooth="yes"/>
      <point x="100.86206896551724" y="713.4137931034483"/>
      <point x="130.48275862068965" y="704.4137931034483"/>
      <point x="130.48275862068965" y="641.4137931034483" type="curve" smooth="yes"/>
      <point x="130.48275862068965" y="-9.413793103448276" type="line" smooth="yes"/>
      <point x="130.48275862068965" y="-72.41379310344827"/>
      <point x="100.86206896551724" y="-81.41379310344827"/>
      <point x="64.24137931034483" y="-81.41379310344827" type="curve" smooth="yes"/>
      <point x="30.62068965517242" y="-81.41379310344827" type="line"/>
    </contour>
  </outline>
</glyph>
<glyph name="asciicircum" format="2">
  <advance width="424.0"/>
  <unicode hex="005E"/>
  <outline>
    <contour>
      <point x="24.413793103448278" y="265.13793103448273" type="line"/>
      <point x="85.62068965517241" y="265.13793103448273" type="line"/>
      <point x="211.0" y="615.3103448275862" type="line"/>
      <point x="337.37931034482756" y="265.13793103448273" type="line"/>
      <point x="399.58620689655174" y="265.13793103448273" type="line"/>
      <point x="227.86206896551727" y="714.0" type="line"/>
      <point x="195.13793103448273" y="714.0" type="line"/>
    </contour>
  </outline>
</glyph>
<glyph name="underscore" format="2">
  <advance width="369.44827586206895"/>
  <unicode hex="005F"/>
  <outline>
    <contour>
      <point x="-4.620689655172414" y="-142.0" type="line"/>
      <point x="373.44827586206895" y="-142.0" type="line"/>
      <point x="373.44827586206895" y="-83.0" type="line"/>
      <point x="-4.620689655172414" y="-83.0" type="line"/>
    </contour>
  </outline>
</glyph>
<glyph name="braceleft" format="2">
  <advance width="353.41379310344826"/>
  <unicode hex="007B"/>
  <outline>
    <contour>
      <point x="254.82758620689657" y="-126.75862068965517" type="curve" smooth="yes"/>
      <point x="327.10344827586204" y="-126.75862068965517" type="line"/>
      <point x="327.10344827586204" y="-79.79310344827586" type="line"/>
      <point x="297.13793103448273" y="-79.79310344827586" type="line" smooth="yes"/>
      <point x="251.13793103448273" y="-79.79310344827586"/>
      <point x="237.86206896551727" y="-43.41379310344828"/>
      <point x="237.86206896551727" y="22.103448275862068" type="curve" smooth="yes"/>
      <point x="237.86206896551727" y="193.86206896551724" type="line" smooth="yes"/>
      <point x="237.86206896551727" y="258.37931034482756"/>
      <point x="209.86206896551727" y="301.27586206896547"/>
      <point x="149.6206896551724" y="316.37931034482756" type="curve"/>
      <point x="149.6206896551724" y="320.4827586206897" type="line"/>
      <point x="211.1034482758621" y="334.58620689655174"/>
      <point x="237.86206896551727" y="376.86206896551727"/>
      <point x="237.86206896551727" y="440.37931034482756" type="curve" smooth="yes"/>
      <point x="237.86206896551727" y="611.3793103448276" type="line" smooth="yes"/>
      <point x="237.86206896551727" y="678.2758620689655"/>
      <point x="251.13793103448273" y="713.0344827586207"/>
      <point x="297.13793103448273" y="713.0344827586207" type="curve" smooth="yes"/>
      <point x="327.10344827586204" y="713.0344827586207" type="line"/>
      <point x="327.10344827586204" y="760.0" type="line"/>
      <point x="254.82758620689657" y="760.0" type="line" smooth="yes"/>
      <point x="166.8965517241379" y="760.0"/>
      <point x="120.55172413793103" y="707.3793103448276"/>
      <point x="120.55172413793103" y="615.7586206896551" type="curve" smooth="yes"/>
      <point x="120.55172413793103" y="442.37931034482756" type="line" smooth="yes"/>
      <point x="120.55172413793103" y="364.4827586206897"/>
      <point x="79.93103448275863" y="344.58620689655174"/>
      <point x="26.93103448275862" y="342.58620689655174" type="curve"/>
      <point x="26.93103448275862" y="293.27586206896547" type="line"/>
      <point x="79.93103448275863" y="290.27586206896547"/>
      <point x="120.55172413793103" y="271.37931034482756"/>
      <point x="120.55172413793103" y="190.86206896551724" type="curve" smooth="yes"/>
      <point x="120.55172413793103" y="19.103448275862068" type="line" smooth="yes"/>
      <point x="120.55172413793103" y="-71.13793103448276"/>
      <point x="166.8965517241379" y="-126.75862068965517"/>
    </contour>
  </outline>
</glyph>
<glyph name="bar" format="2">
  <advance width="450.68965517241384"/>
  <unicode hex="007C"/>
  <outline>
    <contour>
      <point x="196.24137931034483" y="-240.0" type="line"/>
      <point x="253.44827586206895" y="-240.0" type="line"/>
      <point x="253.44827586206895" y="760.0" type="line"/>
      <point x="196.24137931034483" y="760.0" type="line"/>
    </contour>
  </outline>
</glyph>
<glyph name="braceright" format="2">
  <advance width="353.41379310344826"/>
  <unicode hex="007D"/>
  <outline>
    <contour>
      <point x="26.931034482758626" y="-126.75862068965517" type="line"/>
      <point x="99.58620689655173" y="-126.75862068965517" type="line" smooth="yes"/>
      <point x="187.51724137931035" y="-126.75862068965517"/>
      <point x="232.86206896551727" y="-71.13793103448276"/>
      <point x="232.86206896551727" y="19.103448275862068" type="curve" smooth="yes"/>
      <point x="232.86206896551727" y="190.86206896551724" type="line" smooth="yes"/>
      <point x="232.86206896551727" y="271.37931034482756"/>
      <point x="274.86206896551727" y="290.27586206896547"/>
      <point x="327.10344827586204" y="293.27586206896547" type="curve"/>
      <point x="327.10344827586204" y="342.58620689655174" type="line"/>
      <point x="274.86206896551727" y="344.58620689655174"/>
      <point x="232.86206896551727" y="364.4827586206897"/>
      <point x="232.86206896551727" y="442.37931034482756" type="curve" smooth="yes"/>
      <point x="232.86206896551727" y="615.7586206896551" type="line" smooth="yes"/>
      <point x="232.86206896551727" y="707.3793103448276"/>
      <point x="187.51724137931035" y="760.0"/>
      <point x="99.58620689655173" y="760.0" type="curve" smooth="yes"/>
      <point x="26.931034482758626" y="760.0" type="line"/>
      <point x="26.931034482758626" y="713.0344827586207" type="line"/>
      <point x="57.27586206896553" y="713.0344827586207" type="line" smooth="yes"/>
      <point x="103.6551724137931" y="713.0344827586207"/>
      <point x="115.55172413793103" y="678.2758620689655"/>
      <point x="115.55172413793103" y="611.3793103448276" type="curve" smooth="yes"/>
      <point x="115.55172413793103" y="440.37931034482756" type="line" smooth="yes"/>
      <point x="115.55172413793103" y="376.86206896551727"/>
      <point x="143.31034482758622" y="334.58620689655174"/>
      <point x="205.79310344827584" y="320.4827586206897" type="curve"/>
      <point x="205.79310344827584" y="316.37931034482756" type="line"/>
      <point x="142.55172413793105" y="301.27586206896547"/>
      <point x="115.55172413793103" y="258.37931034482756"/>
      <point x="115.55172413793103" y="193.86206896551724" type="curve" smooth="yes"/>
      <point x="115.55172413793103" y="22.103448275862068" type="line" smooth="yes"/>
      <point x="115.55172413793103" y="-43.41379310344828"/>
      <point x="103.6551724137931" y="-79.79310344827586"/>
      <point x="57.2758620689655" y="-79.79310344827586" type="curve" smooth="yes"/>
      <point x="26.931034482758626" y="-79.79310344827586" type="line"/>
    </contour>
  </outline>
</glyph>
<glyph name="asciitilde" format="2">
  <advance width="425.0"/>
  <unicode hex="007E"/>
  <outline>
    <contour>
      <point x="22.551724137931032" y="266.27586206896547" type="curve"/>
      <point x="83.0" y="266.27586206896547" type="line"/>
      <point x="87.51724137931035" y="348.51724137931035"/>
      <point x="101.75862068965517" y="384.03448275862064"/>
      <point x="132.13793103448276" y="384.03448275862064" type="curve" smooth="yes"/>
      <point x="151.89655172413794" y="384.03448275862064"/>
      <point x="165.6551724137931" y="368.13793103448273"/>
      <point x="197.13793103448273" y="331.27586206896547" type="curve" smooth="yes"/>
      <point x="244.7586206896552" y="274.8965517241379"/>
      <point x="268.3793103448276" y="266.27586206896547"/>
      <point x="299.0" y="266.27586206896547" type="curve" smooth="yes"/>
      <point x="376.82758620689657" y="266.27586206896547"/>
      <point x="400.68965517241384" y="356.4137931034483"/>
      <point x="404.2068965517242" y="447.1034482758621" type="curve"/>
      <point x="343.37931034482756" y="447.1034482758621" type="line"/>
      <point x="339.8620689655172" y="364.2413793103449"/>
      <point x="326.62068965517244" y="329.3448275862069"/>
      <point x="296.62068965517244" y="329.3448275862069" type="curve" smooth="yes"/>
      <point x="275.2413793103448" y="329.3448275862069"/>
      <point x="263.10344827586204" y="347.48275862068965"/>
      <point x="233.48275862068968" y="380.48275862068965" type="curve" smooth="yes"/>
      <point x="192.13793103448276" y="424.82758620689657"/>
      <point x="166.51724137931035" y="447.1034482758621"/>
      <point x="129.13793103448276" y="447.1034482758621" type="curve" smooth="yes"/>
      <point x="49.793103448275865" y="447.1034482758621"/>
      <point x="26.689655172413794" y="358.34482758620686"/>
    </contour>
  </outline>
</glyph>
<glyph name="multiply" format="2">
  <advance width="425.0"/>
  <unicode hex="00D7"/>
  <outline>
    <contour>
      <point x="88.24137931034483" y="155.3448275862069" type="line"/>
      <point x="213.75862068965517" y="310.2758620689655" type="line"/>
      <point x="338.0344827586207" y="156.58620689655172" type="line"/>
      <point x="384.7586206896552" y="195.9310344827586" type="line"/>
      <point x="253.48275862068965" y="358.62068965517244" type="line"/>
      <point x="384.7586206896552" y="520.9310344827586" type="line"/>
      <point x="337.41379310344826" y="559.655172413793" type="line"/>
      <point x="213.75862068965517" y="407.34482758620686" type="line"/>
      <point x="89.24137931034483" y="561.2758620689655" type="line"/>
      <point x="41.51724137931034" y="522.551724137931" type="line"/>
      <point x="174.41379310344828" y="358.62068965517244" type="line"/>
      <point x="41.51724137931034" y="194.3103448275862" type="line"/>
    </contour>
  </outline>
</glyph>
<glyph name="divide" format="2">
  <advance width="425.0"/>
  <unicode hex="00F7"/>
  <outline>
    <contour>
      <point x="39.89655172413793" y="325.8965517241379" type="line"/>
      <point x="385.1034482758621" y="325.8965517241379" type="line"/>
      <point x="385.1034482758621" y="389.1034482758621" type="line"/>
      <point x="39.89655172413793" y="389.1034482758621" type="line"/>
    </contour>
    <contour>
      <point x="213.0" y="110.89655172413794" type="curve" smooth="yes"/>
      <point x="238.24137931034483" y="110.89655172413794"/>
      <point x="259.1034482758621" y="126.13793103448276"/>
      <point x="259.1034482758621" y="168.0" type="curve" smooth="yes"/>
      <point x="259.1034482758621" y="210.86206896551724"/>
      <point x="238.24137931034483" y="225.10344827586206"/>
      <point x="213.0" y="225.10344827586206" type="curve" smooth="yes"/>
      <point x="186.13793103448276" y="225.10344827586206"/>
      <point x="165.89655172413794" y="210.86206896551724"/>
      <point x="165.89655172413794" y="168.0" type="curve" smooth="yes"/>
      <point x="165.89655172413794" y="126.13793103448276"/>
      <point x="186.13793103448276" y="110.89655172413794"/>
    </contour>
    <contour>
      <point x="213.0" y="489.8965517241379" type="curve" smooth="yes"/>
      <point x="238.24137931034483" y="489.8965517241379"/>
      <point x="259.1034482758621" y="505.13793103448273"/>
      <point x="259.1034482758621" y="547.0" type="curve" smooth="yes"/>
      <point x="259.1034482758621" y="589.8620689655172"/>
      <point x="238.24137931034483" y="604.1034482758621"/>
      <point x="213.0" y="604.1034482758621" type="curve" smooth="yes"/>
      <point x="186.13793103448276" y="604.1034482758621"/>
      <point x="165.89655172413794" y="589.8620689655172"/>
      <point x="165.89655172413794" y="547.0" type="curve" smooth="yes"/>
      <point x="165.89655172413794" y="505.13793103448273"/>
      <point x="186.13793103448276" y="489.8965517241379"/>
    </contour>
  </outline>
</glyph>
<glyph name="anudatta-deva" format="2">
  <unicode hex="0952"/>
  <anchor x="-299.0" y="404.82758620689657" name="_vedic"/>
  <outline>
    <contour>
      <point x="-478.2758620689655" y="-150.20689655172413" type="line"/>
      <point x="-118.72413793103448" y="-150.20689655172413" type="line"/>
      <point x="-118.72413793103448" y="-85.79310344827586" type="line"/>
      <point x="-478.2758620689655" y="-85.79310344827586" type="line"/>
    </contour>
  </outline>
</glyph>
<glyph name="danda-deva" format="2">
  <advance width="343.3103448275862"/>
  <unicode hex="0964"/>
  <outline>
    <contour>
      <point x="284.65517241379314" y="-30.448275862068968" type="line"/>
      <point x="290.7586206896552" y="-28.20689655172414" type="line"/>
      <point x="290.7586206896552" y="586.8620689655172" type="line"/>
      <point x="217.41379310344828" y="623.8620689655172" type="line"/>
      <point x="214.41379310344828" y="623.8620689655172" type="line"/>
      <point x="214.41379310344828" y="3.1379310344827585" type="line"/>
    </contour>
  </outline>
</glyph>
<glyph name="dbldanda-deva" format="2">
  <advance width="486.9655172413793"/>
  <unicode hex="0965"/>
  <outline>
    <contour>
      <point x="428.9310344827586" y="-30.448275862068968" type="line"/>
      <point x="434.41379310344826" y="-28.20689655172414" type="line"/>
      <point x="434.41379310344826" y="586.8620689655172" type="line"/>
      <point x="361.6896551724138" y="623.8620689655172" type="line"/>
      <point x="358.6896551724138" y="623.8620689655172" type="line"/>
      <point x="358.6896551724138" y="3.1379310344827585" type="line"/>
    </contour>
    <contour>
      <point x="284.65517241379314" y="-30.448275862068968" type="line"/>
      <point x="290.7586206896552" y="-28.20689655172414" type="line"/>
      <point x="290.7586206896552" y="586.8620689655172" type="line"/>
      <point x="217.41379310344828" y="623.8620689655172" type="line"/>
      <point x="214.41379310344828" y="623.8620689655172" type="line"/>
      <point x="214.41379310344828" y="3.1379310344827585" type="line"/>
    </contour>
  </outline>
</glyph>
<glyph name="anji-beng" format="2">
  <advance width="453.1724137931034"/>
  <unicode hex="0980"/>
  <anchor x="241.7241379310345" y="578.0689655172414" name="top"/>
  <outline>
    <contour>
      <point x="375.48275862068965" y="-20.482758620689655" type="curve" smooth="yes"/>
      <point x="419.9310344827586" y="-20.482758620689655"/>
      <point x="445.13793103448273" y="9.620689655172415"/>
      <point x="445.13793103448273" y="53.06896551724138" type="curve" smooth="yes"/>
      <point x="445.13793103448273" y="94.89655172413794"/>
      <point x="417.17241379310343" y="124.0"/>
      <point x="381.82758620689657" y="124.0" type="curve" smooth="yes"/>
      <point x="345.3793103448276" y="124.0"/>
      <point x="331.51724137931035" y="95.93103448275862"/>
      <point x="330.13793103448273" y="67.3103448275862" type="curve"/>
      <point x="360.3103448275862" y="64.20689655172413" type="line"/>
      <point x="360.3103448275862" y="477.31034482758616" type="line" smooth="yes"/>
      <point x="360.3103448275862" y="561.8620689655173"/>
      <point x="307.0344827586207" y="627.5862068965517"/>
      <point x="218.24137931034483" y="627.5862068965517" type="curve" smooth="yes"/>
      <point x="120.3103448275862" y="627.5862068965517"/>
      <point x="37.89655172413793" y="538.8620689655173"/>
      <point x="37.89655172413793" y="414.448275862069" type="curve" smooth="yes"/>
      <point x="37.89655172413793" y="290.3793103448276"/>
      <point x="105.86206896551722" y="227.06896551724137"/>
      <point x="181.27586206896552" y="227.06896551724137" type="curve" smooth="yes"/>
      <point x="232.48275862068962" y="227.06896551724137"/>
      <point x="263.82758620689657" y="262.0344827586207"/>
      <point x="263.82758620689657" y="313.8620689655172" type="curve" smooth="yes"/>
      <point x="263.82758620689657" y="364.58620689655174"/>
      <point x="235.58620689655172" y="394.55172413793105"/>
      <point x="198.3793103448276" y="394.55172413793105" type="curve" smooth="yes"/>
      <point x="160.41379310344828" y="394.55172413793105"/>
      <point x="134.93103448275863" y="366.44827586206895"/>
      <point x="134.93103448275863" y="322.7241379310345" type="curve" smooth="yes"/>
      <point x="134.93103448275863" y="307.37931034482756"/>
      <point x="137.93103448275863" y="291.1379310344828"/>
      <point x="141.55172413793105" y="283.2758620689655" type="curve"/>
      <point x="179.3793103448276" y="304.1379310344828" type="line"/>
      <point x="170.13793103448276" y="300.7586206896552"/>
      <point x="160.27586206896552" y="299.7586206896552"/>
      <point x="151.0344827586207" y="299.7586206896552" type="curve" smooth="yes"/>
      <point x="125.0344827586207" y="299.7586206896552"/>
      <point x="109.27586206896554" y="330.8965517241379"/>
      <point x="109.27586206896554" y="382.2413793103448" type="curve" smooth="yes"/>
      <point x="109.27586206896554" y="470.3103448275862"/>
      <point x="188.20689655172416" y="546.7241379310344"/>
      <point x="241.58620689655174" y="546.7241379310344" type="curve" smooth="yes"/>
      <point x="274.2068965517242" y="546.7241379310344"/>
      <point x="287.58620689655174" y="525.2068965517242"/>
      <point x="287.58620689655174" y="486.82758620689657" type="curve" smooth="yes"/>
      <point x="287.58620689655174" y="92.03448275862068" type="line" smooth="yes"/>
      <point x="287.58620689655174" y="26.96551724137931"/>
      <point x="320.55172413793105" y="-20.482758620689655"/>
    </contour>
  </outline>
</glyph>
<glyph name="anusvara-beng" format="2">
  <advance width="301.448275862069"/>
  <unicode hex="0982"/>
  <anchor x="-185.6206896551724" y="0.0" name="vedic"/>
  <outline>
    <contour>
      <point x="147.89655172413794" y="346.37931034482756" type="curve" smooth="yes"/>
      <point x="215.3448275862069" y="346.37931034482756"/>
      <point x="263.9310344827586" y="405.1034482758621"/>
      <point x="263.9310344827586" y="487.0689655172414" type="curve" smooth="yes"/>
      <point x="263.9310344827586" y="562.0344827586207"/>
      <point x="222.48275862068968" y="622.3793103448276"/>
      <point x="154.89655172413794" y="622.3793103448276" type="curve" smooth="yes"/>
      <point x="88.20689655172414" y="622.3793103448276"/>
      <point x="40.0" y="563.0344827586207"/>
      <point x="40.0" y="482.0689655172414" type="curve" smooth="yes"/>
      <point x="40.0" y="407.3448275862069"/>
      <point x="83.44827586206897" y="346.37931034482756"/>
    </contour>
    <contour>
      <point x="130.3103448275862" y="409.6551724137931" type="curve" smooth="yes"/>
      <point x="115.17241379310344" y="409.6551724137931"/>
      <point x="103.41379310344828" y="423.17241379310343"/>
      <point x="103.41379310344828" y="449.82758620689657" type="curve" smooth="yes"/>
      <point x="103.41379310344828" y="496.9655172413793"/>
      <point x="145.10344827586206" y="555.9655172413793"/>
      <point x="178.0" y="555.9655172413793" type="curve" smooth="yes"/>
      <point x="193.75862068965517" y="555.9655172413793"/>
      <point x="202.13793103448276" y="540.0689655172414"/>
      <point x="202.13793103448276" y="522.3103448275862" type="curve" smooth="yes"/>
      <point x="202.13793103448276" y="476.0344827586207"/>
      <point x="162.6896551724138" y="409.6551724137931"/>
    </contour>
    <contour>
      <point x="252.99999999999997" y="-56.0" type="curve"/>
      <point x="293.7931034482759" y="-39.13793103448276" type="line"/>
      <point x="242.72413793103448" y="102.27586206896552"/>
      <point x="173.13793103448276" y="233.27586206896552"/>
      <point x="94.06896551724138" y="305.2068965517242" type="curve"/>
      <point x="40.0" y="200.10344827586206" type="line"/>
      <point x="116.58620689655173" y="144.79310344827587"/>
      <point x="171.44827586206898" y="89.96551724137932"/>
    </contour>
  </outline>
</glyph>
<glyph name="visarga-beng" format="2">
  <advance width="303.9310344827586"/>
  <unicode hex="0983"/>
  <anchor x="-185.6206896551724" y="0.0" name="vedic"/>
  <outline>
    <contour>
      <point x="147.8965517241379" y="346.37931034482756" type="curve" smooth="yes"/>
      <point x="215.34482758620686" y="346.37931034482756"/>
      <point x="263.93103448275866" y="405.1034482758621"/>
      <point x="263.93103448275866" y="487.0689655172414" type="curve" smooth="yes"/>
      <point x="263.93103448275866" y="562.0344827586206"/>
      <point x="222.48275862068962" y="622.3793103448276"/>
      <point x="154.8965517241379" y="622.3793103448276" type="curve" smooth="yes"/>
      <point x="88.20689655172414" y="622.3793103448276"/>
      <point x="40.0" y="563.0344827586206"/>
      <point x="40.0" y="482.0689655172414" type="curve" smooth="yes"/>
      <point x="40.0" y="407.3448275862069"/>
      <point x="83.44827586206897" y="346.37931034482756"/>
    </contour>
    <contour>
      <point x="130.3103448275862" y="409.6551724137931" type="curve" smooth="yes"/>
      <point x="115.17241379310346" y="409.6551724137931"/>
      <point x="103.41379310344827" y="423.17241379310343"/>
      <point x="103.41379310344827" y="449.8275862068965" type="curve" smooth="yes"/>
      <point x="103.41379310344827" y="496.9655172413793"/>
      <point x="145.1034482758621" y="555.9655172413793"/>
      <point x="178.0" y="555.9655172413793" type="curve" smooth="yes"/>
      <point x="193.75862068965517" y="555.9655172413793"/>
      <point x="202.13793103448276" y="540.0689655172413"/>
      <point x="202.13793103448276" y="522.3103448275862" type="curve" smooth="yes"/>
      <point x="202.13793103448276" y="476.0344827586207"/>
      <point x="162.68965517241378" y="409.6551724137931"/>
    </contour>
    <contour>
      <point x="147.8965517241379" y="-7.137931034482758" type="curve" smooth="yes"/>
      <point x="215.3448275862069" y="-7.137931034482758"/>
      <point x="263.9310344827586" y="50.9655172413793"/>
      <point x="263.9310344827586" y="133.55172413793102" type="curve" smooth="yes"/>
      <point x="263.9310344827586" y="208.51724137931035"/>
      <point x="222.48275862068962" y="268.2413793103448"/>
      <point x="154.8965517241379" y="268.2413793103448" type="curve" smooth="yes"/>
      <point x="88.20689655172414" y="268.2413793103448"/>
      <point x="40.0" y="208.89655172413794"/>
      <point x="40.0" y="127.93103448275862" type="curve" smooth="yes"/>
      <point x="40.0" y="53.20689655172414"/>
      <point x="83.44827586206897" y="-7.137931034482758"/>
    </contour>
    <contour>
      <point x="130.3103448275862" y="56.13793103448276" type="curve" smooth="yes"/>
      <point x="115.17241379310346" y="56.13793103448276"/>
      <point x="103.41379310344827" y="69.03448275862068"/>
      <point x="103.41379310344827" y="96.3103448275862" type="curve" smooth="yes"/>
      <point x="103.41379310344827" y="143.44827586206895"/>
      <point x="145.1034482758621" y="202.44827586206895"/>
      <point x="178.0" y="202.44827586206895" type="curve" smooth="yes"/>
      <point x="193.7586206896552" y="202.44827586206895"/>
      <point x="202.1379310344828" y="186.55172413793105"/>
      <point x="202.1379310344828" y="168.79310344827587" type="curve" smooth="yes"/>
      <point x="202.1379310344828" y="122.51724137931035"/>
      <point x="162.68965517241378" y="56.13793103448276"/>
    </contour>
  </outline>
</glyph>
<glyph name="a-beng" format="2">
  <advance width="628.8620689655172"/>
  <unicode hex="0985"/>
  <anchor x="571.9310344827586" y="0.0" name="bottom"/>
  <anchor x="572.5517241379309" y="80.55172413793103" name="bottom.rakaar"/>
  <anchor x="571.9310344827586" y="11.379310344827585" name="bottom.rvocalic"/>
  <anchor x="556.6896551724137" y="10.96551724137931" name="bottom.virama"/>
  <anchor x="571.9310344827586" y="557.5862068965517" name="top"/>
  <anchor x="571.9310344827586" y="557.5862068965517" name="topright"/>
  <anchor x="313.9310344827586" y="0.0" name="vedic"/>
  <outline>
    <contour>
      <point x="562.0689655172414" y="-19.82758620689655" type="line"/>
      <point x="569.9310344827586" y="-18.20689655172414" type="line"/>
      <point x="569.9310344827586" y="557.5862068965517" type="line"/>
      <point x="657.5862068965517" y="557.5862068965517" type="line"/>
      <point x="623.3793103448276" y="622.0" type="line"/>
      <point x="-28.724137931034484" y="622.0" type="line"/>
      <point x="5.103448275862069" y="557.5862068965517" type="line"/>
      <point x="497.2068965517241" y="557.5862068965517" type="line"/>
      <point x="497.2068965517241" y="88.55172413793103" type="line"/>
      <point x="513.3103448275862" y="86.41379310344827" type="line"/>
      <point x="492.0689655172414" y="156.20689655172413"/>
      <point x="453.93103448275866" y="209.6206896551724"/>
      <point x="409.41379310344826" y="245.89655172413794" type="curve"/>
      <point x="378.2068965517241" y="171.75862068965517" type="line"/>
      <point x="433.2068965517242" y="136.86206896551724"/>
      <point x="477.31034482758616" y="86.06896551724138"/>
      <point x="511.4137931034483" y="15.137931034482758" type="curve"/>
    </contour>
    <contour>
      <point x="274.6551724137931" y="70.06896551724138" type="curve" smooth="yes"/>
      <point x="370.7931034482759" y="70.06896551724138"/>
      <point x="442.6551724137931" y="153.41379310344828"/>
      <point x="442.6551724137931" y="286.86206896551727" type="curve" smooth="yes"/>
      <point x="442.6551724137931" y="406.3103448275862"/>
      <point x="382.2068965517241" y="503.7931034482759"/>
      <point x="267.9310344827586" y="503.7931034482759" type="curve" smooth="yes"/>
      <point x="198.75862068965517" y="503.7931034482759"/>
      <point x="152.89655172413794" y="461.96551724137936"/>
      <point x="152.89655172413794" y="390.2413793103448" type="curve" smooth="yes"/>
      <point x="152.89655172413794" y="327.13793103448273"/>
      <point x="190.6206896551724" y="285.3103448275862"/>
      <point x="245.93103448275863" y="285.3103448275862" type="curve" smooth="yes"/>
      <point x="302.1379310344828" y="285.3103448275862"/>
      <point x="330.1034482758621" y="331.17241379310343"/>
      <point x="330.1034482758621" y="391.8965517241379" type="curve" smooth="yes"/>
      <point x="330.1034482758621" y="470.8275862068965"/>
      <point x="280.68965517241384" y="535.9310344827586"/>
      <point x="246.3448275862069" y="568.3103448275862" type="curve"/>
      <point x="110.20689655172413" y="566.9310344827586" type="line"/>
      <point x="223.2758620689655" y="535.9310344827586"/>
      <point x="263.2068965517241" y="473.6551724137931"/>
      <point x="271.44827586206895" y="389.55172413793105" type="curve"/>
      <point x="282.2068965517241" y="397.9310344827586"/>
      <point x="297.55172413793105" y="404.0344827586207"/>
      <point x="316.2758620689655" y="404.0344827586207" type="curve" smooth="yes"/>
      <point x="348.37931034482756" y="404.0344827586207"/>
      <point x="384.2413793103448" y="376.5172413793103"/>
      <point x="384.2413793103448" y="301.9655172413793" type="curve" smooth="yes"/>
      <point x="384.2413793103448" y="221.68965517241378"/>
      <point x="338.0344827586207" y="184.41379310344828"/>
      <point x="273.7931034482758" y="184.41379310344828" type="curve" smooth="yes"/>
      <point x="173.17241379310346" y="184.41379310344828"/>
      <point x="97.86206896551724" y="258.9310344827586"/>
      <point x="56.310344827586206" y="489.44827586206895" type="curve"/>
      <point x="7.758620689655173" y="478.9655172413793" type="line"/>
      <point x="50.79310344827586" y="194.6206896551724"/>
      <point x="138.0344827586207" y="70.06896551724138"/>
    </contour>
  </outline>
</glyph>
<glyph name="aa-beng" format="2">
  <advance width="816.551724137931"/>
  <unicode hex="0986"/>
  <anchor x="570.6896551724137" y="0.0" name="bottom"/>
  <anchor x="570.0689655172413" y="80.55172413793103" name="bottom.rakaar"/>
  <anchor x="570.0689655172413" y="11.379310344827585" name="bottom.rvocalic"/>
  <anchor x="554.8275862068965" y="10.96551724137931" name="bottom.virama"/>
  <anchor x="760.0" y="557.5862068965517" name="top"/>
  <anchor x="760.0" y="535.1724137931035" name="topright"/>
  <anchor x="407.9655172413793" y="0.0" name="vedic"/>
  <outline>
    <contour>
      <point x="562.0689655172414" y="-19.82758620689655" type="line"/>
      <point x="569.9310344827586" y="-18.20689655172414" type="line"/>
      <point x="569.9310344827586" y="557.5862068965517" type="line"/>
      <point x="638.7586206896551" y="557.5862068965517" type="line"/>
      <point x="603.9310344827586" y="622.0" type="line"/>
      <point x="-28.724137931034484" y="622.0" type="line"/>
      <point x="5.103448275862069" y="557.5862068965517" type="line"/>
      <point x="497.2068965517241" y="557.5862068965517" type="line"/>
      <point x="497.2068965517241" y="88.55172413793103" type="line"/>
      <point x="513.3103448275862" y="86.41379310344827" type="line"/>
      <point x="492.0689655172414" y="156.20689655172413"/>
      <point x="453.93103448275866" y="209.6206896551724"/>
      <point x="409.41379310344826" y="245.89655172413794" type="curve"/>
      <point x="378.2068965517241" y="171.75862068965517" type="line"/>
      <point x="433.2068965517242" y="136.86206896551724"/>
      <point x="477.31034482758616" y="86.06896551724138"/>
      <point x="511.4137931034483" y="15.137931034482758" type="curve"/>
    </contour>
    <contour>
      <point x="274.6551724137931" y="70.06896551724138" type="curve" smooth="yes"/>
      <point x="370.7931034482759" y="70.06896551724138"/>
      <point x="442.6551724137931" y="153.41379310344828"/>
      <point x="442.6551724137931" y="286.86206896551727" type="curve" smooth="yes"/>
      <point x="442.6551724137931" y="406.3103448275862"/>
      <point x="382.2068965517241" y="503.7931034482759"/>
      <point x="267.9310344827586" y="503.7931034482759" type="curve" smooth="yes"/>
      <point x="198.75862068965517" y="503.7931034482759"/>
      <point x="152.89655172413794" y="461.96551724137936"/>
      <point x="152.89655172413794" y="390.2413793103448" type="curve" smooth="yes"/>
      <point x="152.89655172413794" y="327.13793103448273"/>
      <point x="190.6206896551724" y="285.3103448275862"/>
      <point x="245.93103448275863" y="285.3103448275862" type="curve" smooth="yes"/>
      <point x="302.1379310344828" y="285.3103448275862"/>
      <point x="330.1034482758621" y="331.17241379310343"/>
      <point x="330.1034482758621" y="391.8965517241379" type="curve" smooth="yes"/>
      <point x="330.1034482758621" y="470.8275862068965"/>
      <point x="280.68965517241384" y="535.9310344827586"/>
      <point x="246.3448275862069" y="568.3103448275862" type="curve"/>
      <point x="110.20689655172413" y="566.9310344827586" type="line"/>
      <point x="223.2758620689655" y="535.9310344827586"/>
      <point x="263.2068965517241" y="473.6551724137931"/>
      <point x="271.44827586206895" y="389.55172413793105" type="curve"/>
      <point x="282.2068965517241" y="397.9310344827586"/>
      <point x="297.55172413793105" y="404.0344827586207"/>
      <point x="316.2758620689655" y="404.0344827586207" type="curve" smooth="yes"/>
      <point x="348.37931034482756" y="404.0344827586207"/>
      <point x="384.2413793103448" y="376.5172413793103"/>
      <point x="384.2413793103448" y="301.9655172413793" type="curve" smooth="yes"/>
      <point x="384.2413793103448" y="221.6896551724138"/>
      <point x="338.0344827586207" y="184.41379310344828"/>
      <point x="273.7931034482758" y="184.41379310344828" type="curve" smooth="yes"/>
      <point x="173.17241379310346" y="184.41379310344828"/>
      <point x="97.86206896551724" y="258.9310344827586"/>
      <point x="56.310344827586206" y="489.44827586206895" type="curve"/>
      <point x="7.758620689655173" y="478.9655172413793" type="line"/>
      <point x="50.79310344827586" y="194.6206896551724"/>
      <point x="138.0344827586207" y="70.06896551724138"/>
    </contour>
    <contour>
      <point x="750.5172413793103" y="-31.20689655172414" type="line"/>
      <point x="757.0" y="-29.586206896551722" type="line"/>
      <point x="757.0" y="557.5862068965517" type="line"/>
      <point x="845.2758620689656" y="557.5862068965517" type="line"/>
      <point x="810.448275862069" y="622.0" type="line"/>
      <point x="750.2758620689655" y="622.0" type="line"/>
      <point x="743.4137931034483" y="672.448275862069" type="line"/>
      <point x="691.3793103448277" y="707.3103448275862" type="line"/>
      <point x="686.1379310344827" y="705.0689655172414" type="line"/>
      <point x="686.1379310344827" y="641.7241379310344" type="line" smooth="yes"/>
      <point x="686.1379310344827" y="611.6551724137931"/>
      <point x="689.1379310344828" y="569.1379310344828"/>
      <point x="693.5172413793102" y="535.1034482758621" type="curve"/>
      <point x="698.7586206896552" y="536.1034482758621" type="line"/>
      <point x="686.5172413793103" y="598.4827586206897"/>
      <point x="657.5862068965517" y="622.0"/>
      <point x="624.6206896551723" y="622.0" type="curve" smooth="yes"/>
      <point x="586.6896551724138" y="622.0" type="line"/>
      <point x="621.5172413793102" y="557.5862068965517" type="line"/>
      <point x="638.0689655172414" y="557.5862068965517" type="line" smooth="yes"/>
      <point x="658.7241379310345" y="557.5862068965517"/>
      <point x="678.8965517241379" y="524.1379310344828"/>
      <point x="684.2758620689655" y="481.3103448275862" type="curve"/>
      <point x="684.2758620689655" y="1.7586206896551724" type="line"/>
    </contour>
  </outline>
</glyph>
<glyph name="i-beng" format="2">
  <advance width="395.48275862068965"/>
  <unicode hex="0987"/>
  <anchor x="250.6896551724138" y="66.03448275862068" name="bottom"/>
  <anchor x="354.8275862068965" y="-75.27586206896552" name="bottom.rakaar"/>
  <anchor x="315.2068965517241" y="63.93103448275862" name="bottom.rvocalic"/>
  <anchor x="240.55172413793105" y="68.27586206896552" name="bottom.virama"/>
  <anchor x="272.3793103448276" y="612.6551724137931" name="top"/>
  <anchor x="227.0344827586207" y="616.1724137931034" name="topright"/>
  <anchor x="197.24137931034483" y="0.0" name="vedic"/>
  <outline>
    <contour>
      <point x="298.62068965517244" y="603.3103448275862" type="curve"/>
      <point x="347.31034482758616" y="603.3103448275862" type="line"/>
      <point x="343.0689655172414" y="744.2068965517241"/>
      <point x="299.62068965517244" y="807.6896551724137"/>
      <point x="218.55172413793105" y="807.6896551724137" type="curve" smooth="yes"/>
      <point x="175.9655172413793" y="807.6896551724137"/>
      <point x="148.6206896551724" y="798.0689655172414"/>
      <point x="107.0344827586207" y="798.0689655172414" type="curve" smooth="yes"/>
      <point x="53.96551724137931" y="798.0689655172414"/>
      <point x="28.965517241379317" y="818.4137931034483"/>
      <point x="28.965517241379317" y="879.6896551724137" type="curve" smooth="yes"/>
      <point x="28.965517241379317" y="893.0689655172414"/>
      <point x="29.965517241379317" y="908.448275862069"/>
      <point x="31.965517241379317" y="920.6896551724137" type="curve"/>
      <point x="-10.862068965517242" y="925.9310344827586" type="line"/>
      <point x="-15.103448275862068" y="903.448275862069"/>
      <point x="-16.724137931034484" y="878.344827586207"/>
      <point x="-16.724137931034484" y="858.3793103448276" type="curve" smooth="yes"/>
      <point x="-16.724137931034484" y="758.7586206896552"/>
      <point x="25.48275862068965" y="702.0689655172414"/>
      <point x="112.51724137931035" y="702.0689655172414" type="curve" smooth="yes"/>
      <point x="163.86206896551724" y="702.0689655172414"/>
      <point x="190.3103448275862" y="712.0689655172414"/>
      <point x="226.93103448275863" y="712.0689655172414" type="curve" smooth="yes"/>
      <point x="269.0344827586207" y="712.0689655172414"/>
      <point x="295.7586206896552" y="684.2758620689655"/>
    </contour>
    <component base="ha-beng"/>
  </outline>
</glyph>
<glyph name="ii-beng" format="2">
  <advance width="547.3793103448276"/>
  <unicode hex="0988"/>
  <anchor x="478.3793103448276" y="-18.20689655172414" name="bottom"/>
  <anchor x="480.6206896551724" y="55.724137931034484" name="bottom.rakaar"/>
  <anchor x="469.7241379310345" y="-9.689655172413794" name="bottom.rvocalic"/>
  <anchor x="467.6206896551724" y="-23.586206896551726" name="bottom.virama"/>
  <anchor x="333.2413793103448" y="612.6551724137931" name="top"/>
  <anchor x="294.13793103448273" y="615.7931034482758" name="topright"/>
  <anchor x="273.68965517241384" y="0.0" name="vedic"/>
  <outline>
    <contour>
      <point x="444.03448275862064" y="-43.37931034482759" type="curve"/>
      <point x="488.86206896551727" y="-27.03448275862069" type="line"/>
      <point x="469.99999999999994" y="40.41379310344828"/>
      <point x="462.2413793103448" y="94.20689655172414"/>
      <point x="462.2413793103448" y="155.44827586206895" type="curve" smooth="yes"/>
      <point x="462.2413793103448" y="242.0344827586207"/>
      <point x="482.5862068965517" y="327.2413793103448"/>
      <point x="519.2068965517242" y="401.2413793103448" type="curve"/>
      <point x="417.34482758620686" y="483.2413793103448" type="line"/>
      <point x="356.0344827586207" y="428.86206896551727"/>
      <point x="322.9310344827586" y="364.55172413793105"/>
      <point x="291.58620689655174" y="293.44827586206895" type="curve"/>
      <point x="307.6551724137931" y="272.62068965517244" type="line"/>
      <point x="311.89655172413796" y="289.9655172413793"/>
      <point x="313.51724137931035" y="310.44827586206895"/>
      <point x="313.51724137931035" y="327.2758620689655" type="curve" smooth="yes"/>
      <point x="313.51724137931035" y="420.7241379310345"/>
      <point x="274.4137931034483" y="501.7931034482759"/>
      <point x="155.0344827586207" y="501.7931034482759" type="curve" smooth="yes"/>
      <point x="83.58620689655173" y="501.7931034482759"/>
      <point x="43.75862068965517" y="464.44827586206895"/>
      <point x="43.75862068965517" y="403.62068965517244" type="curve" smooth="yes"/>
      <point x="43.75862068965517" y="346.0689655172414"/>
      <point x="79.6896551724138" y="312.2068965517241"/>
      <point x="126.89655172413794" y="312.2068965517241" type="curve" smooth="yes"/>
      <point x="176.48275862068965" y="312.2068965517241"/>
      <point x="209.9310344827586" y="349.3103448275862"/>
      <point x="209.3103448275862" y="414.3793103448276" type="curve" smooth="yes"/>
      <point x="208.06896551724137" y="471.0344827586207"/>
      <point x="171.6206896551724" y="538.4137931034483"/>
      <point x="146.6206896551724" y="564.5862068965517" type="curve"/>
      <point x="37.37931034482759" y="564.5862068965517" type="line"/>
      <point x="75.62068965517241" y="548.448275862069"/>
      <point x="118.72413793103448" y="513.551724137931"/>
      <point x="148.51724137931035" y="463.0344827586207" type="curve"/>
      <point x="126.72413793103449" y="390.37931034482756" type="line"/>
      <point x="143.3793103448276" y="409.37931034482756"/>
      <point x="170.3448275862069" y="419.3793103448276"/>
      <point x="193.10344827586206" y="419.3793103448276" type="curve" smooth="yes"/>
      <point x="238.48275862068962" y="419.3793103448276"/>
      <point x="261.9655172413793" y="384.7241379310345"/>
      <point x="261.9655172413793" y="330.3448275862069" type="curve" smooth="yes"/>
      <point x="261.9655172413793" y="294.8620689655172"/>
      <point x="254.1034482758621" y="252.1034482758621"/>
      <point x="238.24137931034485" y="220.86206896551724" type="curve" smooth="yes"/>
      <point x="221.6206896551724" y="186.48275862068968"/>
      <point x="197.75862068965517" y="167.3793103448276"/>
      <point x="170.13793103448276" y="167.3793103448276" type="curve" smooth="yes"/>
      <point x="136.55172413793105" y="167.3793103448276"/>
      <point x="110.55172413793103" y="195.1034482758621"/>
      <point x="88.6896551724138" y="245.10344827586206" type="curve"/>
      <point x="46.758620689655174" y="225.13793103448276" type="line"/>
      <point x="82.62068965517241" y="119.89655172413794"/>
      <point x="131.82758620689654" y="64.79310344827587"/>
      <point x="196.06896551724137" y="64.79310344827587" type="curve" smooth="yes"/>
      <point x="258.62068965517244" y="64.79310344827587"/>
      <point x="298.68965517241384" y="128.10344827586206"/>
      <point x="343.0344827586207" y="211.55172413793102" type="curve" smooth="yes"/>
      <point x="377.8965517241379" y="275.7931034482759"/>
      <point x="401.72413793103453" y="325.48275862068965"/>
      <point x="448.86206896551727" y="383.7241379310345" type="curve"/>
      <point x="430.44827586206895" y="402.10344827586204" type="line"/>
      <point x="405.3448275862069" y="336.3793103448276"/>
      <point x="393.7241379310345" y="271.6206896551724"/>
      <point x="393.7241379310345" y="196.0344827586207" type="curve" smooth="yes"/>
      <point x="393.7241379310345" y="106.24137931034483"/>
      <point x="415.9310344827586" y="27.75862068965517"/>
    </contour>
    <contour>
      <point x="5.103448275862069" y="557.5862068965517" type="line"/>
      <point x="576.103448275862" y="557.5862068965517" type="line"/>
      <point x="542.8965517241379" y="622.0" type="line"/>
      <point x="-28.724137931034484" y="622.0" type="line"/>
    </contour>
    <contour>
      <point x="416.3448275862069" y="603.3103448275862" type="curve"/>
      <point x="465.8965517241379" y="603.3103448275862" type="line"/>
      <point x="456.27586206896547" y="738.3793103448276"/>
      <point x="417.55172413793105" y="813.6896551724137"/>
      <point x="314.7931034482759" y="813.6896551724137" type="curve" smooth="yes"/>
      <point x="259.7586206896552" y="813.6896551724137"/>
      <point x="235.82758620689657" y="801.5862068965516"/>
      <point x="169.58620689655172" y="801.5862068965516" type="curve" smooth="yes"/>
      <point x="107.10344827586206" y="801.5862068965516"/>
      <point x="80.72413793103448" y="820.7931034482759"/>
      <point x="80.72413793103448" y="890.4827586206897" type="curve" smooth="yes"/>
      <point x="80.72413793103448" y="897.9655172413793"/>
      <point x="81.34482758620689" y="909.448275862069"/>
      <point x="83.34482758620689" y="921.0689655172413" type="curve"/>
      <point x="41.89655172413793" y="926.3103448275862" type="line"/>
      <point x="37.6551724137931" y="905.2068965517241"/>
      <point x="35.03448275862069" y="884.6206896551723"/>
      <point x="35.03448275862069" y="863.8965517241379" type="curve" smooth="yes"/>
      <point x="35.03448275862069" y="762.2758620689655"/>
      <point x="81.75862068965516" y="700.6896551724138"/>
      <point x="182.0344827586207" y="700.6896551724138" type="curve" smooth="yes"/>
      <point x="246.20689655172413" y="700.6896551724138"/>
      <point x="286.2413793103448" y="714.4137931034484"/>
      <point x="333.7931034482759" y="714.4137931034484" type="curve" smooth="yes"/>
      <point x="387.86206896551727" y="714.4137931034484"/>
      <point x="409.7241379310345" y="683.2758620689655"/>
    </contour>
  </outline>
</glyph>
<glyph name="u-beng" format="2">
  <advance width="480.5862068965517"/>
  <unicode hex="0989"/>
  <anchor x="374.86206896551727" y="13.517241379310343" name="bottom"/>
  <anchor x="421.9310344827586" y="-8.241379310344827" name="bottom.rakaar"/>
  <anchor x="363.9655172413793" y="39.758620689655174" name="bottom.rvocalic"/>
  <anchor x="315.7586206896552" y="6.310344827586207" name="bottom.virama"/>
  <anchor x="305.1034482758621" y="610.1724137931035" name="top"/>
  <anchor x="253.03448275862073" y="616.7931034482758" name="topright"/>
  <anchor x="240.10344827586206" y="0.0" name="vedic"/>
  <anchor x="258.2068965517242" y="-90.55172413793103" name="nukta"/>
  <outline>
    <contour>
      <point x="378.7931034482758" y="603.3103448275862" type="curve"/>
      <point x="427.7241379310345" y="603.3103448275862" type="line"/>
      <point x="421.1034482758621" y="743.2068965517241"/>
      <point x="374.51724137931035" y="809.0689655172413"/>
      <point x="287.44827586206895" y="809.0689655172413" type="curve" smooth="yes"/>
      <point x="241.24137931034483" y="809.0689655172413"/>
      <point x="210.37931034482762" y="799.448275862069"/>
      <point x="164.03448275862067" y="799.448275862069" type="curve" smooth="yes"/>
      <point x="103.31034482758619" y="799.448275862069"/>
      <point x="79.3103448275862" y="823.9310344827586"/>
      <point x="79.3103448275862" y="878.6896551724138" type="curve" smooth="yes"/>
      <point x="79.3103448275862" y="889.9310344827586"/>
      <point x="80.3103448275862" y="905.3103448275862"/>
      <point x="82.3103448275862" y="920.6896551724138" type="curve"/>
      <point x="38.10344827586207" y="925.9310344827586" type="line"/>
      <point x="33.86206896551724" y="903.0689655172414"/>
      <point x="32.241379310344826" y="881.8620689655173"/>
      <point x="32.241379310344826" y="857.6206896551724" type="curve" smooth="yes"/>
      <point x="32.241379310344826" y="761.8965517241379"/>
      <point x="78.58620689655172" y="702.0689655172414"/>
      <point x="174.75862068965517" y="702.0689655172414" type="curve" smooth="yes"/>
      <point x="228.7241379310345" y="702.0689655172414"/>
      <point x="263.82758620689657" y="712.6896551724138"/>
      <point x="298.2068965517241" y="712.6896551724138" type="curve" smooth="yes"/>
      <point x="346.0689655172414" y="712.6896551724138"/>
      <point x="371.7931034482759" y="683.896551724138"/>
    </contour>
    <component base="dda-beng"/>
  </outline>
</glyph>
<glyph name="uu-beng" format="2">
  <advance width="558.9655172413793"/>
  <unicode hex="098A"/>
  <anchor x="445.1379310344828" y="8.551724137931032" name="bottom"/>
  <anchor x="492.2068965517241" y="-11.586206896551724" name="bottom.rakaar"/>
  <anchor x="433.6206896551724" y="34.41379310344827" name="bottom.rvocalic"/>
  <anchor x="384.0344827586207" y="1.5862068965517242" name="bottom.virama"/>
  <anchor x="354.0344827586207" y="611.4137931034483" name="top"/>
  <anchor x="334.41379310344826" y="615.7931034482758" name="topright"/>
  <anchor x="279.17241379310343" y="0.0" name="vedic"/>
  <outline>
    <contour>
      <point x="348.7586206896552" y="22.068965517241377" type="curve" smooth="yes"/>
      <point x="481.62068965517244" y="22.068965517241377"/>
      <point x="542.6896551724138" y="117.79310344827587"/>
      <point x="542.6896551724138" y="249.58620689655172" type="curve" smooth="yes"/>
      <point x="542.6896551724138" y="352.41379310344826"/>
      <point x="505.5862068965517" y="423.37931034482756"/>
      <point x="457.4827586206897" y="470.86206896551727" type="curve"/>
      <point x="423.55172413793105" y="396.7931034482759"/>
      <point x="380.41379310344826" y="351.1379310344828"/>
      <point x="347.6551724137931" y="351.1379310344828" type="curve" smooth="yes"/>
      <point x="335.2758620689655" y="351.1379310344828"/>
      <point x="323.17241379310343" y="359.8965517241379"/>
      <point x="323.17241379310343" y="380.3793103448276" type="curve" smooth="yes"/>
      <point x="323.17241379310343" y="557.5862068965517" type="line"/>
      <point x="587.6896551724137" y="557.5862068965517" type="line"/>
      <point x="551.8620689655173" y="622.0" type="line"/>
      <point x="-28.724137931034484" y="622.0" type="line"/>
      <point x="6.103448275862069" y="557.5862068965517" type="line"/>
      <point x="250.44827586206898" y="557.5862068965517" type="line"/>
      <point x="250.44827586206898" y="377.13793103448273" type="line" smooth="yes"/>
      <point x="250.44827586206898" y="337.44827586206895"/>
      <point x="259.9310344827586" y="308.4827586206897"/>
      <point x="282.03448275862064" y="285.7586206896552" type="curve" smooth="yes"/>
      <point x="303.37931034482756" y="263.7931034482758"/>
      <point x="327.1034482758621" y="253.31034482758622"/>
      <point x="358.7931034482759" y="253.31034482758622" type="curve" smooth="yes"/>
      <point x="412.1379310344828" y="253.31034482758622"/>
      <point x="468.10344827586215" y="299.9310344827586"/>
      <point x="500.7241379310344" y="370.6551724137931" type="curve"/>
      <point x="455.1379310344828" y="351.2413793103448" type="line"/>
      <point x="473.13793103448273" y="332.62068965517244"/>
      <point x="484.89655172413796" y="304.3793103448276"/>
      <point x="484.89655172413796" y="266.9655172413793" type="curve" smooth="yes"/>
      <point x="484.89655172413796" y="184.6896551724138"/>
      <point x="436.5517241379311" y="131.27586206896552"/>
      <point x="359.5862068965517" y="131.27586206896552" type="curve" smooth="yes"/>
      <point x="230.58620689655174" y="131.27586206896552"/>
      <point x="192.72413793103448" y="283.31034482758616"/>
      <point x="147.0" y="496.41379310344826" type="curve"/>
      <point x="102.3103448275862" y="482.55172413793105" type="line"/>
      <point x="127.20689655172414" y="307.0"/>
      <point x="158.31034482758622" y="195.0"/>
      <point x="204.7241379310345" y="120.93103448275862" type="curve"/>
      <point x="237.79310344827587" y="123.89655172413794" type="line"/>
      <point x="156.44827586206898" y="156.13793103448276"/>
      <point x="102.44827586206897" y="275.8965517241379"/>
      <point x="50.10344827586208" y="492.6896551724138" type="curve"/>
      <point x="5.413793103448276" y="479.44827586206895" type="line"/>
      <point x="57.655172413793096" y="170.24137931034483"/>
      <point x="167.20689655172413" y="22.068965517241377"/>
    </contour>
    <contour>
      <point x="457.65517241379314" y="603.3103448275862" type="curve"/>
      <point x="506.82758620689657" y="603.3103448275862" type="line"/>
      <point x="497.2068965517242" y="738.3793103448276"/>
      <point x="446.51724137931035" y="816.448275862069"/>
      <point x="342.37931034482756" y="816.448275862069" type="curve" smooth="yes"/>
      <point x="280.3103448275862" y="816.448275862069"/>
      <point x="243.82758620689654" y="799.448275862069"/>
      <point x="164.41379310344828" y="799.448275862069" type="curve" smooth="yes"/>
      <point x="104.3103448275862" y="799.448275862069"/>
      <point x="80.3103448275862" y="823.9310344827586"/>
      <point x="80.3103448275862" y="878.6896551724138" type="curve" smooth="yes"/>
      <point x="80.3103448275862" y="889.9310344827586"/>
      <point x="81.3103448275862" y="905.3103448275863"/>
      <point x="83.3103448275862" y="920.6896551724137" type="curve"/>
      <point x="39.103448275862064" y="925.9310344827586" type="line"/>
      <point x="34.86206896551724" y="903.0689655172414"/>
      <point x="32.62068965517241" y="881.8620689655172"/>
      <point x="32.62068965517241" y="857.6206896551724" type="curve" smooth="yes"/>
      <point x="32.62068965517241" y="761.8965517241379"/>
      <point x="78.9655172413793" y="702.0689655172413"/>
      <point x="178.86206896551727" y="702.0689655172413" type="curve" smooth="yes"/>
      <point x="253.20689655172413" y="702.0689655172413"/>
      <point x="299.8965517241379" y="720.6896551724137"/>
      <point x="358.2413793103448" y="720.6896551724137" type="curve" smooth="yes"/>
      <point x="417.2068965517241" y="720.6896551724137"/>
      <point x="449.6551724137931" y="683.2758620689655"/>
    </contour>
  </outline>
</glyph>
<glyph name="rVocalic-beng" format="2">
  <advance width="606.0"/>
  <unicode hex="098B"/>
  <anchor x="416.93103448275866" y="0.0" name="bottom"/>
  <anchor x="416.93103448275866" y="80.55172413793103" name="bottom.rakaar"/>
  <anchor x="355.41379310344826" y="125.3103448275862" name="bottom.rvocalic"/>
  <anchor x="400.6896551724138" y="10.96551724137931" name="bottom.virama"/>
  <anchor x="416.93103448275866" y="557.5862068965517" name="top"/>
  <anchor x="418.93103448275866" y="557.5862068965517" name="topright"/>
  <anchor x="302.6896551724138" y="0.0" name="vedic"/>
  <outline>
    <contour>
      <point x="409.0689655172414" y="-19.827586206896555" type="line"/>
      <point x="416.93103448275866" y="-18.20689655172414" type="line"/>
      <point x="416.93103448275866" y="640.8965517241379" type="line"/>
      <point x="349.44827586206895" y="683.5862068965517" type="line"/>
      <point x="344.2068965517241" y="681.9655172413793" type="line"/>
      <point x="344.2068965517241" y="459.8620689655172" type="line"/>
      <point x="351.44827586206895" y="497.8965517241379" type="line"/>
      <point x="248.62068965517244" y="453.37931034482756"/>
      <point x="140.6206896551724" y="393.4137931034483"/>
      <point x="58.862068965517246" y="337.6551724137931" type="curve"/>
      <point x="121.55172413793105" y="214.51724137931035" type="line"/>
      <point x="223.55172413793102" y="187.48275862068965"/>
      <point x="304.9655172413793" y="125.93103448275862"/>
      <point x="358.41379310344826" y="15.137931034482758" type="curve"/>
    </contour>
    <contour>
      <point x="344.2068965517241" y="88.55172413793103" type="line"/>
      <point x="360.31034482758616" y="86.41379310344828" type="line"/>
      <point x="326.68965517241384" y="201.0"/>
      <point x="241.41379310344828" y="269.9310344827586"/>
      <point x="163.86206896551724" y="298.6896551724138" type="curve"/>
      <point x="171.10344827586206" y="276.2413793103449" type="line"/>
      <point x="221.62068965517238" y="316.37931034482756"/>
      <point x="299.8965517241379" y="357.7931034482759"/>
      <point x="356.551724137931" y="382.44827586206895" type="curve"/>
      <point x="344.2068965517241" y="415.2413793103448" type="line"/>
    </contour>
    <contour>
      <point x="113.20689655172414" y="422.7931034482759" type="curve" smooth="yes"/>
      <point x="172.44827586206895" y="422.7931034482759"/>
      <point x="235.24137931034483" y="456.6896551724138"/>
      <point x="275.2068965517242" y="540.4137931034483" type="curve"/>
      <point x="245.62068965517238" y="539.1724137931035" type="line"/>
      <point x="264.7586206896552" y="515.6551724137931"/>
      <point x="285.6206896551724" y="486.2758620689655"/>
      <point x="301.62068965517244" y="442.7586206896552" type="curve"/>
      <point x="342.3103448275862" y="453.62068965517244" type="line"/>
      <point x="319.55172413793105" y="530.6551724137931"/>
      <point x="285.5862068965517" y="591.2068965517242"/>
      <point x="237.62068965517244" y="628.5862068965517" type="curve"/>
      <point x="203.62068965517238" y="552.0344827586207"/>
      <point x="158.55172413793102" y="504.82758620689657"/>
      <point x="111.3793103448276" y="504.82758620689657" type="curve" smooth="yes"/>
      <point x="102.37931034482757" y="504.82758620689657"/>
      <point x="88.37931034482759" y="507.2068965517242"/>
      <point x="82.75862068965517" y="510.5862068965517" type="curve"/>
      <point x="122.20689655172414" y="478.48275862068965" type="line"/>
      <point x="138.06896551724137" y="495.10344827586204"/>
      <point x="143.68965517241378" y="510.72413793103453"/>
      <point x="143.68965517241378" y="537.5862068965517" type="curve" smooth="yes"/>
      <point x="143.68965517241378" y="573.2068965517242"/>
      <point x="123.06896551724138" y="602.551724137931"/>
      <point x="80.48275862068967" y="602.551724137931" type="curve" smooth="yes"/>
      <point x="37.896551724137936" y="602.551724137931"/>
      <point x="10.793103448275861" y="573.4482758620691"/>
      <point x="10.793103448275861" y="525.344827586207" type="curve" smooth="yes"/>
      <point x="10.793103448275861" y="457.51724137931035"/>
      <point x="59.27586206896551" y="422.7931034482759"/>
    </contour>
    <contour>
      <point x="539.2068965517241" y="69.62068965517241" type="line"/>
      <point x="547.0689655172413" y="71.24137931034483" type="line"/>
      <point x="547.0689655172413" y="557.5862068965517" type="line"/>
      <point x="634.7241379310345" y="557.5862068965517" type="line"/>
      <point x="600.5172413793103" y="622.0" type="line"/>
      <point x="540.3448275862069" y="622.0" type="line"/>
      <point x="533.4827586206897" y="672.448275862069" type="line"/>
      <point x="481.44827586206895" y="707.3103448275862" type="line"/>
      <point x="475.58620689655174" y="705.0689655172414" type="line"/>
      <point x="475.58620689655174" y="178.6206896551724" type="line"/>
      <point x="491.6896551724138" y="175.86206896551724" type="line"/>
      <point x="470.82758620689657" y="246.75862068965517"/>
      <point x="431.5862068965517" y="299.4137931034483"/>
      <point x="385.9655172413793" y="336.3103448275862" type="curve"/>
      <point x="378.6206896551724" y="244.17241379310343" type="line"/>
      <point x="423.72413793103453" y="210.89655172413794"/>
      <point x="460.6896551724138" y="165.24137931034483"/>
      <point x="489.7931034482759" y="104.58620689655172" type="curve"/>
    </contour>
  </outline>
</glyph>
<glyph name="lVocalic-beng" format="2">
  <advance width="425.96551724137925"/>
  <unicode hex="098C"/>
  <anchor x="329.44827586206895" y="557.5862068965517" name="top"/>
  <anchor x="212.48275862068968" y="0.0" name="vedic"/>
  <outline>
    <contour>
      <point x="241.7241379310345" y="1.2413793103448256" type="line"/>
      <point x="319.93103448275866" y="18.89655172413793"/>
      <point x="412.448275862069" y="111.24137931034483"/>
      <point x="412.448275862069" y="275.31034482758616" type="curve" smooth="yes"/>
      <point x="412.448275862069" y="411.3103448275862"/>
      <point x="354.1034482758621" y="470.13793103448273"/>
      <point x="233.55172413793105" y="505.7586206896552" type="curve" smooth="yes"/>
      <point x="159.62068965517244" y="527.6206896551724"/>
      <point x="112.13793103448278" y="541.7586206896551"/>
      <point x="112.13793103448278" y="616.0" type="curve" smooth="yes"/>
      <point x="112.13793103448278" y="646.2413793103449"/>
      <point x="119.27586206896552" y="671.3793103448276"/>
      <point x="129.89655172413794" y="698.6206896551724" type="curve"/>
      <point x="84.44827586206895" y="713.8620689655172" type="line"/>
      <point x="66.58620689655173" y="676.8620689655172"/>
      <point x="50.862068965517246" y="631.7586206896551"/>
      <point x="50.862068965517246" y="576.8275862068965" type="curve" smooth="yes"/>
      <point x="50.862068965517246" y="467.1034482758621"/>
      <point x="111.44827586206897" y="428.62068965517244"/>
      <point x="210.89655172413796" y="400.7586206896552" type="curve" smooth="yes"/>
      <point x="302.58620689655174" y="374.8965517241379"/>
      <point x="354.41379310344826" y="355.8620689655172"/>
      <point x="354.41379310344826" y="250.72413793103448" type="curve" smooth="yes"/>
      <point x="354.41379310344826" y="177.6206896551724"/>
      <point x="324.1724137931035" y="115.0344827586207"/>
      <point x="278.8275862068965" y="104.37931034482759" type="curve"/>
      <point x="319.2413793103448" y="79.79310344827586" type="line"/>
      <point x="319.6206896551724" y="205.82758620689654"/>
      <point x="266.82758620689657" y="321.2068965517241"/>
      <point x="162.0344827586207" y="321.2068965517241" type="curve" smooth="yes"/>
      <point x="74.13793103448276" y="321.2068965517241"/>
      <point x="30.03448275862069" y="247.89655172413794"/>
      <point x="30.03448275862069" y="163.9310344827586" type="curve" smooth="yes"/>
      <point x="30.03448275862069" y="67.86206896551724"/>
      <point x="74.0" y="17.379310344827587"/>
      <point x="129.44827586206895" y="17.379310344827587" type="curve" smooth="yes"/>
      <point x="176.27586206896552" y="17.379310344827587"/>
      <point x="196.75862068965517" y="52.62068965517241"/>
      <point x="196.75862068965517" y="95.06896551724138" type="curve" smooth="yes"/>
      <point x="196.75862068965517" y="138.6551724137931"/>
      <point x="171.27586206896552" y="166.75862068965517"/>
      <point x="134.31034482758622" y="166.75862068965517" type="curve" smooth="yes"/>
      <point x="102.72413793103449" y="166.75862068965517"/>
      <point x="76.86206896551724" y="141.27586206896552"/>
      <point x="77.48275862068965" y="108.93103448275862" type="curve"/>
      <point x="121.79310344827586" y="106.20689655172414" type="line"/>
      <point x="105.55172413793103" y="114.58620689655173"/>
      <point x="93.17241379310344" y="133.9655172413793"/>
      <point x="93.17241379310344" y="167.10344827586206" type="curve" smooth="yes"/>
      <point x="93.17241379310344" y="204.10344827586206"/>
      <point x="114.79310344827586" y="234.24137931034483"/>
      <point x="150.41379310344828" y="234.24137931034483" type="curve" smooth="yes"/>
      <point x="216.24137931034483" y="234.24137931034483"/>
      <point x="238.72413793103448" y="138.27586206896552"/>
      <point x="238.72413793103448" y="53.758620689655174" type="curve" smooth="yes"/>
      <point x="238.72413793103448" y="37.62068965517241"/>
      <point x="238.10344827586206" y="21.86206896551724"/>
      <point x="236.1034482758621" y="5.862068965517242" type="curve"/>
    </contour>
  </outline>
</glyph>
<glyph name="e-beng" format="2">
  <advance width="530.6206896551723"/>
  <unicode hex="098F"/>
  <anchor x="474.5862068965518" y="0.0" name="bottom"/>
  <anchor x="474.5862068965518" y="-1.9655172413793105" name="bottom.rvocalic"/>
  <anchor x="459.344827586207" y="7.241379310344827" name="bottom.virama"/>
  <anchor x="397.9655172413793" y="557.5862068965517" name="top"/>
  <anchor x="400.9655172413793" y="557.5862068965517" name="topright"/>
  <anchor x="265.0" y="0.0" name="vedic"/>
  <outline>
    <contour>
      <point x="464.5862068965518" y="-22.93103448275862" type="line"/>
      <point x="472.448275862069" y="-21.310344827586206" type="line"/>
      <point x="472.448275862069" y="499.3448275862069" type="line" smooth="yes"/>
      <point x="472.448275862069" y="580.551724137931"/>
      <point x="428.7586206896552" y="632.6206896551724"/>
      <point x="358.6206896551724" y="632.6206896551724" type="curve" smooth="yes"/>
      <point x="254.17241379310346" y="632.6206896551724"/>
      <point x="157.24137931034483" y="506.9310344827586"/>
      <point x="157.24137931034483" y="386.7586206896552" type="curve" smooth="yes"/>
      <point x="157.24137931034483" y="307.0344827586207"/>
      <point x="205.3103448275862" y="263.9310344827586"/>
      <point x="259.37931034482756" y="262.55172413793105" type="curve" smooth="yes"/>
      <point x="318.1034482758621" y="261.17241379310343"/>
      <point x="347.3103448275862" y="302.8965517241379"/>
      <point x="347.3103448275862" y="352.86206896551727" type="curve" smooth="yes"/>
      <point x="347.3103448275862" y="398.44827586206895"/>
      <point x="321.9655172413793" y="434.2068965517241"/>
      <point x="281.9655172413793" y="434.2068965517241" type="curve" smooth="yes"/>
      <point x="263.8620689655172" y="434.2068965517241"/>
      <point x="245.86206896551724" y="424.9655172413793"/>
      <point x="235.62068965517244" y="404.2068965517241" type="curve"/>
      <point x="271.8965517241379" y="400.7241379310345" type="line"/>
      <point x="273.13793103448273" y="479.2068965517242"/>
      <point x="324.7931034482758" y="561.7241379310345"/>
      <point x="367.0689655172414" y="561.7241379310345" type="curve" smooth="yes"/>
      <point x="391.8620689655172" y="561.7241379310345"/>
      <point x="399.7241379310345" y="535.551724137931"/>
      <point x="399.7241379310345" y="504.13793103448273" type="curve" smooth="yes"/>
      <point x="399.7241379310345" y="216.0344827586207" type="line" smooth="yes"/>
      <point x="399.7241379310345" y="177.72413793103448"/>
      <point x="403.5862068965518" y="125.58620689655173"/>
      <point x="409.448275862069" y="89.96551724137932" type="curve"/>
      <point x="379.62068965517244" y="158.13793103448276"/>
      <point x="335.51724137931035" y="174.13793103448276"/>
      <point x="291.55172413793105" y="174.13793103448276" type="curve" smooth="yes"/>
      <point x="252.41379310344826" y="174.13793103448276"/>
      <point x="225.0689655172414" y="167.89655172413794"/>
      <point x="177.68965517241378" y="167.89655172413794" type="curve" smooth="yes"/>
      <point x="121.72413793103448" y="167.89655172413794"/>
      <point x="83.9655172413793" y="198.3793103448276"/>
      <point x="83.9655172413793" y="281.3793103448276" type="curve" smooth="yes"/>
      <point x="83.9655172413793" y="319.7931034482759"/>
      <point x="88.34482758620689" y="350.4137931034483"/>
      <point x="94.58620689655172" y="376.7586206896552" type="curve"/>
      <point x="46.137931034482754" y="384.0" type="line"/>
      <point x="36.03448275862068" y="345.7931034482759"/>
      <point x="29.413793103448274" y="299.44827586206895"/>
      <point x="29.413793103448274" y="253.48275862068962" type="curve" smooth="yes"/>
      <point x="29.413793103448274" y="102.27586206896552"/>
      <point x="107.75862068965517" y="57.58620689655172"/>
      <point x="188.68965517241378" y="57.58620689655172" type="curve" smooth="yes"/>
      <point x="245.89655172413794" y="57.58620689655172"/>
      <point x="280.2068965517241" y="70.93103448275862"/>
      <point x="326.0689655172414" y="70.93103448275862" type="curve" smooth="yes"/>
      <point x="367.1034482758621" y="70.93103448275862"/>
      <point x="393.0689655172414" y="55.93103448275862"/>
      <point x="419.1724137931034" y="7.793103448275862" type="curve"/>
    </contour>
  </outline>
</glyph>
<glyph name="ai-beng" format="2">
  <advance width="608.344827586207"/>
  <unicode hex="0990"/>
  <anchor x="421.6896551724137" y="601.8620689655172" name="top"/>
  <anchor x="384.86206896551727" y="600.1379310344828" name="topright"/>
  <anchor x="303.86206896551727" y="0.0" name="vedic"/>
  <anchor x="474.5862068965518" y="0.0" name="bottom"/>
  <anchor x="474.5862068965518" y="-1.9655172413793105" name="bottom.rvocalic"/>
  <anchor x="459.344827586207" y="7.241379310344827" name="bottom.virama"/>
  <outline>
    <contour>
      <point x="456.75862068965523" y="317.86206896551727" type="line"/>
      <point x="511.82758620689657" y="375.93103448275866"/>
      <point x="558.9310344827586" y="451.0344827586207"/>
      <point x="558.9310344827586" y="568.5172413793103" type="curve" smooth="yes"/>
      <point x="558.9310344827586" y="729.7241379310344"/>
      <point x="451.0344827586207" y="761.2068965517241"/>
      <point x="344.3103448275862" y="781.3103448275862" type="curve" smooth="yes"/>
      <point x="258.2068965517241" y="797.7931034482759"/>
      <point x="186.89655172413794" y="812.2758620689656"/>
      <point x="186.89655172413794" y="898.8965517241379" type="curve" smooth="yes"/>
      <point x="186.89655172413794" y="928.8965517241379"/>
      <point x="193.89655172413794" y="960.1379310344828"/>
      <point x="204.13793103448276" y="984.7586206896551" type="curve"/>
      <point x="159.44827586206898" y="1000.6206896551724" type="line"/>
      <point x="142.96551724137933" y="961.0344827586207"/>
      <point x="131.3448275862069" y="919.4137931034484"/>
      <point x="131.3448275862069" y="873.0689655172413" type="curve" smooth="yes"/>
      <point x="131.3448275862069" y="742.8620689655173"/>
      <point x="219.4137931034483" y="711.0344827586207"/>
      <point x="328.8275862068965" y="691.6896551724137" type="curve" smooth="yes"/>
      <point x="428.03448275862064" y="674.5862068965517"/>
      <point x="507.37931034482756" y="663.448275862069"/>
      <point x="507.37931034482756" y="555.1379310344828" type="curve" smooth="yes"/>
      <point x="507.37931034482756" y="485.1034482758621"/>
      <point x="483.48275862068965" y="438.7241379310345"/>
      <point x="437.27586206896547" y="395.2413793103448" type="curve"/>
    </contour>
    <component base="e-beng"/>
  </outline>
</glyph>
<glyph name="o-beng" format="2">
  <advance width="568.6206896551724"/>
  <unicode hex="0993"/>
  <anchor x="435.10344827586204" y="19.137931034482758" name="bottom"/>
  <anchor x="480.9310344827586" y="-0.3793103448275862" name="bottom.rakaar"/>
  <anchor x="425.2068965517241" y="43.137931034482754" name="bottom.rvocalic"/>
  <anchor x="377.86206896551727" y="10.931034482758621" name="bottom.virama"/>
  <anchor x="375.13793103448273" y="543.9310344827586" name="top"/>
  <anchor x="377.13793103448273" y="543.9310344827586" name="topright"/>
  <anchor x="284.0" y="0.0" name="vedic"/>
  <outline>
    <contour>
      <point x="350.2068965517241" y="40.103448275862064" type="curve" smooth="yes"/>
      <point x="462.79310344827593" y="40.103448275862064"/>
      <point x="530.0689655172414" y="117.96551724137932"/>
      <point x="530.0689655172414" y="225.41379310344826" type="curve" smooth="yes"/>
      <point x="530.0689655172414" y="342.72413793103453"/>
      <point x="436.2068965517242" y="419.10344827586204"/>
      <point x="383.2068965517241" y="419.10344827586204" type="curve" smooth="yes"/>
      <point x="347.9655172413793" y="419.10344827586204"/>
      <point x="317.51724137931035" y="395.58620689655174"/>
      <point x="317.51724137931035" y="345.51724137931035" type="curve" smooth="yes"/>
      <point x="317.51724137931035" y="297.9310344827586"/>
      <point x="344.48275862068965" y="266.82758620689657"/>
      <point x="387.0689655172414" y="266.82758620689657" type="curve" smooth="yes"/>
      <point x="454.13793103448273" y="266.82758620689657"/>
      <point x="509.3448275862069" y="376.2413793103449"/>
      <point x="509.3448275862069" y="475.448275862069" type="curve" smooth="yes"/>
      <point x="509.3448275862069" y="567.1724137931035"/>
      <point x="454.89655172413796" y="630.3793103448276"/>
      <point x="359.86206896551727" y="630.3793103448276" type="curve" smooth="yes"/>
      <point x="246.72413793103448" y="630.3793103448276"/>
      <point x="147.3793103448276" y="528.3793103448276"/>
      <point x="147.3793103448276" y="420.0" type="curve" smooth="yes"/>
      <point x="147.3793103448276" y="350.6551724137931"/>
      <point x="184.10344827586206" y="314.9310344827586"/>
      <point x="229.31034482758622" y="314.9310344827586" type="curve" smooth="yes"/>
      <point x="273.37931034482756" y="314.9310344827586"/>
      <point x="301.2413793103448" y="346.13793103448273"/>
      <point x="301.2413793103448" y="397.37931034482756" type="curve" smooth="yes"/>
      <point x="301.2413793103448" y="433.6206896551724"/>
      <point x="278.7586206896552" y="464.3448275862069"/>
      <point x="249.89655172413794" y="464.3448275862069" type="curve" smooth="yes"/>
      <point x="228.31034482758622" y="464.3448275862069"/>
      <point x="211.93103448275863" y="454.3793103448276"/>
      <point x="205.79310344827587" y="440.7586206896551" type="curve"/>
      <point x="250.86206896551724" y="420.0689655172414" type="line"/>
      <point x="258.5862068965517" y="505.7931034482759"/>
      <point x="321.0344827586207" y="566.1034482758621"/>
      <point x="384.44827586206895" y="566.1034482758621" type="curve" smooth="yes"/>
      <point x="419.5862068965517" y="566.1034482758621"/>
      <point x="436.58620689655174" y="540.9310344827586"/>
      <point x="436.58620689655174" y="501.1379310344828" type="curve" smooth="yes"/>
      <point x="436.58620689655174" y="458.10344827586204"/>
      <point x="415.72413793103453" y="417.8965517241379"/>
      <point x="377.62068965517244" y="393.7241379310345" type="curve"/>
      <point x="393.48275862068965" y="336.3793103448276" type="line"/>
      <point x="426.44827586206895" y="337.0"/>
      <point x="469.4137931034483" y="309.2413793103448"/>
      <point x="469.4137931034483" y="251.3448275862069" type="curve" smooth="yes"/>
      <point x="469.4137931034483" y="186.10344827586206"/>
      <point x="424.344827586207" y="148.06896551724137"/>
      <point x="350.1034482758621" y="148.06896551724137" type="curve" smooth="yes"/>
      <point x="226.62068965517238" y="148.06896551724137"/>
      <point x="130.58620689655174" y="237.13793103448276"/>
      <point x="68.72413793103448" y="548.8620689655172" type="curve"/>
      <point x="19.413793103448278" y="537.3793103448276" type="line"/>
      <point x="77.0344827586207" y="184.0344827586207"/>
      <point x="192.86206896551724" y="40.103448275862064"/>
    </contour>
  </outline>
</glyph>
<glyph name="au-beng" format="2">
  <advance width="631.448275862069"/>
  <unicode hex="0994"/>
  <anchor x="546.6206896551724" y="19.137931034482758" name="bottom"/>
  <anchor x="601.448275862069" y="-1.0" name="bottom.rakaar"/>
  <anchor x="526.9655172413793" y="44.37931034482759" name="bottom.rvocalic"/>
  <anchor x="465.1034482758621" y="11.551724137931034" name="bottom.virama"/>
  <anchor x="570.9655172413793" y="601.8620689655172" name="top"/>
  <anchor x="511.86206896551727" y="600.1379310344828" name="topright"/>
  <anchor x="315.7241379310345" y="0.0" name="vedic"/>
  <outline>
    <contour>
      <point x="479.86206896551727" y="317.86206896551727" type="line"/>
      <point x="535.551724137931" y="375.9310344827586"/>
      <point x="582.0344827586207" y="451.0344827586207"/>
      <point x="582.0344827586207" y="568.5172413793102" type="curve" smooth="yes"/>
      <point x="582.0344827586207" y="729.4827586206897"/>
      <point x="474.7586206896552" y="761.2068965517241"/>
      <point x="368.0344827586207" y="781.3103448275862" type="curve" smooth="yes"/>
      <point x="281.9310344827586" y="797.7931034482759"/>
      <point x="210.6206896551724" y="812.2758620689655"/>
      <point x="210.6206896551724" y="898.8965517241379" type="curve" smooth="yes"/>
      <point x="210.6206896551724" y="928.8965517241379"/>
      <point x="217.6206896551724" y="960.1379310344828"/>
      <point x="227.24137931034483" y="984.7586206896551" type="curve"/>
      <point x="182.55172413793105" y="1000.6206896551724" type="line"/>
      <point x="166.6896551724138" y="961.0344827586207"/>
      <point x="155.0689655172414" y="919.4137931034484"/>
      <point x="155.0689655172414" y="873.0689655172413" type="curve" smooth="yes"/>
      <point x="155.0689655172414" y="742.8620689655173"/>
      <point x="243.13793103448276" y="711.0344827586207"/>
      <point x="352.55172413793105" y="691.6896551724137" type="curve" smooth="yes"/>
      <point x="451.7586206896552" y="674.5862068965517"/>
      <point x="531.1034482758621" y="663.448275862069"/>
      <point x="531.1034482758621" y="555.1379310344828" type="curve" smooth="yes"/>
      <point x="531.1034482758621" y="485.1034482758621"/>
      <point x="507.2068965517241" y="438.7241379310345"/>
      <point x="460.99999999999994" y="395.2413793103448" type="curve"/>
    </contour>
    <component base="o-beng"/>
  </outline>
</glyph>
<glyph name="ka-beng" format="2">
  <advance width="580.9310344827586"/>
  <unicode hex="0995"/>
  <anchor x="361.62068965517244" y="32.48275862068966" name="bottom"/>
  <anchor x="361.48275862068965" y="80.55172413793105" name="bottom.rakaar"/>
  <anchor x="365.6206896551724" y="9.241379310344827" name="bottom.rvocalic"/>
  <anchor x="352.2758620689655" y="4.137931034482758" name="bottom.virama"/>
  <anchor x="160.75862068965517" y="58.137931034482754" name="nukta"/>
  <anchor x="344.44827586206895" y="578.0689655172414" name="top"/>
  <anchor x="345.82758620689657" y="570.6206896551724" name="topright"/>
  <anchor x="289.9655172413793" y="0.0" name="vedic"/>
  <outline>
    <contour>
      <point x="357.7586206896552" y="-19.82758620689655" type="line"/>
      <point x="365.6206896551724" y="-18.20689655172414" type="line"/>
      <point x="365.6206896551724" y="429.06896551724134" type="line"/>
      <point x="350.7586206896552" y="403.44827586206895" type="line"/>
      <point x="355.3793103448276" y="405.0689655172414"/>
      <point x="360.62068965517244" y="406.0689655172414"/>
      <point x="364.8620689655172" y="406.0689655172414" type="curve" smooth="yes"/>
      <point x="449.24137931034477" y="406.0689655172414"/>
      <point x="508.6896551724138" y="346.48275862068965"/>
      <point x="508.6896551724138" y="278.58620689655174" type="curve" smooth="yes"/>
      <point x="508.6896551724138" y="262.5862068965517"/>
      <point x="506.3103448275862" y="252.9655172413793"/>
      <point x="499.0689655172414" y="240.72413793103448" type="curve"/>
      <point x="519.3103448275862" y="236.3448275862069" type="line"/>
      <point x="515.1724137931035" y="279.44827586206895"/>
      <point x="493.0689655172414" y="299.55172413793105"/>
      <point x="456.86206896551727" y="299.55172413793105" type="curve" smooth="yes"/>
      <point x="418.3793103448276" y="299.55172413793105"/>
      <point x="392.41379310344826" y="268.9310344827586"/>
      <point x="392.41379310344826" y="224.72413793103448" type="curve" smooth="yes"/>
      <point x="392.41379310344826" y="181.65517241379308"/>
      <point x="416.7586206896552" y="142.41379310344828"/>
      <point x="464.86206896551727" y="142.41379310344828" type="curve" smooth="yes"/>
      <point x="522.9310344827587" y="142.41379310344828"/>
      <point x="557.3793103448276" y="197.65517241379308"/>
      <point x="557.3793103448276" y="280.0689655172414" type="curve" smooth="yes"/>
      <point x="557.3793103448276" y="403.0"/>
      <point x="477.551724137931" y="503.6551724137931"/>
      <point x="353.3793103448276" y="515.5172413793103" type="curve"/>
      <point x="365.6206896551724" y="494.41379310344826" type="line"/>
      <point x="365.6206896551724" y="557.5862068965517" type="line"/>
      <point x="609.0344827586207" y="557.5862068965517" type="line"/>
      <point x="574.8275862068966" y="622.0" type="line"/>
      <point x="-28.724137931034484" y="622.0" type="line"/>
      <point x="5.482758620689655" y="557.5862068965517" type="line"/>
      <point x="292.8965517241379" y="557.5862068965517" type="line"/>
      <point x="292.8965517241379" y="480.7586206896552" type="line"/>
      <point x="301.3793103448276" y="518.1379310344827" type="line"/>
      <point x="197.9310344827586" y="474.8620689655172"/>
      <point x="94.68965517241378" y="415.13793103448273"/>
      <point x="8.793103448275861" y="345.1034482758621" type="curve"/>
      <point x="70.24137931034483" y="214.51724137931035" type="line"/>
      <point x="172.24137931034483" y="187.48275862068965"/>
      <point x="253.0344827586207" y="125.9310344827586"/>
      <point x="307.1034482758621" y="15.13793103448276" type="curve"/>
    </contour>
    <contour>
      <point x="292.8965517241379" y="88.55172413793105" type="line"/>
      <point x="308.37931034482756" y="86.41379310344827" type="line"/>
      <point x="275.37931034482756" y="201.0"/>
      <point x="193.20689655172413" y="269.93103448275866"/>
      <point x="115.65517241379311" y="298.6896551724138" type="curve"/>
      <point x="120.41379310344828" y="281.2068965517241" type="line"/>
      <point x="174.44827586206895" y="333.13793103448273"/>
      <point x="248.20689655172416" y="370.7931034482758"/>
      <point x="305.2413793103448" y="398.2068965517241" type="curve"/>
      <point x="292.8965517241379" y="433.37931034482756" type="line"/>
    </contour>
  </outline>
</glyph>
<glyph name="kha-beng" format="2">
  <advance width="500.1034482758621"/>
  <unicode hex="0996"/>
  <anchor x="436.1724137931035" y="32.48275862068966" name="bottom"/>
  <anchor x="440.5517241379311" y="80.55172413793103" name="bottom.rakaar"/>
  <anchor x="440.5517241379311" y="10.137931034482758" name="bottom.rvocalic"/>
  <anchor x="424.06896551724145" y="4.137931034482758" name="bottom.virama"/>
  <anchor x="414.0344827586207" y="568.0689655172414" name="top"/>
  <anchor x="401.5172413793103" y="559.448275862069" name="topright"/>
  <anchor x="235.8620689655172" y="0.0" name="vedic"/>
  <outline>
    <contour>
      <point x="433.68965517241384" y="-19.82758620689655" type="line"/>
      <point x="440.5517241379311" y="-18.20689655172414" type="line"/>
      <point x="440.5517241379311" y="557.5862068965517" type="line"/>
      <point x="528.8275862068965" y="557.5862068965517" type="line"/>
      <point x="494.6206896551724" y="622.0" type="line"/>
      <point x="434.44827586206895" y="622.0" type="line"/>
      <point x="427.5862068965517" y="672.448275862069" type="line"/>
      <point x="374.3103448275862" y="707.3103448275862" type="line"/>
      <point x="368.448275862069" y="705.0689655172414" type="line"/>
      <point x="368.448275862069" y="90.93103448275862" type="line"/>
      <point x="382.17241379310343" y="94.44827586206895" type="line"/>
      <point x="348.1724137931035" y="196.24137931034483"/>
      <point x="277.3103448275862" y="259.6551724137931"/>
      <point x="207.79310344827584" y="288.7931034482759" type="curve"/>
      <point x="213.8965517241379" y="268.2068965517241" type="line"/>
      <point x="291.37931034482756" y="290.0689655172414"/>
      <point x="331.27586206896547" y="343.41379310344826"/>
      <point x="331.27586206896547" y="433.6896551724138" type="curve" smooth="yes"/>
      <point x="331.27586206896547" y="531.6206896551724"/>
      <point x="275.72413793103453" y="591.9655172413793"/>
      <point x="227.89655172413794" y="627.9655172413793" type="curve"/>
      <point x="198.0344827586207" y="551.4137931034483"/>
      <point x="158.55172413793102" y="501.1034482758621"/>
      <point x="111.3793103448276" y="501.1034482758621" type="curve" smooth="yes"/>
      <point x="102.3793103448276" y="501.1034482758621"/>
      <point x="88.37931034482759" y="502.8620689655172"/>
      <point x="82.75862068965517" y="506.8620689655172" type="curve"/>
      <point x="122.20689655172414" y="474.7586206896552" type="line"/>
      <point x="138.06896551724137" y="491.37931034482756"/>
      <point x="143.68965517241378" y="507.0"/>
      <point x="143.68965517241378" y="533.8620689655172" type="curve" smooth="yes"/>
      <point x="143.68965517241378" y="569.4827586206897"/>
      <point x="123.06896551724138" y="598.8275862068965"/>
      <point x="80.48275862068967" y="598.8275862068965" type="curve" smooth="yes"/>
      <point x="37.896551724137936" y="598.8275862068965"/>
      <point x="10.793103448275861" y="569.1034482758621"/>
      <point x="10.793103448275861" y="521.6206896551724" type="curve" smooth="yes"/>
      <point x="10.793103448275861" y="452.41379310344826"/>
      <point x="59.275862068965516" y="416.44827586206895"/>
      <point x="112.58620689655173" y="416.44827586206895" type="curve" smooth="yes"/>
      <point x="169.96551724137933" y="416.44827586206895"/>
      <point x="227.0344827586207" y="451.7241379310345"/>
      <point x="266.3793103448276" y="536.6896551724138" type="curve"/>
      <point x="231.79310344827587" y="534.5517241379309" type="line"/>
      <point x="248.41379310344828" y="516.0344827586206"/>
      <point x="262.65517241379314" y="493.0344827586207"/>
      <point x="262.65517241379314" y="457.27586206896547" type="curve" smooth="yes"/>
      <point x="262.65517241379314" y="376.72413793103453"/>
      <point x="190.75862068965517" y="347.86206896551727"/>
      <point x="90.24137931034483" y="344.72413793103453" type="curve"/>
      <point x="131.31034482758622" y="217.24137931034483" type="line"/>
      <point x="239.75862068965515" y="199.6206896551724"/>
      <point x="325.06896551724134" y="131.20689655172413"/>
      <point x="381.2758620689655" y="19.655172413793103" type="curve"/>
    </contour>
  </outline>
</glyph>
<glyph name="ga-beng" format="2">
  <advance width="497.68965517241384"/>
  <unicode hex="0997"/>
  <anchor x="427.5172413793103" y="66.44827586206897" name="bottom"/>
  <anchor x="438.75862068965523" y="-10.448275862068966" name="bottom.rakaar"/>
  <anchor x="438.75862068965523" y="-2.6206896551724137" name="bottom.rvocalic"/>
  <anchor x="407.96551724137936" y="7.241379310344827" name="bottom.virama"/>
  <anchor x="413.48275862068965" y="568.0689655172414" name="top"/>
  <anchor x="400.9655172413793" y="559.448275862069" name="topright"/>
  <anchor x="248.34482758620686" y="0.0" name="vedic"/>
  <outline>
    <contour>
      <point x="432.2758620689655" y="-31.20689655172414" type="line"/>
      <point x="438.75862068965523" y="-29.586206896551722" type="line"/>
      <point x="438.75862068965523" y="557.5862068965517" type="line"/>
      <point x="526.4137931034483" y="557.5862068965517" type="line"/>
      <point x="492.2068965517241" y="622.0" type="line"/>
      <point x="432.03448275862064" y="622.0" type="line"/>
      <point x="425.17241379310343" y="672.448275862069" type="line"/>
      <point x="373.1379310344828" y="707.3103448275862" type="line"/>
      <point x="367.2758620689655" y="705.0689655172414" type="line"/>
      <point x="367.2758620689655" y="586.8620689655172" type="line" smooth="yes"/>
      <point x="367.2758620689655" y="527.7586206896551"/>
      <point x="370.51724137931035" y="477.2068965517241"/>
      <point x="374.8965517241379" y="431.8965517241379" type="curve"/>
      <point x="384.3793103448276" y="428.7931034482759" type="line"/>
      <point x="338.62068965517244" y="571.1379310344827"/>
      <point x="268.55172413793105" y="632.1034482758621"/>
      <point x="187.6206896551724" y="632.1034482758621" type="curve" smooth="yes"/>
      <point x="112.0689655172414" y="632.1034482758621"/>
      <point x="37.62068965517241" y="571.0344827586207"/>
      <point x="-2.724137931034483" y="431.0344827586207" type="curve"/>
      <point x="95.3103448275862" y="362.8965517241379" type="line"/>
      <point x="112.79310344827586" y="392.1379310344828"/>
      <point x="143.75862068965517" y="413.2413793103448"/>
      <point x="173.6206896551724" y="413.2413793103448" type="curve" smooth="yes"/>
      <point x="203.24137931034483" y="413.2413793103448"/>
      <point x="218.62068965517244" y="394.72413793103453"/>
      <point x="218.62068965517244" y="366.9655172413793" type="curve" smooth="yes"/>
      <point x="218.62068965517244" y="320.448275862069"/>
      <point x="173.6206896551724" y="286.06896551724134"/>
      <point x="98.3103448275862" y="254.31034482758622" type="curve"/>
      <point x="159.10344827586206" y="150.06896551724137" type="line"/>
      <point x="263.7241379310345" y="207.44827586206895"/>
      <point x="298.7241379310345" y="274.37931034482756"/>
      <point x="298.7241379310345" y="349.58620689655174" type="curve" smooth="yes"/>
      <point x="298.7241379310345" y="420.9310344827586"/>
      <point x="258.0" y="476.0344827586207"/>
      <point x="190.79310344827587" y="476.0344827586207" type="curve" smooth="yes"/>
      <point x="154.44827586206895" y="476.0344827586207"/>
      <point x="124.20689655172414" y="462.41379310344826"/>
      <point x="104.86206896551725" y="441.55172413793105" type="curve"/>
      <point x="118.72413793103449" y="430.9655172413793" type="line"/>
      <point x="129.86206896551724" y="500.9310344827586"/>
      <point x="171.24137931034483" y="543.1034482758621"/>
      <point x="217.31034482758622" y="543.1034482758621" type="curve" smooth="yes"/>
      <point x="269.7931034482759" y="543.1034482758621"/>
      <point x="324.8965517241379" y="490.7586206896552"/>
      <point x="373.89655172413796" y="336.2758620689655" type="curve"/>
      <point x="366.0344827586207" y="410.0689655172414" type="line"/>
      <point x="366.0344827586207" y="1.7586206896551724" type="line"/>
    </contour>
  </outline>
</glyph>
<glyph name="gha-beng" format="2">
  <advance width="432.6206896551724"/>
  <unicode hex="0998"/>
  <anchor x="369.0689655172414" y="32.48275862068966" name="bottom"/>
  <anchor x="368.9310344827586" y="80.55172413793103" name="bottom.rakaar"/>
  <anchor x="373.06896551724134" y="7.379310344827585" name="bottom.rvocalic"/>
  <anchor x="359.7241379310345" y="4.137931034482758" name="bottom.virama"/>
  <anchor x="351.8965517241379" y="578.0689655172414" name="top"/>
  <anchor x="353.2758620689655" y="570.6206896551724" name="topright"/>
  <anchor x="215.99999999999997" y="0.0" name="vedic"/>
  <outline>
    <contour>
      <point x="365.2068965517241" y="-19.82758620689655" type="line"/>
      <point x="373.06896551724134" y="-18.20689655172414" type="line"/>
      <point x="373.06896551724134" y="557.5862068965517" type="line"/>
      <point x="460.7241379310345" y="557.5862068965517" type="line"/>
      <point x="426.51724137931035" y="622.0" type="line"/>
      <point x="-28.724137931034484" y="622.0" type="line"/>
      <point x="5.482758620689655" y="557.5862068965517" type="line"/>
      <point x="300.3448275862069" y="557.5862068965517" type="line"/>
      <point x="300.3448275862069" y="88.55172413793103" type="line"/>
      <point x="316.44827586206895" y="86.41379310344827" type="line"/>
      <point x="282.82758620689657" y="201.0"/>
      <point x="201.27586206896552" y="271.7931034482758"/>
      <point x="123.10344827586206" y="299.9310344827586" type="curve"/>
      <point x="122.24137931034483" y="274.6551724137931" type="line"/>
      <point x="169.41379310344828" y="313.58620689655174"/>
      <point x="225.9310344827586" y="347.48275862068965"/>
      <point x="278.55172413793105" y="377.3793103448276" type="curve"/>
      <point x="233.86206896551724" y="468.13793103448273" type="line"/>
      <point x="214.3448275862069" y="449.1034482758621"/>
      <point x="197.44827586206895" y="441.1034482758621"/>
      <point x="176.20689655172413" y="441.1034482758621" type="curve" smooth="yes"/>
      <point x="146.44827586206895" y="441.1034482758621"/>
      <point x="124.31034482758619" y="461.2413793103448"/>
      <point x="124.31034482758619" y="494.51724137931035" type="curve" smooth="yes"/>
      <point x="124.31034482758619" y="533.3103448275863"/>
      <point x="149.3448275862069" y="557.5862068965517"/>
      <point x="197.0344827586207" y="568.2068965517242" type="curve"/>
      <point x="103.24137931034483" y="605.8275862068965" type="line"/>
      <point x="58.724137931034484" y="595.4827586206897"/>
      <point x="17.275862068965516" y="563.1034482758621"/>
      <point x="17.275862068965516" y="503.0344827586207" type="curve" smooth="yes"/>
      <point x="17.275862068965516" y="432.44827586206895"/>
      <point x="74.9655172413793" y="400.7931034482758"/>
      <point x="129.3448275862069" y="395.2758620689655" type="curve"/>
      <point x="130.6896551724138" y="408.6206896551724" type="line"/>
      <point x="92.58620689655173" y="388.2413793103448"/>
      <point x="56.48275862068965" y="365.48275862068965"/>
      <point x="21.758620689655174" y="339.2413793103448" type="curve"/>
      <point x="77.6896551724138" y="215.75862068965517" type="line"/>
      <point x="180.3103448275862" y="188.72413793103448"/>
      <point x="261.1034482758621" y="125.9310344827586"/>
      <point x="314.55172413793105" y="15.137931034482758" type="curve"/>
    </contour>
  </outline>
</glyph>
<glyph name="nga-beng" format="2">
  <advance width="479.00000000000006"/>
  <unicode hex="0999"/>
  <anchor x="334.55172413793105" y="11.586206896551724" name="bottom"/>
  <anchor x="429.82758620689657" y="-13.172413793103448" name="bottom.rakaar"/>
  <anchor x="352.0344827586207" y="-1.724137931034482" name="bottom.rvocalic"/>
  <anchor x="322.2758620689655" y="0.0" name="bottom.virama"/>
  <anchor x="292.3103448275862" y="577.448275862069" name="top"/>
  <anchor x="286.2758620689655" y="570.6206896551724" name="topright"/>
  <anchor x="239.00000000000003" y="0.0" name="vedic"/>
  <outline>
    <contour>
      <point x="290.1034482758621" y="16.75862068965517" type="curve" smooth="yes"/>
      <point x="408.96551724137936" y="16.75862068965517"/>
      <point x="468.10344827586215" y="106.75862068965517"/>
      <point x="468.10344827586215" y="244.72413793103448" type="curve" smooth="yes"/>
      <point x="468.10344827586215" y="329.3103448275862"/>
      <point x="433.2758620689655" y="398.0344827586207"/>
      <point x="397.0" y="444.0689655172414" type="curve"/>
      <point x="363.44827586206895" y="364.7241379310345"/>
      <point x="307.48275862068965" y="314.0689655172414"/>
      <point x="267.2068965517241" y="314.0689655172414" type="curve" smooth="yes"/>
      <point x="251.2068965517241" y="314.0689655172414"/>
      <point x="240.58620689655174" y="323.68965517241384"/>
      <point x="240.58620689655174" y="343.55172413793105" type="curve" smooth="yes"/>
      <point x="240.58620689655174" y="463.86206896551727" type="line" smooth="yes"/>
      <point x="240.58620689655174" y="528.7931034482758"/>
      <point x="254.9655172413793" y="570.0689655172414"/>
      <point x="286.7241379310345" y="570.0689655172414" type="curve" smooth="yes"/>
      <point x="306.8620689655172" y="570.0689655172414"/>
      <point x="319.62068965517244" y="554.551724137931"/>
      <point x="319.62068965517244" y="527.4137931034483" type="curve" smooth="yes"/>
      <point x="319.62068965517244" y="500.0344827586207"/>
      <point x="304.8965517241379" y="472.89655172413796"/>
      <point x="266.3793103448276" y="472.89655172413796" type="curve" smooth="yes"/>
      <point x="192.13793103448276" y="472.89655172413796"/>
      <point x="163.41379310344826" y="520.896551724138"/>
      <point x="125.06896551724137" y="622.1034482758621" type="curve"/>
      <point x="82.24137931034483" y="603.2413793103449" type="line"/>
      <point x="123.58620689655173" y="488.41379310344826"/>
      <point x="167.41379310344828" y="405.2068965517242"/>
      <point x="268.86206896551727" y="405.2068965517242" type="curve" smooth="yes"/>
      <point x="345.9655172413793" y="405.2068965517242"/>
      <point x="381.27586206896547" y="462.9655172413793"/>
      <point x="381.2758620689655" y="518.8965517241379" type="curve" smooth="yes"/>
      <point x="381.27586206896547" y="583.3793103448276"/>
      <point x="349.41379310344826" y="633.2413793103449"/>
      <point x="283.1034482758621" y="633.2413793103449" type="curve" smooth="yes"/>
      <point x="214.0344827586207" y="633.2413793103449"/>
      <point x="170.96551724137933" y="573.2758620689655"/>
      <point x="170.96551724137933" y="476.9310344827586" type="curve" smooth="yes"/>
      <point x="170.96551724137933" y="334.86206896551727" type="line" smooth="yes"/>
      <point x="170.96551724137933" y="293.2758620689655"/>
      <point x="188.44827586206895" y="264.9310344827586"/>
      <point x="204.9310344827586" y="248.44827586206895" type="curve" smooth="yes"/>
      <point x="226.0344827586207" y="226.72413793103448"/>
      <point x="252.3793103448276" y="217.72413793103448"/>
      <point x="280.3448275862069" y="217.72413793103448" type="curve" smooth="yes"/>
      <point x="335.9310344827586" y="217.72413793103448"/>
      <point x="400.8620689655172" y="267.44827586206895"/>
      <point x="425.62068965517244" y="330.2068965517242" type="curve"/>
      <point x="388.31034482758616" y="335.3793103448276" type="line"/>
      <point x="402.3103448275863" y="311.13793103448273"/>
      <point x="412.55172413793105" y="280.8965517241379"/>
      <point x="412.55172413793105" y="247.75862068965515" type="curve" smooth="yes"/>
      <point x="412.55172413793105" y="167.9655172413793"/>
      <point x="363.31034482758616" y="124.10344827586206"/>
      <point x="284.8620689655172" y="124.10344827586206" type="curve" smooth="yes"/>
      <point x="162.41379310344828" y="124.10344827586206"/>
      <point x="105.6551724137931" y="226.86206896551724"/>
      <point x="58.55172413793104" y="493.2413793103448" type="curve"/>
      <point x="11.620689655172415" y="482.5172413793103" type="line"/>
      <point x="55.103448275862064" y="164.55172413793102"/>
      <point x="131.58620689655174" y="16.75862068965517"/>
    </contour>
  </outline>
</glyph>
<glyph name="ca-beng" format="2">
  <advance width="404.0344827586207"/>
  <unicode hex="099A"/>
  <anchor x="280.0689655172414" y="15.724137931034482" name="bottom"/>
  <anchor x="339.7241379310345" y="0.0" name="bottom.rakaar"/>
  <anchor x="290.03448275862064" y="11.72413793103448" name="bottom.rvocalic"/>
  <anchor x="223.99999999999997" y="30.413793103448278" name="bottom.virama"/>
  <anchor x="111.72413793103449" y="578.0689655172414" name="top"/>
  <anchor x="112.72413793103446" y="570.6206896551724" name="topright"/>
  <anchor x="201.51724137931035" y="0.0" name="vedic"/>
  <outline>
    <contour>
      <point x="183.27586206896552" y="15.482758620689655" type="curve" smooth="yes"/>
      <point x="312.03448275862064" y="15.482758620689655"/>
      <point x="378.0" y="202.20689655172413"/>
      <point x="378.0" y="311.44827586206895" type="curve" smooth="yes"/>
      <point x="378.0" y="362.0"/>
      <point x="337.44827586206895" y="397.2068965517241"/>
      <point x="312.8620689655172" y="410.44827586206895" type="curve"/>
      <point x="246.89655172413794" y="416.9655172413793"/>
      <point x="171.75862068965517" y="454.2413793103448"/>
      <point x="127.6551724137931" y="557.4137931034483" type="curve"/>
      <point x="126.03448275862068" y="479.58620689655174" type="line"/>
      <point x="152.89655172413794" y="388.7241379310345"/>
      <point x="218.13793103448276" y="323.7586206896552"/>
      <point x="312.72413793103453" y="314.2413793103448" type="curve"/>
      <point x="280.68965517241384" y="347.8965517241379" type="line"/>
      <point x="273.448275862069" y="201.55172413793105"/>
      <point x="216.20689655172413" y="99.20689655172414"/>
      <point x="166.79310344827587" y="99.20689655172414" type="curve" smooth="yes"/>
      <point x="146.0344827586207" y="99.20689655172414"/>
      <point x="132.27586206896552" y="112.58620689655172"/>
      <point x="132.27586206896552" y="143.6206896551724" type="curve" smooth="yes"/>
      <point x="132.27586206896552" y="557.5862068965517" type="line"/>
      <point x="432.75862068965523" y="557.5862068965517" type="line"/>
      <point x="399.17241379310343" y="622.0" type="line"/>
      <point x="-28.724137931034484" y="622.0" type="line"/>
      <point x="7.103448275862069" y="557.5862068965517" type="line"/>
      <point x="59.55172413793103" y="557.5862068965517" type="line"/>
      <point x="59.55172413793103" y="139.89655172413794" type="line" smooth="yes"/>
      <point x="59.55172413793103" y="62.068965517241374"/>
      <point x="117.96551724137932" y="15.482758620689655"/>
    </contour>
  </outline>
</glyph>
<glyph name="cha-beng" format="2">
  <advance width="449.7241379310345"/>
  <unicode hex="099B"/>
  <anchor x="269.0689655172414" y="27.413793103448278" name="bottom"/>
  <anchor x="368.6206896551724" y="-116.62068965517241" name="bottom.rakaar"/>
  <anchor x="333.34482758620686" y="21.206896551724135" name="bottom.rvocalic"/>
  <anchor x="261.7931034482759" y="25.551724137931032" name="bottom.virama"/>
  <anchor x="92.3103448275862" y="578.0689655172414" name="top"/>
  <anchor x="93.3103448275862" y="570.6206896551724" name="topright"/>
  <anchor x="224.86206896551724" y="0.0" name="vedic"/>
  <outline>
    <contour>
      <point x="423.1034482758621" y="-117.51724137931035" type="curve"/>
      <point x="454.3103448275862" y="-79.55172413793105" type="line"/>
      <point x="377.13793103448273" y="11.75862068965517"/>
      <point x="280.7241379310345" y="105.37931034482759"/>
      <point x="186.41379310344828" y="132.0" type="curve"/>
      <point x="148.79310344827587" y="103.79310344827586" type="line"/>
      <point x="164.9310344827586" y="94.55172413793103"/>
      <point x="188.79310344827587" y="92.31034482758619"/>
      <point x="213.27586206896552" y="92.31034482758619" type="curve" smooth="yes"/>
      <point x="330.0689655172414" y="92.31034482758619"/>
      <point x="415.51724137931035" y="163.34482758620692"/>
      <point x="415.51724137931035" y="298.7241379310345" type="curve" smooth="yes"/>
      <point x="415.51724137931035" y="418.2413793103448"/>
      <point x="334.7586206896552" y="490.13793103448273"/>
      <point x="239.1034482758621" y="490.13793103448273" type="curve" smooth="yes"/>
      <point x="183.58620689655174" y="490.13793103448273"/>
      <point x="132.8965517241379" y="507.8965517241379"/>
      <point x="108.75862068965517" y="558.2068965517242" type="curve"/>
      <point x="105.13793103448275" y="511.7241379310345" type="line"/>
      <point x="129.3793103448276" y="452.48275862068965"/>
      <point x="177.86206896551724" y="419.6896551724138"/>
      <point x="218.51724137931032" y="415.58620689655174" type="curve"/>
      <point x="197.6551724137931" y="453.7931034482759" type="line"/>
      <point x="193.79310344827587" y="366.0"/>
      <point x="168.0344827586207" y="304.7586206896552"/>
      <point x="138.65517241379308" y="304.7586206896552" type="curve" smooth="yes"/>
      <point x="123.13793103448276" y="304.7586206896552"/>
      <point x="113.75862068965517" y="316.2758620689655"/>
      <point x="113.75862068965517" y="335.7931034482759" type="curve" smooth="yes"/>
      <point x="113.75862068965517" y="557.5862068965517" type="line"/>
      <point x="478.448275862069" y="557.5862068965517" type="line"/>
      <point x="442.62068965517244" y="622.0" type="line"/>
      <point x="-28.724137931034484" y="622.0" type="line"/>
      <point x="5.482758620689655" y="557.5862068965517" type="line"/>
      <point x="42.89655172413793" y="557.5862068965517" type="line"/>
      <point x="42.89655172413793" y="335.55172413793105" type="line" smooth="yes"/>
      <point x="42.89655172413793" y="278.58620689655174"/>
      <point x="91.31034482758622" y="227.86206896551724"/>
      <point x="156.62068965517244" y="227.86206896551724" type="curve" smooth="yes"/>
      <point x="227.89655172413796" y="227.86206896551724"/>
      <point x="280.7586206896552" y="289.31034482758616"/>
      <point x="294.13793103448273" y="452.7241379310345" type="curve"/>
      <point x="259.551724137931" y="425.7241379310345" type="line"/>
      <point x="298.6551724137931" y="425.34482758620686"/>
      <point x="338.41379310344826" y="397.7241379310345"/>
      <point x="338.41379310344826" y="316.31034482758616" type="curve" smooth="yes"/>
      <point x="338.41379310344826" y="220.44827586206898"/>
      <point x="274.7241379310345" y="180.68965517241378"/>
      <point x="185.89655172413794" y="180.68965517241378" type="curve" smooth="yes"/>
      <point x="136.31034482758622" y="180.68965517241378"/>
      <point x="95.9655172413793" y="191.55172413793105"/>
      <point x="64.75862068965517" y="212.51724137931035" type="curve"/>
      <point x="90.96551724137932" y="86.48275862068967" type="line"/>
      <point x="198.72413793103448" y="60.241379310344826"/>
      <point x="295.7241379310345" y="9.448275862068968"/>
    </contour>
  </outline>
</glyph>
<glyph name="ja-beng" format="2">
  <advance width="646.6896551724138"/>
  <unicode hex="099C"/>
  <anchor x="574.103448275862" y="72.72413793103449" name="bottom"/>
  <anchor x="585.1034482758621" y="62.55172413793104" name="bottom.rakaar"/>
  <anchor x="585.3448275862069" y="-12.689655172413794" name="bottom.rvocalic"/>
  <anchor x="572.1034482758621" y="-16.137931034482758" name="bottom.virama"/>
  <anchor x="351.41379310344826" y="577.448275862069" name="top"/>
  <anchor x="352.4137931034483" y="570.6206896551724" name="topright"/>
  <anchor x="323.0344827586207" y="0.0" name="vedic"/>
  <outline>
    <contour>
      <point x="282.0689655172414" y="17.275862068965512" type="curve" smooth="yes"/>
      <point x="397.72413793103453" y="17.275862068965512"/>
      <point x="445.6896551724138" y="106.10344827586206"/>
      <point x="445.6896551724138" y="225.0344827586207" type="curve" smooth="yes"/>
      <point x="445.6896551724138" y="310.6896551724138"/>
      <point x="410.2758620689656" y="376.7586206896552"/>
      <point x="371.37931034482756" y="421.41379310344826" type="curve"/>
      <point x="339.58620689655174" y="361.17241379310343"/>
      <point x="302.58620689655174" y="325.6551724137931"/>
      <point x="268.551724137931" y="325.6551724137931" type="curve" smooth="yes"/>
      <point x="242.65517241379314" y="325.6551724137931"/>
      <point x="223.51724137931038" y="345.17241379310343"/>
      <point x="223.51724137931038" y="380.8275862068965" type="curve" smooth="yes"/>
      <point x="223.51724137931038" y="443.86206896551727"/>
      <point x="302.58620689655174" y="512.8275862068965"/>
      <point x="390.06896551724134" y="557.5862068965517" type="curve"/>
      <point x="675.4137931034483" y="557.5862068965517" type="line"/>
      <point x="641.2068965517242" y="622.0" type="line"/>
      <point x="-28.724137931034484" y="622.0" type="line"/>
      <point x="5.482758620689655" y="557.5862068965517" type="line"/>
      <point x="276.93103448275866" y="557.5862068965517" type="line"/>
      <point x="258.3793103448276" y="581.7586206896551" type="line"/>
      <point x="211.9310344827586" y="549.5862068965517"/>
      <point x="145.41379310344828" y="475.8620689655172"/>
      <point x="145.41379310344828" y="392.7241379310345" type="curve" smooth="yes"/>
      <point x="145.41379310344828" y="294.2758620689655"/>
      <point x="208.72413793103448" y="227.06896551724137"/>
      <point x="277.9310344827586" y="227.06896551724137" type="curve" smooth="yes"/>
      <point x="330.9310344827586" y="227.06896551724137"/>
      <point x="379.8965517241379" y="267.2068965517241"/>
      <point x="412.9655172413793" y="326.41379310344826" type="curve"/>
      <point x="368.6551724137931" y="323.3793103448276" type="line"/>
      <point x="382.51724137931035" y="301.13793103448273"/>
      <point x="392.7586206896552" y="272.8965517241379"/>
      <point x="392.7586206896552" y="237.75862068965517" type="curve" smooth="yes"/>
      <point x="392.7586206896552" y="169.24137931034483"/>
      <point x="351.7931034482759" y="126.24137931034483"/>
      <point x="279.6896551724138" y="126.24137931034483" type="curve" smooth="yes"/>
      <point x="166.75862068965517" y="126.24137931034483"/>
      <point x="95.41379310344827" y="231.58620689655174"/>
      <point x="63.931034482758626" y="482.2758620689655" type="curve"/>
      <point x="13.758620689655174" y="473.7931034482759" type="line"/>
      <point x="48.62068965517241" y="154.0689655172414"/>
      <point x="135.82758620689657" y="17.275862068965512"/>
    </contour>
    <contour>
      <point x="540.5172413793103" y="-39.03448275862069" type="curve"/>
      <point x="585.3448275862069" y="-23.310344827586206" type="line"/>
      <point x="565.8620689655173" y="44.13793103448276"/>
      <point x="558.7241379310344" y="97.93103448275862"/>
      <point x="558.7241379310344" y="159.79310344827587" type="curve" smooth="yes"/>
      <point x="558.7241379310344" y="247.6206896551724"/>
      <point x="580.3103448275862" y="329.7241379310345"/>
      <point x="624.7931034482758" y="386.0689655172414" type="curve"/>
      <point x="570.7586206896551" y="467.1034482758621" type="line"/>
      <point x="474.06896551724145" y="463.0344827586207"/>
      <point x="415.7241379310344" y="498.2413793103448"/>
      <point x="386.2068965517241" y="592.3103448275862" type="curve"/>
      <point x="345.51724137931035" y="553.9310344827586" type="line"/>
      <point x="379.0344827586207" y="431.3793103448276"/>
      <point x="466.44827586206895" y="381.0344827586207"/>
      <point x="542.2758620689655" y="367.2758620689655" type="curve"/>
      <point x="525.6896551724138" y="405.8275862068965" type="line"/>
      <point x="500.58620689655174" y="340.1034482758621"/>
      <point x="489.5862068965517" y="275.34482758620686"/>
      <point x="489.5862068965517" y="199.75862068965517" type="curve" smooth="yes"/>
      <point x="489.5862068965517" y="110.58620689655172"/>
      <point x="512.4137931034483" y="31.482758620689655"/>
    </contour>
  </outline>
</glyph>
<glyph name="jha-beng" format="2">
  <advance width="552.8275862068965"/>
  <unicode hex="099D"/>
  <anchor x="359.7586206896552" y="32.48275862068966" name="bottom"/>
  <anchor x="359.6206896551724" y="80.55172413793103" name="bottom.rakaar"/>
  <anchor x="363.7586206896552" y="7.379310344827586" name="bottom.rvocalic"/>
  <anchor x="350.41379310344826" y="14.689655172413794" name="bottom.virama"/>
  <anchor x="342.58620689655174" y="578.0689655172414" name="top"/>
  <anchor x="389.2068965517241" y="578.0689655172414" name="topleft"/>
  <anchor x="343.9655172413793" y="570.6206896551724" name="topright"/>
  <anchor x="276.1034482758621" y="0.0" name="vedic"/>
  <outline>
    <contour>
      <point x="355.8965517241379" y="-19.82758620689655" type="line"/>
      <point x="363.7586206896552" y="-18.20689655172414" type="line"/>
      <point x="363.7586206896552" y="622.0" type="line"/>
      <point x="-28.724137931034484" y="622.0" type="line"/>
      <point x="5.482758620689655" y="557.5862068965517" type="line"/>
      <point x="291.03448275862064" y="557.5862068965517" type="line"/>
      <point x="291.03448275862064" y="480.7586206896552" type="line"/>
      <point x="299.51724137931035" y="518.1379310344827" type="line"/>
      <point x="196.06896551724137" y="474.86206896551727"/>
      <point x="92.82758620689654" y="415.13793103448273"/>
      <point x="6.931034482758619" y="345.1034482758621" type="curve"/>
      <point x="68.37931034482759" y="214.51724137931035" type="line"/>
      <point x="170.3793103448276" y="187.48275862068965"/>
      <point x="251.79310344827587" y="125.9310344827586"/>
      <point x="305.2413793103448" y="15.13793103448276" type="curve"/>
    </contour>
    <contour>
      <point x="291.03448275862064" y="88.55172413793105" type="line"/>
      <point x="307.13793103448273" y="86.41379310344827" type="line"/>
      <point x="273.51724137931035" y="201.0"/>
      <point x="191.9655172413793" y="269.93103448275866"/>
      <point x="113.79310344827587" y="298.6896551724138" type="curve"/>
      <point x="118.55172413793105" y="281.2068965517241" type="line"/>
      <point x="172.58620689655172" y="333.1379310344828"/>
      <point x="246.3448275862069" y="370.7931034482759"/>
      <point x="303.37931034482756" y="398.2068965517241" type="curve"/>
      <point x="291.03448275862064" y="433.3793103448276" type="line"/>
    </contour>
    <contour>
      <point x="486.0344827586207" y="69.62068965517241" type="line"/>
      <point x="493.89655172413796" y="71.24137931034483" type="line"/>
      <point x="493.89655172413796" y="557.5862068965517" type="line"/>
      <point x="581.551724137931" y="557.5862068965517" type="line"/>
      <point x="547.3448275862069" y="622.0" type="line"/>
      <point x="487.1724137931034" y="622.0" type="line"/>
      <point x="480.31034482758616" y="672.448275862069" type="line"/>
      <point x="428.2758620689656" y="707.3103448275862" type="line"/>
      <point x="422.41379310344826" y="705.0689655172414" type="line"/>
      <point x="422.41379310344826" y="178.6206896551724" type="line"/>
      <point x="438.51724137931035" y="175.86206896551724" type="line"/>
      <point x="417.65517241379314" y="246.7586206896552"/>
      <point x="378.41379310344826" y="299.4137931034483"/>
      <point x="332.7931034482759" y="336.3103448275862" type="curve"/>
      <point x="325.44827586206895" y="244.17241379310343" type="line"/>
      <point x="370.551724137931" y="210.89655172413794"/>
      <point x="407.5172413793103" y="165.24137931034483"/>
      <point x="436.6206896551724" y="104.58620689655172" type="curve"/>
    </contour>
  </outline>
</glyph>
<glyph name="nya-beng" format="2">
  <advance width="749.3793103448277"/>
  <unicode hex="099E"/>
  <anchor x="468.44827586206895" y="29.379310344827587" name="bottom"/>
  <anchor x="468.9310344827586" y="77.44827586206897" name="bottom.rakaar"/>
  <anchor x="472.448275862069" y="4.275862068965516" name="bottom.rvocalic"/>
  <anchor x="459.1034482758621" y="7.862068965517242" name="bottom.virama"/>
  <anchor x="380.1034482758621" y="577.448275862069" name="top"/>
  <anchor x="380.8620689655172" y="570.6206896551724" name="topright"/>
  <anchor x="374.68965517241384" y="0.0" name="vedic"/>
  <outline>
    <contour>
      <point x="597.0344827586207" y="36.58620689655172" type="curve" smooth="yes"/>
      <point x="670.5862068965517" y="36.58620689655172"/>
      <point x="708.0689655172414" y="105.44827586206897"/>
      <point x="708.0689655172414" y="190.58620689655172" type="curve" smooth="yes"/>
      <point x="708.0689655172414" y="243.0689655172414"/>
      <point x="691.5862068965517" y="298.41379310344826"/>
      <point x="651.3793103448277" y="337.6551724137931" type="curve"/>
      <point x="665.7241379310345" y="292.9310344827586" type="line"/>
      <point x="688.9655172413793" y="323.06896551724134"/>
      <point x="707.0689655172414" y="376.44827586206895"/>
      <point x="707.0689655172414" y="437.27586206896547" type="curve" smooth="yes"/>
      <point x="707.0689655172414" y="524.2413793103448"/>
      <point x="667.7241379310344" y="594.7241379310344"/>
      <point x="603.2758620689655" y="594.7241379310344" type="curve" smooth="yes"/>
      <point x="510.86206896551727" y="594.7241379310344"/>
      <point x="454.48275862068965" y="451.2413793103448"/>
      <point x="447.8620689655172" y="370.27586206896547" type="curve"/>
      <point x="447.8620689655172" y="265.7931034482758" type="line"/>
      <point x="461.7241379310345" y="145.58620689655172"/>
      <point x="517.8620689655172" y="36.58620689655172"/>
    </contour>
    <contour>
      <point x="590.551724137931" y="135.58620689655172" type="curve" smooth="yes"/>
      <point x="533.3103448275863" y="135.58620689655172"/>
      <point x="480.2068965517242" y="216.13793103448276"/>
      <point x="480.2068965517242" y="312.0344827586207" type="curve" smooth="yes"/>
      <point x="480.2068965517242" y="396.8965517241379"/>
      <point x="528.9310344827586" y="503.44827586206895"/>
      <point x="597.4137931034483" y="503.44827586206895" type="curve" smooth="yes"/>
      <point x="623.3103448275862" y="503.44827586206895"/>
      <point x="641.6896551724138" y="485.0689655172414"/>
      <point x="641.6896551724138" y="448.7931034482758" type="curve" smooth="yes"/>
      <point x="641.6896551724138" y="407.2413793103448"/>
      <point x="616.5862068965517" y="373.2413793103448"/>
      <point x="587.9655172413793" y="356.8620689655172" type="curve"/>
      <point x="633.7931034482758" y="347.10344827586204" type="line"/>
      <point x="618.551724137931" y="374.13793103448273"/>
      <point x="599.4137931034483" y="387.10344827586204"/>
      <point x="573.2068965517242" y="387.10344827586204" type="curve" smooth="yes"/>
      <point x="537.8620689655172" y="387.10344827586204"/>
      <point x="514.3793103448276" y="357.37931034482756"/>
      <point x="514.3793103448276" y="314.03448275862064" type="curve" smooth="yes"/>
      <point x="514.3793103448276" y="266.31034482758616"/>
      <point x="541.4827586206897" y="239.20689655172413"/>
      <point x="577.448275862069" y="239.20689655172413" type="curve" smooth="yes"/>
      <point x="609.551724137931" y="239.20689655172413"/>
      <point x="633.2758620689656" y="256.2068965517241"/>
      <point x="653.3793103448277" y="284.8275862068965" type="curve"/>
      <point x="616.3103448275863" y="304.6551724137931" type="line"/>
      <point x="631.3103448275862" y="287.03448275862064"/>
      <point x="651.7931034482758" y="258.13793103448273"/>
      <point x="651.7931034482758" y="217.75862068965517" type="curve" smooth="yes"/>
      <point x="651.7931034482758" y="165.86206896551724"/>
      <point x="628.551724137931" y="135.58620689655172"/>
    </contour>
    <component base="e-beng"/>
  </outline>
</glyph>
<glyph name="tta-beng" format="2">
  <advance width="422.0"/>
  <unicode hex="099F"/>
  <anchor x="286.34482758620686" y="15.724137931034482" name="bottom"/>
  <anchor x="346.0" y="0.0" name="bottom.rakaar"/>
  <anchor x="296.3103448275862" y="11.724137931034482" name="bottom.rvocalic"/>
  <anchor x="230.2758620689655" y="30.413793103448274" name="bottom.virama"/>
  <anchor x="212.41379310344826" y="649.448275862069" name="top"/>
  <anchor x="162.82758620689654" y="641.0344827586207" name="topright"/>
  <anchor x="211.0" y="0.0" name="vedic"/>
  <anchor x="188.41379310344828" y="-89.37931034482759" name="nukta"/>
  <outline>
    <contour>
      <point x="311.17241379310343" y="603.3103448275862" type="curve"/>
      <point x="359.8620689655172" y="603.3103448275862" type="line"/>
      <point x="356.2413793103448" y="744.2068965517242"/>
      <point x="312.7931034482759" y="807.6896551724137"/>
      <point x="231.10344827586206" y="807.6896551724137" type="curve" smooth="yes"/>
      <point x="189.13793103448276" y="807.6896551724137"/>
      <point x="161.17241379310346" y="798.0689655172413"/>
      <point x="119.58620689655172" y="798.0689655172413" type="curve" smooth="yes"/>
      <point x="67.13793103448275" y="798.0689655172413"/>
      <point x="41.51724137931035" y="818.4137931034484"/>
      <point x="41.51724137931035" y="879.6896551724138" type="curve" smooth="yes"/>
      <point x="41.51724137931035" y="893.0689655172414"/>
      <point x="42.517241379310335" y="908.448275862069"/>
      <point x="44.51724137931035" y="920.6896551724137" type="curve"/>
      <point x="2.3103448275862046" y="925.9310344827586" type="line"/>
      <point x="-1.931034482758621" y="903.4482758620691"/>
      <point x="-3.5517241379310356" y="878.3448275862069"/>
      <point x="-3.5517241379310356" y="858.3793103448277" type="curve" smooth="yes"/>
      <point x="-3.5517241379310356" y="758.7586206896552"/>
      <point x="38.03448275862069" y="702.0689655172414"/>
      <point x="125.0689655172414" y="702.0689655172414" type="curve" smooth="yes"/>
      <point x="177.0344827586207" y="702.0689655172414"/>
      <point x="202.86206896551724" y="712.0689655172414"/>
      <point x="240.10344827586204" y="712.0689655172414" type="curve" smooth="yes"/>
      <point x="281.5862068965517" y="712.0689655172414"/>
      <point x="308.3103448275862" y="684.2758620689656"/>
    </contour>
    <component base="ddha-beng"/>
  </outline>
</glyph>
<glyph name="ttha-beng" format="2">
  <advance width="438.0344827586207"/>
  <unicode hex="09A0"/>
  <anchor x="266.41379310344826" y="-18.0" name="bottom"/>
  <anchor x="390.448275862069" y="-32.03448275862069" name="bottom.rakaar"/>
  <anchor x="311.7241379310345" y="-20.482758620689655" name="bottom.rvocalic"/>
  <anchor x="261.96551724137936" y="-7.448275862068966" name="bottom.virama"/>
  <anchor x="356.96551724137936" y="557.0689655172414" name="top"/>
  <anchor x="356.9655172413793" y="598.4827586206898" name="topleft"/>
  <anchor x="267.37931034482756" y="570.6206896551724" name="topright"/>
  <anchor x="218.82758620689657" y="0.0" name="vedic"/>
  <outline>
    <contour>
      <point x="225.41379310344828" y="-16.10344827586207" type="curve" smooth="yes"/>
      <point x="331.9655172413793" y="-16.10344827586207"/>
      <point x="399.7931034482759" y="59.37931034482759"/>
      <point x="399.7931034482759" y="192.3448275862069" type="curve" smooth="yes"/>
      <point x="399.7931034482759" y="319.3793103448276"/>
      <point x="328.7586206896552" y="444.0344827586207"/>
      <point x="249.41379310344828" y="557.5862068965517" type="curve"/>
      <point x="466.7586206896551" y="557.5862068965517" type="line"/>
      <point x="432.93103448275866" y="622.0" type="line"/>
      <point x="199.9655172413793" y="622.0" type="line"/>
      <point x="170.86206896551724" y="658.7586206896551"/>
      <point x="153.58620689655172" y="696.4137931034484"/>
      <point x="153.58620689655172" y="732.6896551724137" type="curve" smooth="yes"/>
      <point x="153.58620689655172" y="770.0689655172414"/>
      <point x="177.6896551724138" y="802.0344827586207"/>
      <point x="213.93103448275863" y="829.3103448275862" type="curve"/>
      <point x="139.93103448275863" y="899.1379310344828" type="line"/>
      <point x="90.20689655172413" y="860.8620689655172"/>
      <point x="65.0" y="814.8965517241379"/>
      <point x="65.0" y="769.7931034482758" type="curve" smooth="yes"/>
      <point x="65.0" y="707.7931034482759"/>
      <point x="97.62068965517241" y="665.3793103448276"/>
      <point x="133.82758620689654" y="622.0" type="curve"/>
      <point x="-28.724137931034484" y="622.0" type="line"/>
      <point x="5.482758620689655" y="557.5862068965517" type="line"/>
      <point x="167.24137931034483" y="557.5862068965517" type="line"/>
      <point x="175.3793103448276" y="527.5517241379309"/>
      <point x="180.75862068965517" y="496.7586206896552"/>
      <point x="180.75862068965517" y="456.62068965517244" type="curve" smooth="yes"/>
      <point x="180.75862068965517" y="344.2413793103448"/>
      <point x="121.86206896551724" y="267.1379310344828"/>
      <point x="18.24137931034483" y="238.24137931034483" type="curve"/>
      <point x="28.89655172413793" y="77.10344827586206"/>
      <point x="104.48275862068965" y="-16.10344827586207"/>
    </contour>
    <contour>
      <point x="208.7241379310345" y="62.27586206896552" type="curve" smooth="yes"/>
      <point x="157.10344827586206" y="62.27586206896552"/>
      <point x="122.44827586206898" y="111.27586206896552"/>
      <point x="120.44827586206898" y="180.86206896551724" type="curve"/>
      <point x="109.82758620689656" y="149.86206896551724" type="line"/>
      <point x="198.44827586206895" y="182.24137931034483"/>
      <point x="244.79310344827587" y="265.2758620689655"/>
      <point x="244.79310344827587" y="368.72413793103453" type="curve" smooth="yes"/>
      <point x="244.79310344827587" y="447.1379310344828"/>
      <point x="229.41379310344826" y="510.0"/>
      <point x="200.20689655172413" y="567.6206896551724" type="curve"/>
      <point x="191.10344827586206" y="567.6206896551724" type="line"/>
      <point x="270.2068965517241" y="450.7931034482759"/>
      <point x="304.58620689655174" y="334.62068965517244"/>
      <point x="304.58620689655174" y="220.3793103448276" type="curve" smooth="yes"/>
      <point x="304.58620689655174" y="116.27586206896552"/>
      <point x="264.34482758620686" y="62.27586206896552"/>
    </contour>
  </outline>
</glyph>
<glyph name="dda-beng" format="2">
  <advance width="480.5862068965517"/>
  <unicode hex="09A1"/>
  <anchor x="347.86206896551727" y="12.275862068965516" name="bottom"/>
  <anchor x="424.17241379310343" y="-7.862068965517242" name="bottom.rakaar"/>
  <anchor x="351.48275862068965" y="19.689655172413794" name="bottom.rvocalic"/>
  <anchor x="316.62068965517244" y="4.689655172413794" name="bottom.virama"/>
  <anchor x="258.2068965517242" y="-90.55172413793103" name="nukta"/>
  <anchor x="224.24137931034483" y="578.0689655172414" name="top"/>
  <anchor x="225.6206896551724" y="570.6206896551724" name="topright"/>
  <anchor x="240.10344827586206" y="0.0" name="vedic"/>
  <outline>
    <contour>
      <point x="279.9655172413793" y="22.068965517241377" type="curve" smooth="yes"/>
      <point x="403.2413793103449" y="22.068965517241377"/>
      <point x="464.3103448275863" y="117.79310344827587"/>
      <point x="464.3103448275863" y="249.58620689655172" type="curve" smooth="yes"/>
      <point x="464.3103448275863" y="352.41379310344826"/>
      <point x="426.58620689655174" y="423.37931034482756"/>
      <point x="379.1034482758621" y="470.86206896551727" type="curve"/>
      <point x="345.17241379310343" y="396.7931034482759"/>
      <point x="301.4137931034483" y="351.1379310344828"/>
      <point x="269.2758620689655" y="351.1379310344828" type="curve" smooth="yes"/>
      <point x="256.2758620689655" y="351.1379310344828"/>
      <point x="244.79310344827584" y="359.8965517241379"/>
      <point x="244.79310344827584" y="380.3793103448276" type="curve" smooth="yes"/>
      <point x="244.79310344827584" y="557.5862068965517" type="line"/>
      <point x="509.3103448275862" y="557.5862068965517" type="line"/>
      <point x="473.48275862068965" y="622.0" type="line"/>
      <point x="-28.724137931034484" y="622.0" type="line"/>
      <point x="6.103448275862069" y="557.5862068965517" type="line"/>
      <point x="172.0689655172414" y="557.5862068965517" type="line"/>
      <point x="172.0689655172414" y="377.13793103448273" type="line" smooth="yes"/>
      <point x="172.0689655172414" y="337.44827586206895"/>
      <point x="180.93103448275863" y="308.48275862068965"/>
      <point x="203.0344827586207" y="285.7586206896551" type="curve" smooth="yes"/>
      <point x="224.37931034482762" y="263.7931034482759"/>
      <point x="248.7241379310345" y="253.31034482758622"/>
      <point x="280.41379310344826" y="253.31034482758622" type="curve" smooth="yes"/>
      <point x="333.7586206896551" y="253.31034482758622"/>
      <point x="389.72413793103453" y="299.9310344827586"/>
      <point x="422.3448275862069" y="370.6551724137931" type="curve"/>
      <point x="376.7586206896552" y="351.2413793103449" type="line"/>
      <point x="394.1379310344828" y="332.6206896551724"/>
      <point x="406.51724137931035" y="304.37931034482756"/>
      <point x="406.51724137931035" y="266.9655172413793" type="curve" smooth="yes"/>
      <point x="406.51724137931035" y="184.6896551724138"/>
      <point x="357.7931034482759" y="131.27586206896552"/>
      <point x="280.58620689655174" y="131.27586206896552" type="curve" smooth="yes"/>
      <point x="148.79310344827587" y="131.27586206896552"/>
      <point x="90.68965517241381" y="248.72413793103448"/>
      <point x="56.931034482758626" y="482.2758620689655" type="curve"/>
      <point x="7.7586206896551735" y="473.7931034482759" type="line"/>
      <point x="41.75862068965517" y="164.20689655172413"/>
      <point x="122.75862068965517" y="22.068965517241377"/>
    </contour>
  </outline>
</glyph>
<glyph name="ddha-beng" format="2">
  <advance width="422.0"/>
  <unicode hex="09A2"/>
  <anchor x="286.34482758620686" y="15.724137931034482" name="bottom"/>
  <anchor x="346.0" y="0.0" name="bottom.rakaar"/>
  <anchor x="296.3103448275862" y="11.724137931034482" name="bottom.rvocalic"/>
  <anchor x="230.2758620689655" y="30.413793103448274" name="bottom.virama"/>
  <anchor x="188.41379310344828" y="-89.37931034482759" name="nukta"/>
  <anchor x="118.00000000000001" y="578.0689655172414" name="top"/>
  <anchor x="118.99999999999999" y="570.6206896551724" name="topright"/>
  <anchor x="211.0" y="0.0" name="vedic"/>
  <outline>
    <contour>
      <point x="184.6551724137931" y="15.482758620689655" type="curve" smooth="yes"/>
      <point x="305.17241379310343" y="15.482758620689655"/>
      <point x="391.48275862068965" y="189.13793103448276"/>
      <point x="391.48275862068965" y="323.3103448275862" type="curve" smooth="yes"/>
      <point x="391.48275862068965" y="418.51724137931035"/>
      <point x="344.41379310344826" y="458.86206896551727"/>
      <point x="292.9655172413793" y="458.86206896551727" type="curve" smooth="yes"/>
      <point x="236.75862068965515" y="458.86206896551727"/>
      <point x="202.9310344827586" y="417.0"/>
      <point x="202.9310344827586" y="364.9310344827586" type="curve" smooth="yes"/>
      <point x="202.9310344827586" y="314.10344827586204"/>
      <point x="232.79310344827587" y="276.0"/>
      <point x="283.3793103448276" y="276.0" type="curve" smooth="yes"/>
      <point x="301.37931034482756" y="276.0"/>
      <point x="320.48275862068965" y="288.62068965517244"/>
      <point x="334.2068965517242" y="307.7241379310345" type="curve"/>
      <point x="295.1724137931035" y="337.3103448275862" type="line"/>
      <point x="289.3103448275862" y="207.72413793103448"/>
      <point x="217.72413793103448" y="99.20689655172413"/>
      <point x="167.17241379310346" y="99.20689655172413" type="curve" smooth="yes"/>
      <point x="144.27586206896552" y="99.20689655172413"/>
      <point x="132.27586206896552" y="113.9655172413793"/>
      <point x="132.27586206896552" y="145.3793103448276" type="curve" smooth="yes"/>
      <point x="132.27586206896552" y="557.5862068965517" type="line"/>
      <point x="450.72413793103453" y="557.5862068965517" type="line"/>
      <point x="417.7586206896551" y="622.0" type="line"/>
      <point x="-28.724137931034484" y="622.0" type="line"/>
      <point x="7.103448275862069" y="557.5862068965517" type="line"/>
      <point x="59.55172413793103" y="557.5862068965517" type="line"/>
      <point x="59.55172413793103" y="140.89655172413794" type="line" smooth="yes"/>
      <point x="59.55172413793103" y="61.310344827586206"/>
      <point x="118.96551724137932" y="15.482758620689655"/>
    </contour>
  </outline>
</glyph>
<glyph name="nna-beng" format="2">
  <advance width="482.17241379310343"/>
  <unicode hex="09A3"/>
  <anchor x="411.3793103448276" y="66.44827586206897" name="bottom"/>
  <anchor x="422.6206896551724" y="-10.448275862068966" name="bottom.rakaar"/>
  <anchor x="422.6206896551724" y="-2.6206896551724137" name="bottom.rvocalic"/>
  <anchor x="391.82758620689657" y="7.241379310344827" name="bottom.virama"/>
  <anchor x="397.9655172413793" y="568.0689655172414" name="top"/>
  <anchor x="384.82758620689657" y="559.448275862069" name="topright"/>
  <anchor x="240.58620689655172" y="0.0" name="vedic"/>
  <outline>
    <contour>
      <point x="416.13793103448273" y="-31.20689655172414" type="line"/>
      <point x="422.6206896551724" y="-29.586206896551722" type="line"/>
      <point x="422.6206896551724" y="557.5862068965517" type="line"/>
      <point x="510.89655172413796" y="557.5862068965517" type="line"/>
      <point x="476.06896551724145" y="622.0" type="line"/>
      <point x="415.89655172413796" y="622.0" type="line"/>
      <point x="409.0344827586207" y="672.448275862069" type="line"/>
      <point x="357.62068965517244" y="707.3103448275862" type="line"/>
      <point x="351.7586206896552" y="705.0689655172414" type="line"/>
      <point x="351.7586206896552" y="564.3103448275862" type="line" smooth="yes"/>
      <point x="351.7586206896552" y="505.20689655172407"/>
      <point x="354.37931034482756" y="444.10344827586204"/>
      <point x="358.7586206896552" y="398.7931034482759" type="curve"/>
      <point x="367.0" y="401.93103448275866" type="line"/>
      <point x="321.58620689655174" y="560.3793103448277"/>
      <point x="253.24137931034483" y="628.2413793103449"/>
      <point x="171.24137931034483" y="628.2413793103449" type="curve" smooth="yes"/>
      <point x="90.0344827586207" y="628.2413793103449"/>
      <point x="27.241379310344826" y="560.3793103448277"/>
      <point x="27.241379310344826" y="444.9655172413793" type="curve" smooth="yes"/>
      <point x="27.241379310344826" y="312.6896551724138"/>
      <point x="112.89655172413794" y="246.20689655172413"/>
      <point x="185.58620689655172" y="246.20689655172413" type="curve" smooth="yes"/>
      <point x="246.27586206896552" y="246.20689655172413"/>
      <point x="279.6206896551724" y="284.55172413793105"/>
      <point x="279.6206896551724" y="341.6206896551724" type="curve" smooth="yes"/>
      <point x="279.6206896551724" y="393.2068965517241"/>
      <point x="248.8965517241379" y="432.41379310344826"/>
      <point x="200.82758620689654" y="432.41379310344826" type="curve" smooth="yes"/>
      <point x="158.86206896551724" y="432.41379310344826"/>
      <point x="130.13793103448276" y="400.3103448275862"/>
      <point x="130.13793103448276" y="353.3448275862069" type="curve" smooth="yes"/>
      <point x="130.13793103448276" y="335.62068965517244"/>
      <point x="134.75862068965517" y="317.3793103448276"/>
      <point x="142.24137931034483" y="307.7586206896552" type="curve"/>
      <point x="178.72413793103448" y="340.3448275862069" type="line"/>
      <point x="169.10344827586206" y="337.10344827586204"/>
      <point x="158.6206896551724" y="334.8620689655172"/>
      <point x="148.75862068965517" y="334.8620689655172" type="curve" smooth="yes"/>
      <point x="121.0" y="334.8620689655172"/>
      <point x="96.62068965517241" y="366.7586206896552"/>
      <point x="96.62068965517241" y="420.37931034482756" type="curve" smooth="yes"/>
      <point x="96.62068965517241" y="482.13793103448273"/>
      <point x="129.86206896551724" y="523.6206896551724"/>
      <point x="190.0689655172414" y="523.6206896551724" type="curve" smooth="yes"/>
      <point x="259.37931034482756" y="523.6206896551724"/>
      <point x="311.13793103448273" y="472.41379310344826"/>
      <point x="358.3793103448276" y="308.7931034482758" type="curve"/>
      <point x="349.8965517241379" y="376.3448275862069" type="line"/>
      <point x="349.8965517241379" y="1.7586206896551724" type="line"/>
    </contour>
  </outline>
</glyph>
<glyph name="ta-beng" format="2">
  <advance width="496.68965517241384"/>
  <unicode hex="09A4"/>
  <anchor x="370.9310344827586" y="21.137931034482758" name="bottom"/>
  <anchor x="441.48275862068965" y="0.3793103448275862" name="bottom.rakaar"/>
  <anchor x="378.9310344827586" y="28.310344827586206" name="bottom.rvocalic"/>
  <anchor x="316.551724137931" y="13.551724137931034" name="bottom.virama"/>
  <anchor x="295.2758620689655" y="578.0689655172414" name="top"/>
  <anchor x="296.6551724137931" y="570.6206896551724" name="topright"/>
  <anchor x="248.34482758620692" y="0.0" name="vedic"/>
  <outline>
    <contour>
      <point x="297.31034482758616" y="30.93103448275862" type="curve" smooth="yes"/>
      <point x="397.1379310344828" y="30.93103448275862"/>
      <point x="480.41379310344826" y="101.6896551724138"/>
      <point x="480.41379310344826" y="258.7241379310345" type="curve" smooth="yes"/>
      <point x="480.41379310344826" y="405.6896551724138"/>
      <point x="407.10344827586204" y="506.13793103448273"/>
      <point x="286.5862068965517" y="506.13793103448273" type="curve" smooth="yes"/>
      <point x="208.79310344827587" y="506.13793103448273"/>
      <point x="163.0689655172414" y="455.9310344827586"/>
      <point x="163.0689655172414" y="380.9655172413793" type="curve" smooth="yes"/>
      <point x="163.0689655172414" y="318.8965517241379"/>
      <point x="200.03448275862073" y="269.6896551724138"/>
      <point x="264.5862068965517" y="269.6896551724138" type="curve" smooth="yes"/>
      <point x="322.51724137931035" y="269.6896551724138"/>
      <point x="354.0" y="314.03448275862064"/>
      <point x="354.0" y="366.2413793103448" type="curve" smooth="yes"/>
      <point x="354.0" y="404.9655172413793"/>
      <point x="335.0344827586207" y="437.44827586206895"/>
      <point x="321.7931034482759" y="453.0689655172414" type="curve"/>
      <point x="288.8275862068965" y="391.44827586206895" type="line"/>
      <point x="298.44827586206895" y="396.6896551724138"/>
      <point x="315.7931034482759" y="402.41379310344826"/>
      <point x="334.51724137931035" y="402.41379310344826" type="curve" smooth="yes"/>
      <point x="382.7586206896552" y="402.41379310344826"/>
      <point x="415.8965517241379" y="366.51724137931035"/>
      <point x="415.8965517241379" y="283.31034482758616" type="curve" smooth="yes"/>
      <point x="415.8965517241379" y="187.48275862068965"/>
      <point x="364.7586206896552" y="140.75862068965517"/>
      <point x="292.0689655172414" y="140.75862068965517" type="curve" smooth="yes"/>
      <point x="179.3793103448276" y="140.75862068965517"/>
      <point x="109.17241379310346" y="227.27586206896552"/>
      <point x="56.310344827586206" y="494.4137931034483" type="curve"/>
      <point x="7.758620689655173" y="483.3103448275862" type="line"/>
      <point x="60.24137931034483" y="158.0"/>
      <point x="145.96551724137933" y="30.93103448275862"/>
    </contour>
    <contour>
      <point x="5.103448275862069" y="557.5862068965517" type="line"/>
      <point x="525.4137931034483" y="557.5862068965517" type="line"/>
      <point x="490.5862068965517" y="622.0" type="line"/>
      <point x="-28.724137931034484" y="622.0" type="line"/>
    </contour>
  </outline>
</glyph>
<glyph name="tha-beng" format="2">
  <advance width="459.62068965517244"/>
  <unicode hex="09A5"/>
  <anchor x="395.6896551724138" y="32.48275862068966" name="bottom"/>
  <anchor x="400.0689655172414" y="80.55172413793103" name="bottom.rakaar"/>
  <anchor x="400.0689655172414" y="10.137931034482758" name="bottom.rvocalic"/>
  <anchor x="383.58620689655174" y="10.96551724137931" name="bottom.virama"/>
  <anchor x="373.55172413793105" y="568.0689655172414" name="top"/>
  <anchor x="361.0344827586207" y="559.448275862069" name="topright"/>
  <anchor x="229.6206896551724" y="0.0" name="vedic"/>
  <outline>
    <contour>
      <point x="393.2068965517241" y="-19.82758620689655" type="line"/>
      <point x="400.0689655172414" y="-18.20689655172414" type="line"/>
      <point x="400.0689655172414" y="557.5862068965517" type="line"/>
      <point x="488.34482758620686" y="557.5862068965517" type="line"/>
      <point x="454.1379310344828" y="622.0" type="line"/>
      <point x="393.9655172413793" y="622.0" type="line"/>
      <point x="387.10344827586204" y="672.448275862069" type="line"/>
      <point x="333.2068965517241" y="707.3103448275862" type="line"/>
      <point x="327.9655172413793" y="705.0689655172414" type="line"/>
      <point x="327.9655172413793" y="90.93103448275862" type="line"/>
      <point x="341.6896551724138" y="94.44827586206895" type="line"/>
      <point x="307.6896551724138" y="196.24137931034483"/>
      <point x="236.20689655172413" y="259.65517241379314"/>
      <point x="167.31034482758622" y="288.7931034482758" type="curve"/>
      <point x="171.55172413793105" y="268.2068965517242" type="line"/>
      <point x="249.6551724137931" y="290.0689655172414"/>
      <point x="290.7931034482759" y="346.2758620689655"/>
      <point x="290.7931034482759" y="442.7931034482759" type="curve" smooth="yes"/>
      <point x="290.7931034482759" y="563.655172413793"/>
      <point x="224.10344827586206" y="626.2413793103449"/>
      <point x="136.55172413793105" y="626.2413793103449" type="curve" smooth="yes"/>
      <point x="68.37931034482759" y="626.2413793103449"/>
      <point x="12.172413793103448" y="570.5172413793103"/>
      <point x="12.172413793103448" y="501.55172413793105" type="curve" smooth="yes"/>
      <point x="12.172413793103448" y="443.7241379310345"/>
      <point x="47.37931034482758" y="413.1034482758621"/>
      <point x="87.86206896551724" y="413.1034482758621" type="curve" smooth="yes"/>
      <point x="130.0689655172414" y="413.1034482758621"/>
      <point x="155.41379310344828" y="440.5862068965517"/>
      <point x="155.41379310344828" y="481.3103448275862" type="curve" smooth="yes"/>
      <point x="155.41379310344828" y="513.0344827586207"/>
      <point x="143.41379310344828" y="532.4137931034483"/>
      <point x="121.79310344827587" y="540.0344827586207" type="curve"/>
      <point x="124.41379310344828" y="513.7241379310345" type="line"/>
      <point x="131.0344827586207" y="534.3448275862069"/>
      <point x="146.27586206896552" y="549.5862068965517"/>
      <point x="167.75862068965517" y="549.5862068965517" type="curve" smooth="yes"/>
      <point x="200.89655172413794" y="549.5862068965517"/>
      <point x="222.79310344827584" y="516.3103448275863"/>
      <point x="222.79310344827584" y="464.0" type="curve" smooth="yes"/>
      <point x="222.79310344827584" y="377.58620689655174"/>
      <point x="150.27586206896552" y="347.86206896551727"/>
      <point x="49.75862068965518" y="344.7241379310345" type="curve"/>
      <point x="90.82758620689654" y="217.24137931034483" type="line"/>
      <point x="199.2758620689655" y="199.6206896551724"/>
      <point x="284.58620689655174" y="131.20689655172413"/>
      <point x="340.7931034482759" y="19.655172413793103" type="curve"/>
    </contour>
  </outline>
</glyph>
<glyph name="da-beng" format="2">
  <advance width="432.7586206896551"/>
  <unicode hex="09A6"/>
  <anchor x="363.6206896551724" y="72.72413793103448" name="bottom"/>
  <anchor x="374.62068965517244" y="62.55172413793103" name="bottom.rakaar"/>
  <anchor x="374.2413793103448" y="-12.689655172413795" name="bottom.rvocalic"/>
  <anchor x="361.62068965517244" y="-16.137931034482758" name="bottom.virama"/>
  <anchor x="107.20689655172413" y="578.0689655172414" name="top"/>
  <anchor x="108.58620689655172" y="570.6206896551724" name="topright"/>
  <anchor x="216.37931034482756" y="0.0" name="vedic"/>
  <outline>
    <contour>
      <point x="329.4137931034483" y="-39.03448275862068" type="curve"/>
      <point x="374.2413793103448" y="-23.310344827586206" type="line"/>
      <point x="355.3793103448276" y="44.13793103448276"/>
      <point x="347.62068965517244" y="97.93103448275862"/>
      <point x="347.62068965517244" y="159.79310344827587" type="curve" smooth="yes"/>
      <point x="347.62068965517244" y="246.3793103448276"/>
      <point x="367.9655172413793" y="330.9655172413793"/>
      <point x="404.5862068965517" y="405.58620689655174" type="curve"/>
      <point x="309.7241379310345" y="490.2413793103448" type="line"/>
      <point x="234.48275862068965" y="432.96551724137936"/>
      <point x="156.75862068965517" y="353.8275862068965"/>
      <point x="106.89655172413794" y="283.0689655172414" type="curve"/>
      <point x="127.13793103448275" y="255.41379310344828" type="line"/>
      <point x="127.13793103448275" y="557.5862068965517" type="line"/>
      <point x="461.48275862068965" y="557.5862068965517" type="line"/>
      <point x="427.2758620689656" y="622.0" type="line"/>
      <point x="-28.724137931034484" y="622.0" type="line"/>
      <point x="6.103448275862069" y="557.5862068965517" type="line"/>
      <point x="54.41379310344828" y="557.5862068965517" type="line"/>
      <point x="54.41379310344828" y="203.79310344827587" type="line"/>
      <point x="125.75862068965516" y="153.31034482758622" type="line"/>
      <point x="194.86206896551724" y="245.9310344827586"/>
      <point x="264.3103448275862" y="325.6551724137931"/>
      <point x="337.89655172413796" y="387.51724137931035" type="curve"/>
      <point x="315.2068965517241" y="405.82758620689657" type="line"/>
      <point x="290.7241379310345" y="340.10344827586204"/>
      <point x="279.1034482758621" y="275.3448275862069"/>
      <point x="279.1034482758621" y="199.75862068965517" type="curve" smooth="yes"/>
      <point x="279.1034482758621" y="110.58620689655172"/>
      <point x="301.3103448275862" y="31.482758620689655"/>
    </contour>
  </outline>
</glyph>
<glyph name="dha-beng" format="2">
  <advance width="432.00000000000006"/>
  <unicode hex="09A7"/>
  <anchor x="367.82758620689657" y="32.48275862068966" name="bottom"/>
  <anchor x="368.3103448275862" y="80.55172413793103" name="bottom.rakaar"/>
  <anchor x="371.82758620689657" y="7.379310344827585" name="bottom.rvocalic"/>
  <anchor x="358.48275862068965" y="10.96551724137931" name="bottom.virama"/>
  <anchor x="350.65517241379314" y="578.0689655172414" name="top"/>
  <anchor x="352.0344827586207" y="570.6206896551724" name="topright"/>
  <anchor x="216.0" y="0.0" name="vedic"/>
  <outline>
    <contour>
      <point x="363.9655172413793" y="-19.82758620689655" type="line"/>
      <point x="371.82758620689657" y="-18.20689655172414" type="line"/>
      <point x="371.82758620689657" y="557.5862068965517" type="line"/>
      <point x="460.10344827586204" y="557.5862068965517" type="line"/>
      <point x="425.27586206896547" y="622.0" type="line"/>
      <point x="299.10344827586204" y="622.0" type="line"/>
      <point x="299.10344827586204" y="472.06896551724134" type="line"/>
      <point x="307.58620689655174" y="507.58620689655174" type="line"/>
      <point x="204.75862068965517" y="463.06896551724134"/>
      <point x="100.89655172413792" y="407.0689655172414"/>
      <point x="14.379310344827587" y="339.5172413793103" type="curve"/>
      <point x="76.44827586206895" y="208.93103448275863" type="line"/>
      <point x="179.06896551724137" y="181.89655172413794"/>
      <point x="259.8620689655172" y="125.93103448275862"/>
      <point x="313.3103448275862" y="15.137931034482758" type="curve"/>
    </contour>
    <contour>
      <point x="299.10344827586204" y="88.55172413793103" type="line"/>
      <point x="315.2068965517241" y="86.41379310344828" type="line"/>
      <point x="281.58620689655174" y="201.0"/>
      <point x="200.03448275862067" y="264.9655172413793"/>
      <point x="121.86206896551724" y="293.1034482758621" type="curve"/>
      <point x="126.6206896551724" y="276.86206896551727" type="line"/>
      <point x="180.6551724137931" y="325.06896551724134"/>
      <point x="254.41379310344826" y="363.3448275862069"/>
      <point x="312.0689655172414" y="390.7586206896552" type="curve"/>
      <point x="299.10344827586204" y="424.6896551724138" type="line"/>
    </contour>
    <contour>
      <point x="170.3793103448276" y="401.41379310344826" type="curve"/>
      <point x="197.20689655172413" y="435.27586206896547" type="line"/>
      <point x="147.10344827586206" y="439.27586206896547"/>
      <point x="118.6206896551724" y="472.7586206896552"/>
      <point x="118.6206896551724" y="505.7586206896552" type="curve" smooth="yes"/>
      <point x="118.6206896551724" y="539.1379310344827"/>
      <point x="135.3793103448276" y="556.8965517241379"/>
      <point x="159.86206896551724" y="556.8965517241379" type="curve" smooth="yes"/>
      <point x="165.86206896551724" y="556.8965517241379"/>
      <point x="172.48275862068965" y="555.8965517241379"/>
      <point x="180.10344827586206" y="552.8965517241379" type="curve"/>
      <point x="146.13793103448276" y="590.0" type="line"/>
      <point x="139.51724137931035" y="577.7586206896551"/>
      <point x="137.51724137931035" y="562.7586206896552"/>
      <point x="137.51724137931035" y="548.0344827586207" type="curve" smooth="yes"/>
      <point x="137.51724137931035" y="510.17241379310343"/>
      <point x="162.24137931034483" y="489.6896551724138"/>
      <point x="190.72413793103448" y="489.6896551724138" type="curve" smooth="yes"/>
      <point x="222.06896551724137" y="489.6896551724138"/>
      <point x="247.17241379310343" y="514.7931034482758"/>
      <point x="247.17241379310343" y="553.8965517241379" type="curve" smooth="yes"/>
      <point x="247.17241379310343" y="599.2413793103449"/>
      <point x="218.44827586206895" y="636.5862068965517"/>
      <point x="159.13793103448276" y="636.5862068965517" type="curve" smooth="yes"/>
      <point x="93.44827586206897" y="636.5862068965517"/>
      <point x="48.96551724137931" y="590.1034482758621"/>
      <point x="48.96551724137931" y="522.3793103448276" type="curve" smooth="yes"/>
      <point x="48.96551724137931" y="437.44827586206895"/>
      <point x="122.13793103448276" y="401.41379310344826"/>
    </contour>
  </outline>
</glyph>
<glyph name="na-beng" format="2">
  <advance width="443.7931034482759"/>
  <unicode hex="09A8"/>
  <anchor x="366.7931034482759" y="76.58620689655173" name="bottom"/>
  <anchor x="379.89655172413796" y="80.55172413793103" name="bottom.rakaar"/>
  <anchor x="377.4137931034483" y="7.275862068965517" name="bottom.rvocalic"/>
  <anchor x="360.93103448275866" y="10.96551724137931" name="bottom.virama"/>
  <anchor x="356.8620689655172" y="578.0689655172414" name="top"/>
  <anchor x="358.86206896551727" y="570.6206896551724" name="topright"/>
  <anchor x="221.58620689655174" y="0.0" name="vedic"/>
  <outline>
    <contour>
      <point x="370.55172413793105" y="-21.06896551724138" type="line"/>
      <point x="377.4137931034483" y="-19.448275862068968" type="line"/>
      <point x="377.4137931034483" y="557.5862068965517" type="line"/>
      <point x="471.8965517241379" y="557.5862068965517" type="line"/>
      <point x="437.6896551724138" y="622.0" type="line"/>
      <point x="-28.724137931034484" y="622.0" type="line"/>
      <point x="5.482758620689655" y="557.5862068965517" type="line"/>
      <point x="305.3103448275862" y="557.5862068965517" type="line"/>
      <point x="305.3103448275862" y="346.1034482758621" type="line" smooth="yes"/>
      <point x="305.3103448275862" y="289.96551724137936"/>
      <point x="311.0689655172414" y="233.6206896551724"/>
      <point x="315.9310344827586" y="189.9310344827586" type="curve"/>
      <point x="322.7931034482759" y="183.89655172413794" type="line"/>
      <point x="305.448275862069" y="313.2068965517241"/>
      <point x="241.58620689655174" y="432.7931034482759"/>
      <point x="130.0344827586207" y="432.7931034482759" type="curve" smooth="yes"/>
      <point x="66.20689655172414" y="432.7931034482759"/>
      <point x="17.620689655172413" y="387.0689655172414"/>
      <point x="17.620689655172413" y="311.3793103448276" type="curve" smooth="yes"/>
      <point x="17.620689655172413" y="245.44827586206895"/>
      <point x="55.689655172413794" y="194.10344827586206"/>
      <point x="117.75862068965516" y="194.10344827586206" type="curve" smooth="yes"/>
      <point x="176.31034482758622" y="194.10344827586206"/>
      <point x="206.27586206896552" y="238.55172413793102"/>
      <point x="206.27586206896552" y="289.8965517241379" type="curve" smooth="yes"/>
      <point x="206.27586206896552" y="313.3793103448276"/>
      <point x="198.41379310344828" y="339.7586206896552"/>
      <point x="179.6896551724138" y="354.2413793103448" type="curve"/>
      <point x="154.10344827586206" y="296.551724137931" type="line"/>
      <point x="162.3448275862069" y="303.4137931034483"/>
      <point x="176.82758620689657" y="307.8965517241379"/>
      <point x="192.17241379310346" y="307.8965517241379" type="curve" smooth="yes"/>
      <point x="264.7931034482758" y="307.8965517241379"/>
      <point x="308.93103448275866" y="137.86206896551724"/>
      <point x="320.2758620689655" y="19.379310344827587" type="curve"/>
    </contour>
  </outline>
</glyph>
